<svg width="87" height="29" viewBox="0 0 87 29" fill="none" xmlns="http://www.w3.org/2000/svg">
<path d="M80.0226 0H6.90476C6.68672 0 6.39599 0 6.10526 0C5.88722 0 5.66917 0 5.45113 0C4.94236 0 4.50627 0.0725 3.99749 0.145C3.5614 0.2175 3.05263 0.3625 2.61654 0.58C2.18045 0.7975 1.81704 1.0875 1.45363 1.45C1.09023 1.8125 0.799499 2.175 0.581454 2.61C0.363409 3.045 0.218045 3.5525 0.145363 3.9875C0.0726817 4.495 0 5.0025 0 5.4375C0 5.655 0 5.8725 0 6.09V22.8375C0 23.055 0 23.2725 0 23.49C0 23.9975 0.0726817 24.4325 0.145363 24.94C0.218045 25.4475 0.363409 25.8825 0.581454 26.3175C0.799499 26.825 1.09023 27.1875 1.45363 27.55C1.81704 27.9125 2.18045 28.2025 2.61654 28.42C3.05263 28.6375 3.48872 28.7825 3.99749 28.855C4.50627 28.9275 4.94236 29 5.45113 29C5.66917 29 5.88722 29 6.10526 29C6.39599 29 6.61404 29 6.90476 29H80.0226C80.3133 29 80.5313 29 80.8221 29C81.0401 29 81.2581 29 81.4762 29C81.985 29 82.4211 28.9275 82.9298 28.855C83.4386 28.7825 83.8747 28.6375 84.3108 28.42C84.7469 28.2025 85.1103 27.9125 85.4737 27.55C85.8371 27.1875 86.1278 26.825 86.3459 26.39C86.5639 25.955 86.7093 25.52 86.782 25.0125C86.8546 24.505 86.9273 24.07 86.9273 23.5625C86.9273 23.345 86.9273 23.1275 86.9273 22.91C86.9273 22.62 86.9273 22.4025 86.9273 22.1125V6.8875C86.9273 6.5975 86.9273 6.38 86.9273 6.09C86.9273 5.8725 86.9273 5.655 86.9273 5.4375C86.9273 4.93 86.8546 4.495 86.782 3.9875C86.7093 3.48 86.5639 3.045 86.3459 2.61C85.9098 1.74 85.183 1.015 84.3108 0.58C83.8747 0.3625 83.4386 0.2175 82.9298 0.145C82.4211 0.0725 81.985 0 81.4762 0C81.2581 0 81.0401 0 80.8221 0C80.604 0 80.3133 0 80.0226 0Z" fill="#A6A6A6"/>
<path d="M6.10535 28.3473C5.88731 28.3473 5.66926 28.3473 5.45122 28.3473C5.01513 28.3473 4.50635 28.2748 4.07026 28.2023C3.63417 28.1298 3.27077 27.9848 2.83468 27.8398C2.47127 27.6223 2.10786 27.4048 1.81713 27.1148C1.52641 26.8248 1.23568 26.4623 1.09031 26.0998C0.87227 25.7373 0.799588 25.3023 0.726906 24.8673C0.654225 24.4323 0.581543 23.9973 0.581543 23.4898C0.581543 23.3448 0.581543 22.8373 0.581543 22.8373V6.08984C0.581543 6.08984 0.581543 5.58234 0.581543 5.43734C0.581543 5.00234 0.654225 4.49484 0.726906 4.05984C0.799588 3.69734 0.944951 3.26234 1.163 2.89984C1.38104 2.53734 1.59909 2.17484 1.88981 1.88484C2.18054 1.59484 2.54395 1.37734 2.90736 1.15984C3.27077 0.942344 3.70686 0.869844 4.14295 0.797344C4.57904 0.724844 5.01513 0.652344 5.5239 0.652344H6.17803H80.8948H81.549C81.985 0.652344 82.4211 0.724844 82.9299 0.797344C83.366 0.869844 83.7294 1.01484 84.1655 1.15984C84.8923 1.52234 85.5464 2.17484 85.9099 2.89984C86.1279 3.26234 86.2006 3.69734 86.2733 4.05984C86.3459 4.49484 86.4186 5.00234 86.4186 5.43734C86.4186 5.65484 86.4186 5.87234 86.4186 6.08984C86.4186 6.37984 86.4186 6.59734 86.4186 6.88734V22.0398C86.4186 22.3298 86.4186 22.5473 86.4186 22.8373C86.4186 23.0548 86.4186 23.2723 86.4186 23.4898C86.4186 23.9248 86.3459 24.3598 86.2733 24.8673C86.2006 25.3023 86.0552 25.6648 85.9099 26.0998C85.6918 26.4623 85.4738 26.8248 85.183 27.1148C84.8923 27.4048 84.5289 27.6948 84.1655 27.8398C83.8021 28.0573 83.366 28.2023 82.9299 28.2023C82.4938 28.2748 82.0577 28.3473 81.549 28.3473C81.3309 28.3473 81.1129 28.3473 80.8948 28.3473H80.0953H6.10535Z" fill="black"/>
<path d="M18.025 14.7178C18.025 13.4853 18.6791 12.3253 19.7694 11.6728C19.1152 10.7303 18.025 10.1503 16.8621 10.0778C15.6265 9.93283 14.4636 10.8028 13.8095 10.8028C13.1553 10.8028 12.2105 10.0778 11.1929 10.0778C9.81196 10.1503 8.57637 10.8753 7.92224 12.0353C6.54128 14.4278 7.55883 18.0528 8.93978 20.0103C9.59392 20.9528 10.3934 22.0403 11.411 22.0403C12.4285 21.9678 12.7919 21.3878 14.0275 21.3878C15.2631 21.3878 15.5538 22.0403 16.644 22.0403C17.7343 22.0403 18.3884 21.0978 19.0425 20.0828C19.5513 19.4303 19.9147 18.6328 20.1328 17.8353C18.8245 17.4003 18.025 16.0953 18.025 14.7178Z" fill="white"/>
<path d="M15.9899 8.84512C16.5713 8.12012 16.862 7.25012 16.7894 6.30762C15.9172 6.38012 15.045 6.81512 14.4636 7.54012C13.8821 8.19262 13.5914 9.06262 13.6641 10.0051C14.6089 10.0051 15.4084 9.57012 15.9899 8.84512Z" fill="white"/>
<path d="M30.7444 19.6476H27.3283L26.5288 22.1126H25.0752L28.3459 13.1226H29.7995L33.0702 22.1126H31.6165L30.7444 19.6476ZM27.6917 18.5601H30.4536L29.0727 14.5726H29L27.6917 18.5601Z" fill="white"/>
<path d="M40.1203 18.8499C40.1203 20.8799 39.0301 22.1849 37.3584 22.1849C36.4862 22.2574 35.6867 21.7499 35.3233 21.0249V24.2874H33.9424V15.5874H35.2507V16.6749C35.6867 15.9499 36.4862 15.5149 37.3584 15.5149C38.9574 15.4424 40.1203 16.8199 40.1203 18.8499ZM38.6667 18.8499C38.6667 17.5449 38.0126 16.6749 36.9223 16.6749C35.9048 16.6749 35.178 17.5449 35.178 18.8499C35.178 20.1549 35.9048 21.0249 36.9223 21.0249C38.0126 21.0249 38.6667 20.1549 38.6667 18.8499Z" fill="white"/>
<path d="M47.3159 18.8499C47.3159 20.8799 46.2257 22.1849 44.554 22.1849C43.6818 22.2574 42.8823 21.7499 42.5189 21.0249V24.2874H41.1379V15.5874H42.4462V16.6749C42.8823 15.9499 43.6818 15.5149 44.554 15.5149C46.2257 15.4424 47.3159 16.8199 47.3159 18.8499ZM45.9349 18.8499C45.9349 17.5449 45.2808 16.6749 44.1906 16.6749C43.173 16.6749 42.4462 17.5449 42.4462 18.8499C42.4462 20.1549 43.173 21.0249 44.1906 21.0249C45.2808 21.0249 45.9349 20.1549 45.9349 18.8499Z" fill="white"/>
<path d="M52.1128 19.575C52.1855 20.445 53.0576 21.025 54.2932 21.025C55.4561 21.025 56.2556 20.445 56.2556 19.6475C56.2556 18.9225 55.7469 18.56 54.584 18.27L53.4211 17.98C51.7494 17.545 51.0226 16.82 51.0226 15.5875C51.0226 14.065 52.4035 12.9775 54.2932 12.9775C56.183 12.9775 57.4912 14.065 57.5639 15.5875H56.183C56.1103 14.7175 55.3835 14.1375 54.2932 14.1375C53.203 14.1375 52.4762 14.7175 52.4762 15.515C52.4762 16.1675 52.985 16.53 54.1479 16.82L55.1654 17.0375C56.9825 17.4725 57.782 18.1975 57.782 19.5025C57.782 21.17 56.401 22.2575 54.2932 22.2575C52.2581 22.2575 50.9499 21.2425 50.8772 19.575H52.1128Z" fill="white"/>
<path d="M60.5439 13.9927V15.5152H61.7795V16.6027H60.5439V20.2277C60.5439 20.8077 60.7619 21.0252 61.3434 21.0252C61.4888 21.0252 61.6341 21.0252 61.7795 21.0252V22.1127C61.5614 22.1852 61.2707 22.1852 61.0527 22.1852C59.7444 22.1852 59.2356 21.6777 59.2356 20.4452V16.6752H58.2908V15.5877H59.2356V14.0652H60.5439V13.9927Z" fill="white"/>
<path d="M62.5789 18.8501C62.5789 16.8201 63.8145 15.5151 65.7042 15.5151C67.5939 15.5151 68.8295 16.8201 68.8295 18.8501C68.8295 20.9526 67.5939 22.1851 65.7042 22.1851C63.7418 22.1851 62.5789 20.8801 62.5789 18.8501ZM67.4485 18.8501C67.4485 17.4001 66.7944 16.6026 65.7042 16.6026C64.614 16.6026 63.9598 17.4001 63.9598 18.8501C63.9598 20.3001 64.614 21.0976 65.7042 21.0976C66.7944 21.0976 67.4485 20.2276 67.4485 18.8501Z" fill="white"/>
<path d="M69.9199 15.5152H71.2282V16.6752C71.3736 15.9502 72.1004 15.4427 72.8272 15.5152C72.9726 15.5152 73.1179 15.5152 73.2633 15.5877V16.8202C73.0452 16.7477 72.8272 16.7477 72.6818 16.7477C71.955 16.7477 71.3009 17.3277 71.3009 18.0527C71.3009 18.1252 71.3009 18.1977 71.3009 18.2702V22.1852H69.9199V15.5152Z" fill="white"/>
<path d="M79.5139 20.1549C79.3685 21.3149 78.1329 22.1849 76.6793 22.1849C74.7895 22.1849 73.554 20.8799 73.554 18.8499C73.554 16.8199 74.7169 15.4424 76.6066 15.4424C78.4236 15.4424 79.5865 16.6749 79.5865 18.7049V19.1399H74.9349V19.2124C74.8622 20.1549 75.5164 20.9524 76.4612 21.0974C76.5339 21.0974 76.6066 21.0974 76.6793 21.0974C77.3334 21.1699 77.9875 20.8074 78.2056 20.1549H79.5139ZM74.9349 18.1974H78.2056C78.2783 17.3274 77.5515 16.6024 76.6793 16.5299C76.6066 16.5299 76.6066 16.5299 76.5339 16.5299C75.6617 16.5299 74.9349 17.2549 74.9349 18.1974Z" fill="white"/>
<path d="M27.4738 6.30736C28.564 6.23486 29.4362 7.03236 29.5088 8.04736C29.5088 8.19236 29.5088 8.26486 29.5088 8.40986C29.5088 9.78736 28.782 10.5849 27.4738 10.5849H25.8748V6.23486H27.4738V6.30736ZM26.6016 10.0774H27.4011C28.1279 10.1499 28.782 9.56986 28.8547 8.77236C28.8547 8.69986 28.8547 8.55486 28.8547 8.48236C28.9274 7.75736 28.4186 7.03236 27.6918 6.95986C27.6191 6.95986 27.5464 6.95986 27.4011 6.95986H26.6016V10.0774Z" fill="white"/>
<path d="M30.3084 8.99001C30.2357 8.12001 30.8171 7.39501 31.6893 7.32251C32.5615 7.25001 33.2883 7.83001 33.361 8.70001C33.361 8.77251 33.361 8.91751 33.361 8.99001C33.4337 9.86001 32.8522 10.585 31.98 10.6575C31.1079 10.73 30.381 10.15 30.3084 9.28001C30.3084 9.20751 30.3084 9.13501 30.3084 8.99001ZM32.7069 8.99001C32.7069 8.26501 32.4161 7.90251 31.8347 7.90251C31.2532 7.90251 30.9625 8.33751 30.9625 8.99001C30.9625 9.71501 31.2532 10.15 31.8347 10.15C32.4161 10.15 32.7069 9.71501 32.7069 8.99001Z" fill="white"/>
<path d="M37.5038 10.6575H36.8497L36.1955 8.26502H36.1228L35.4687 10.6575H34.8146L33.9424 7.39502H34.5965L35.178 9.86002H35.2507L35.9048 7.39502H36.5589L37.2131 9.86002H37.2857L37.8672 7.39502H38.5213L37.5038 10.6575Z" fill="white"/>
<path d="M39.1755 7.39483H39.8297V7.90233H39.9024C40.0477 7.53983 40.4838 7.32233 40.8472 7.32233C41.4287 7.24983 41.9374 7.68483 42.0101 8.33733C42.0101 8.40983 42.0101 8.48233 42.0101 8.55483V10.6573H41.356V8.69983C41.356 8.19233 41.1379 7.90233 40.6292 7.90233C40.1931 7.90233 39.8297 8.19233 39.8297 8.62733C39.8297 8.69983 39.8297 8.69983 39.8297 8.77233V10.6573H39.1755V7.39483Z" fill="white"/>
<path d="M42.9551 6.08984H43.6092V10.6573H42.9551V6.08984Z" fill="white"/>
<path d="M44.4812 8.99001C44.4085 8.12001 44.99 7.39501 45.8622 7.32251C46.7343 7.25001 47.4612 7.83001 47.5338 8.70001C47.5338 8.77251 47.5338 8.91751 47.5338 8.99001C47.6065 9.86001 47.0251 10.585 46.1529 10.6575C45.2807 10.73 44.5539 10.15 44.4812 9.28001C44.4812 9.20751 44.4812 9.13501 44.4812 8.99001ZM46.9524 8.99001C46.9524 8.26501 46.6617 7.90251 46.0802 7.90251C45.4988 7.90251 45.208 8.33751 45.208 8.99001C45.208 9.71501 45.4988 10.15 46.0802 10.15C46.589 10.15 46.9524 9.71501 46.9524 8.99001Z" fill="white"/>
<path d="M48.2607 9.71476C48.2607 9.13476 48.6968 8.77227 49.4963 8.77227L50.3684 8.69976V8.40977C50.3684 8.04727 50.1504 7.90226 49.7143 7.90226C49.3509 7.90226 49.1328 8.04726 49.0602 8.26476H48.406C48.4787 7.68476 48.9875 7.32227 49.7143 7.32227C50.5138 7.32227 51.0226 7.75727 51.0226 8.40977V10.6573H50.3684V10.2223H50.2958C50.0777 10.5848 49.7143 10.7298 49.2782 10.7298C48.7694 10.8023 48.2607 10.3673 48.188 9.85976C48.2607 9.78726 48.2607 9.78726 48.2607 9.71476ZM50.3684 9.42476V9.13477L49.5689 9.20726C49.1328 9.20726 48.9148 9.42476 48.9148 9.64226C48.9148 9.93226 49.2055 10.0773 49.4963 10.0773C49.9323 10.2223 50.2958 9.93226 50.3684 9.42476C50.3684 9.49726 50.3684 9.49726 50.3684 9.42476Z" fill="white"/>
<path d="M51.822 8.98984C51.822 7.97484 52.3308 7.32234 53.203 7.32234C53.6391 7.32234 54.0025 7.53984 54.2205 7.90234H54.2932V6.08984H54.9473V10.6573H54.2932V10.1498H54.2205C54.0025 10.5123 53.6391 10.7298 53.203 10.7298C52.4035 10.7298 51.822 10.0773 51.822 8.98984ZM52.5488 8.98984C52.5488 9.71484 52.9122 10.0773 53.421 10.0773C53.9298 10.0773 54.2932 9.64234 54.2932 8.98984C54.2932 8.33734 53.9298 7.90234 53.421 7.90234C52.8396 7.90234 52.5488 8.33734 52.5488 8.98984Z" fill="white"/>
<path d="M57.564 8.99001C57.4913 8.12001 58.0728 7.39501 58.9449 7.32251C59.8171 7.25001 60.5439 7.83001 60.6166 8.70001C60.6166 8.77251 60.6166 8.91751 60.6166 8.99001C60.6893 9.86001 60.1078 10.585 59.2357 10.6575C58.3635 10.73 57.6367 10.15 57.564 9.28001C57.564 9.20751 57.564 9.13501 57.564 8.99001ZM60.0352 8.99001C60.0352 8.26501 59.7444 7.90251 59.163 7.90251C58.5815 7.90251 58.2908 8.33751 58.2908 8.99001C58.2908 9.71501 58.5815 10.15 59.163 10.15C59.6718 10.15 60.0352 9.71501 60.0352 8.99001Z" fill="white"/>
<path d="M61.5615 7.39483H62.2157V7.90233H62.2883C62.4337 7.53983 62.8698 7.32233 63.2332 7.32233C63.8147 7.24983 64.3234 7.68483 64.3961 8.33733C64.3961 8.40983 64.3961 8.48233 64.3961 8.55483V10.6573H63.742V8.69983C63.742 8.19233 63.5239 7.90233 63.0152 7.90233C62.5791 7.90233 62.2157 8.19233 62.2157 8.62733C62.2157 8.69983 62.2157 8.69983 62.2157 8.77233V10.6573H61.5615V7.39483Z" fill="white"/>
<path d="M67.9575 6.59717V7.39467H68.6843V7.97467H67.9575V9.64217C67.9575 10.0047 68.1029 10.1497 68.3936 10.1497C68.4663 10.1497 68.539 10.1497 68.6117 10.1497V10.6572C68.4663 10.6572 68.3936 10.6572 68.2482 10.6572C67.5214 10.6572 67.2307 10.4397 67.2307 9.78717V7.97467H66.7219V7.46717H67.2307V6.59717H67.9575Z" fill="white"/>
<path d="M69.5564 6.08984H70.2105V7.90234H70.2832C70.4286 7.53984 70.8647 7.24984 71.3008 7.32234C71.8822 7.32234 72.391 7.75734 72.4637 8.33734C72.4637 8.40984 72.4637 8.48234 72.4637 8.55484V10.6573H71.8095V8.69984C71.8095 8.19234 71.5915 7.90234 71.0827 7.90234C70.6466 7.90234 70.2832 8.19234 70.2832 8.62734C70.2832 8.69984 70.2832 8.69984 70.2832 8.77234V10.6573H69.6291L69.5564 6.08984Z" fill="white"/>
<path d="M76.1704 9.78752C76.0251 10.3675 75.3709 10.8025 74.7168 10.73C73.9173 10.73 73.1905 10.0775 73.1905 9.28002C73.1905 9.20752 73.1905 9.13502 73.1905 9.06252C73.0451 8.26502 73.6266 7.46752 74.4988 7.39502C74.5714 7.39502 74.6441 7.39502 74.7168 7.39502C75.6617 7.39502 76.1704 8.04752 76.1704 9.06252V9.28002H73.8446C73.7719 9.78752 74.1353 10.15 74.6441 10.2225H74.7168C75.0075 10.295 75.3709 10.0775 75.5163 9.86002L76.1704 9.78752ZM73.8446 8.70002H75.5163C75.5163 8.26502 75.2256 7.90252 74.7895 7.83002H74.7168C74.2807 7.90252 73.8446 8.26502 73.8446 8.70002Z" fill="white"/>
</svg>
