<svg width="360" height="210" viewBox="0 0 360 210" fill="none" xmlns="http://www.w3.org/2000/svg">
<g clip-path="url(#clip0_20_8315)">
<rect width="360" height="280" fill="black"/>
<path opacity="0.25" d="M-42 187.33L-10.015 144.518C-10.015 144.518 225.157 69.3696 256.091 25.7107H214.772C214.772 25.7107 237.104 10.1854 269.471 -15C278.678 -14.4041 287.885 -13.7454 297.092 -13.0868C365.044 -8.09989 420.094 43.1491 429.141 109.641C434.78 150.979 436.341 192.537 433.856 234C381.036 222.333 322.578 214.868 270.937 220.921L310.44 172.401C310.44 172.401 116.013 147.968 -42 187.33Z" fill="url(#paint0_linear_20_8315)"/>
<path opacity="0.25" d="M320.175 263.78C254.337 247.029 169.653 250.902 169.653 250.902C131.895 263.244 85.0641 224.643 65.0391 164.726C45.0141 104.809 59.3723 46.2142 97.1301 33.8718C97.1301 33.8718 143.643 7.9592 169.78 -20C212.282 -18.3942 254.751 -16.0328 297.189 -12.9157C365.096 -7.90954 420.109 43.5379 429.15 110.287C436.95 167.843 436.95 225.871 429.15 283.427C426.635 302.035 420.522 319.446 411.576 335C333.641 308.741 280.22 302.444 280.22 302.444L320.175 263.78Z" fill="url(#paint1_linear_20_8315)"/>
<path fill-rule="evenodd" clip-rule="evenodd" d="M268.006 122.987C272.446 114.548 283.021 111.035 291.626 115.14L304.222 121.148C309.279 123.561 312.531 128.067 313.452 133.086C316.01 137.764 316.226 143.587 313.505 148.76L301.531 171.52C298.571 177.148 292.881 180.585 286.867 181.033C282.482 182.615 277.501 182.531 273.047 180.407L260.452 174.399C256.427 172.479 253.545 169.232 252.073 165.457C242.695 168.622 228.335 172.386 217.961 171.68C217.682 174.085 216.511 176.222 214.785 177.748C231.331 174.464 251.751 173.483 263.567 179.356C263.818 179.479 264.065 179.606 264.309 179.736L264.306 179.739C271.518 183.624 275.208 190.268 272.257 200.809C269.739 209.797 263.485 216.253 255.423 220.591C256.408 222.816 257.689 226.661 258.38 228.889C239.111 239.538 209.697 238.495 194.343 230.968C181.891 224.876 175.401 212.88 180.493 202.289C180.497 196.289 183.821 190.193 191.526 185.382C194.323 183.633 198.95 181.805 204.622 180.185L195.174 180.265C190.67 180.303 186.865 177.23 185.799 173.053C185.598 172.294 185.488 171.498 185.481 170.676L185.46 168.217C185.415 162.92 189.673 158.59 194.97 158.545L202.884 158.478C203.435 158.473 203.976 158.515 204.502 158.6L208.333 158.567C213.271 158.525 217.368 162.222 217.938 167.015C225.032 167.037 237.564 165.765 250.996 160.697C250.778 157.701 251.38 154.592 252.908 151.687L268.006 122.987Z" fill="black" fill-opacity="0.1"/>
<path d="M222.856 93.7633C222.074 92.3464 221.002 91.1319 219.727 90.1198C217.815 88.6161 215.468 87.7486 213.034 87.5751C210.601 87.4016 208.138 87.98 206.023 89.1945C203.879 90.409 202.141 92.2307 201.04 94.4284C199.939 96.626 199.476 99.084 199.766 101.542C200.055 103.971 201.04 106.255 202.634 108.106C204.227 109.957 206.342 111.258 208.689 111.894C211.035 112.53 213.556 112.443 215.874 111.663C218.191 110.882 220.248 109.407 221.784 107.47C222.798 106.169 223.522 104.723 223.986 103.132C224.42 101.571 224.565 99.9225 224.362 98.3032C224.16 96.7128 223.667 95.1802 222.856 93.7633Z" fill="#363B3E"/>
<path d="M363.115 118.18C376.096 124.742 388.387 132.996 396.032 145.236C402.114 154.973 408.833 174.901 397.78 183.816C387.391 192.192 374.892 181.827 364.825 178.212C356.784 175.324 348.349 173.544 339.829 172.928C331.433 172.321 322.321 175.044 315.305 169.168C302.572 158.506 302.616 132.828 307.834 118.65C314.419 100.759 332.591 104.571 346.627 110.616C352.049 112.952 357.642 115.416 363.115 118.18Z" fill="#084C7E"/>
<path d="M363.115 118.18C376.096 124.742 388.387 132.996 396.032 145.236C402.114 154.973 408.833 174.901 397.78 183.816C387.391 192.192 374.892 181.827 364.825 178.212C356.784 175.324 348.349 173.544 339.829 172.928C331.433 172.321 322.321 175.044 315.305 169.168C302.572 158.506 302.616 132.828 307.834 118.65C314.419 100.759 332.591 104.571 346.627 110.616C352.049 112.952 357.642 115.416 363.115 118.18Z" fill="url(#paint2_radial_20_8315)"/>
<path d="M363.115 118.18C376.096 124.742 388.387 132.996 396.032 145.236C402.114 154.973 408.833 174.901 397.78 183.816C387.391 192.192 374.892 181.827 364.825 178.212C356.784 175.324 348.349 173.544 339.829 172.928C331.433 172.321 322.321 175.044 315.305 169.168C302.572 158.506 302.616 132.828 307.834 118.65C314.419 100.759 332.591 104.571 346.627 110.616C352.049 112.952 357.642 115.416 363.115 118.18Z" fill="url(#paint3_radial_20_8315)"/>
<path d="M324.026 133.268C324.513 133.331 325.007 133.395 325.512 133.455C326.083 133.522 326.657 133.622 327.248 133.711C327.835 133.806 328.437 133.893 329.046 134C329.654 134.115 330.27 134.231 330.899 134.35C331.212 134.411 331.53 134.467 331.848 134.534C332.165 134.602 332.486 134.673 332.806 134.744C333.448 134.888 334.105 135.025 334.762 135.184C335.42 135.351 336.085 135.519 336.761 135.69C337.438 135.855 338.113 136.06 338.801 136.252C339.485 136.449 340.184 136.639 340.876 136.868C341.572 137.09 342.274 137.316 342.983 137.543C343.685 137.79 344.394 138.04 345.109 138.292C347.959 139.332 350.865 140.536 353.774 141.921C356.674 143.32 359.434 144.831 362.031 146.4C362.677 146.799 363.314 147.196 363.948 147.588C364.569 147.998 365.186 148.404 365.793 148.806C366.405 149.201 366.989 149.627 367.574 150.037C368.154 150.45 368.736 150.849 369.288 151.274C369.844 151.694 370.393 152.107 370.935 152.516C371.47 152.932 371.99 153.354 372.504 153.766C372.762 153.972 373.015 154.178 373.268 154.38C373.519 154.585 373.762 154.798 374.005 155.004C374.491 155.419 374.968 155.827 375.438 156.229C375.902 156.637 376.348 157.048 376.79 157.449C377.228 157.853 377.669 158.237 378.077 158.639C378.898 159.441 379.703 160.187 380.425 160.949C381.156 161.701 381.857 162.41 382.484 163.116C383.117 163.817 383.727 164.463 384.259 165.1C384.798 165.734 385.305 166.315 385.757 166.865C386.201 167.42 386.606 167.927 386.971 168.384C387.151 168.613 387.324 168.825 387.482 169.034C387.639 169.241 387.781 169.435 387.917 169.614C388.185 169.975 388.412 170.28 388.593 170.528C388.956 171.021 389.146 171.281 389.146 171.281C389.146 171.281 388.915 171.057 388.474 170.631C388.255 170.416 387.983 170.152 387.662 169.839C387.503 169.682 387.329 169.515 387.148 169.334C386.96 169.159 386.76 168.97 386.547 168.772C386.124 168.374 385.653 167.933 385.138 167.451C384.618 166.974 384.042 166.467 383.434 165.916C382.83 165.359 382.152 164.799 381.448 164.19C380.751 163.574 379.981 162.961 379.187 162.305C378.401 161.64 377.535 160.992 376.658 160.29C376.222 159.937 375.755 159.602 375.29 159.251C374.823 158.901 374.347 158.545 373.865 158.183C373.373 157.832 372.875 157.474 372.368 157.109C372.115 156.926 371.858 156.744 371.603 156.561C371.343 156.382 371.08 156.201 370.812 156.021C370.28 155.659 369.748 155.284 369.2 154.918C368.647 154.555 368.088 154.191 367.52 153.818C366.959 153.44 366.372 153.088 365.784 152.717C365.195 152.351 364.61 151.969 363.995 151.614C363.388 151.251 362.774 150.883 362.154 150.512C361.525 150.154 360.893 149.795 360.253 149.43C357.686 147.995 354.99 146.584 352.181 145.23C349.365 143.891 346.576 142.673 343.848 141.574C343.165 141.304 342.488 141.035 341.816 140.77C341.139 140.519 340.469 140.27 339.805 140.025C339.143 139.77 338.478 139.553 337.823 139.323C337.168 139.098 336.524 138.861 335.878 138.66C335.234 138.452 334.597 138.245 333.97 138.042C333.34 137.845 332.714 137.665 332.099 137.477C331.791 137.385 331.486 137.292 331.183 137.2C330.878 137.115 330.575 137.031 330.276 136.947C329.675 136.779 329.084 136.615 328.502 136.453C327.917 136.303 327.341 136.157 326.776 136.013C326.211 135.871 325.657 135.718 325.109 135.599C324.527 135.469 323.956 135.331 323.398 135.204C323.601 134.546 323.808 133.904 324.026 133.268Z" fill="#259DD8"/>
<path d="M202.296 126.265C199.417 121.383 195.83 116.847 193.987 111.221C191.697 104.235 190.906 96.7994 186.883 90.3949C184.502 86.5951 181.67 82.9175 177.782 80.5137C173.894 78.1099 168.781 77.1533 164.638 79.0106C161.081 80.6113 158.745 83.9985 157.112 87.4281C145.561 111.695 165.158 143.531 191.535 150.89C201.57 153.701 207.259 146.81 206.405 137.679C205.963 133.353 204.324 129.727 202.296 126.265Z" fill="#084C7E"/>
<path d="M202.296 126.265C199.417 121.383 195.83 116.847 193.987 111.221C191.697 104.235 190.906 96.7994 186.883 90.3949C184.502 86.5951 181.67 82.9175 177.782 80.5137C173.894 78.1099 168.781 77.1533 164.638 79.0106C161.081 80.6113 158.745 83.9985 157.112 87.4281C145.561 111.695 165.158 143.531 191.535 150.89C201.57 153.701 207.259 146.81 206.405 137.679C205.963 133.353 204.324 129.727 202.296 126.265Z" fill="url(#paint4_radial_20_8315)"/>
<path d="M206.468 139.835C206.261 139.78 206.037 139.695 205.831 139.64C205.509 139.554 205.199 139.422 204.884 139.313C204.568 139.204 204.229 139.089 203.891 138.974C203.552 138.859 203.214 138.744 202.875 138.629C202.697 138.557 202.536 138.514 202.359 138.442C202.181 138.37 202.003 138.298 201.848 138.232C201.154 137.973 200.42 137.679 199.68 137.408C196.75 136.209 193.581 134.801 190.357 133.135C187.14 131.445 184.166 129.676 181.491 127.986C180.845 127.545 180.194 127.128 179.571 126.693C179.428 126.582 179.257 126.487 179.114 126.376C178.971 126.265 178.829 126.154 178.657 126.059C178.372 125.837 178.081 125.637 177.789 125.438C177.498 125.238 177.207 125.038 176.944 124.822C176.676 124.629 176.385 124.429 176.139 124.242C175.609 123.832 175.118 123.457 174.65 123.089C173.686 122.368 172.871 121.639 172.095 121.042C171.736 120.727 171.365 120.457 171.046 120.177C170.727 119.897 170.448 119.652 170.192 119.413C169.178 118.509 168.597 118.013 168.597 118.013C168.597 118.013 169.021 118.637 169.801 119.77C169.999 120.042 170.208 120.366 170.462 120.702C170.717 121.037 170.995 121.379 171.307 121.779C171.919 122.527 172.61 123.442 173.457 124.325C173.877 124.779 174.315 125.261 174.775 125.749C175.002 126.004 175.258 126.243 175.514 126.482C175.771 126.721 176.021 126.982 176.3 127.227C176.556 127.466 176.829 127.734 177.102 128.002C177.239 128.136 177.375 128.27 177.518 128.381C177.654 128.515 177.82 128.632 177.957 128.766C178.561 129.268 179.165 129.771 179.809 130.308C182.393 132.338 185.415 134.389 188.781 136.166C192.183 137.904 195.601 139.21 198.754 140.127C199.559 140.343 200.317 140.546 201.075 140.749C201.259 140.799 201.443 140.848 201.627 140.897C201.811 140.946 202.001 140.973 202.184 141.022C202.558 141.098 202.932 141.174 203.283 141.243C203.634 141.313 203.984 141.383 204.335 141.452C204.686 141.522 205.014 141.586 205.348 141.626C205.682 141.667 205.992 141.702 206.32 141.765C206.399 141.105 206.442 140.485 206.468 139.835Z" fill="#259DD8"/>
<path d="M181.067 107.783C180.366 106.719 179.953 106.146 179.953 106.146C179.953 106.146 180.169 106.812 180.585 108.018C180.702 108.317 180.807 108.661 180.934 109.012C181.085 109.368 181.253 109.754 181.408 110.185C181.777 111.013 182.156 111.99 182.695 113.01C182.954 113.517 183.229 114.053 183.521 114.618C183.667 114.9 183.842 115.166 183.988 115.448C184.157 115.737 184.326 116.025 184.495 116.314C184.664 116.602 184.856 116.897 185.019 117.208C185.103 117.353 185.205 117.526 185.289 117.67C185.397 117.82 185.481 117.965 185.589 118.115C185.996 118.711 186.419 119.335 186.866 119.965C188.689 122.448 190.885 125.007 193.509 127.437C196.146 129.822 198.909 131.827 201.54 133.407C202.204 133.78 202.868 134.152 203.508 134.518C203.657 134.607 203.829 134.701 203.977 134.79C204.126 134.878 204.304 134.95 204.453 135.039C204.779 135.199 205.082 135.354 205.386 135.508C205.627 135.621 205.867 135.734 206.108 135.847C205.893 134.719 205.614 133.647 205.259 132.58C205.134 132.497 205.037 132.398 204.911 132.316C204.358 131.9 203.781 131.478 203.181 131.05C200.854 129.259 198.345 127.224 195.85 124.951C193.362 122.655 191.122 120.352 189.14 118.191C188.646 117.645 188.174 117.105 187.726 116.572C187.613 116.444 187.499 116.316 187.386 116.189C187.272 116.061 187.165 115.91 187.074 115.789C186.847 115.533 186.649 115.262 186.445 115.012C186.24 114.763 186.036 114.514 185.832 114.264C185.628 114.015 185.418 113.789 185.237 113.545C184.874 113.059 184.506 112.596 184.161 112.138C183.458 111.269 182.899 110.414 182.355 109.684C182.083 109.32 181.851 108.99 181.62 108.66C181.434 108.343 181.242 108.048 181.067 107.783Z" fill="#259DD8"/>
<g filter="url(#filter0_f_20_8315)">
<path d="M380.143 261.621C361.02 298.634 316.892 313.772 266.923 270.178C302.91 254.265 375.935 222.752 380.143 224.013C384.35 225.274 381.896 249.61 380.143 261.621Z" fill="url(#paint5_linear_20_8315)"/>
</g>
<path d="M322.634 99.2663C292.277 79.0619 245.076 61.0188 212.744 87.1202C196.423 100.3 188.406 122.76 192.736 143.129C197.756 166.646 224.019 194.766 236.938 214.43C248.381 213.726 251 202.168 262.419 201.322L269.041 220.938L262.419 261.17C358.353 344.865 432.758 212.078 350.018 123.629C340.239 113.176 333.079 106.22 322.634 99.2663Z" fill="#259DD8"/>
<path d="M322.634 99.2663C292.277 79.0619 245.076 61.0188 212.744 87.1202C196.423 100.3 188.406 122.76 192.736 143.129C197.756 166.646 224.019 194.766 236.938 214.43C248.381 213.726 251 202.168 262.419 201.322L269.041 220.938L262.419 261.17C358.353 344.866 432.758 212.078 350.018 123.629C340.239 113.176 333.079 106.22 322.634 99.2663Z" fill="url(#paint6_linear_20_8315)"/>
<path d="M322.634 99.2663C292.277 79.0619 245.076 61.0188 212.744 87.1202C196.423 100.3 188.406 122.76 192.736 143.129C197.756 166.646 224.019 194.766 236.938 214.43C248.381 213.726 251 202.168 262.419 201.322L269.041 220.938L262.419 261.17C358.353 344.866 432.758 212.078 350.018 123.629C340.239 113.176 333.079 106.22 322.634 99.2663Z" fill="url(#paint7_linear_20_8315)"/>
<path d="M322.634 99.2663C292.277 79.0619 245.076 61.0188 212.744 87.1202C196.423 100.3 188.406 122.76 192.736 143.129C197.756 166.646 224.019 194.766 236.938 214.43C248.381 213.726 251 202.168 262.419 201.322L269.041 220.938L262.419 261.17C358.353 344.866 432.758 212.078 350.018 123.629C340.239 113.176 333.079 106.22 322.634 99.2663Z" fill="url(#paint8_radial_20_8315)"/>
<g filter="url(#filter1_d_20_8315)">
<path d="M235.925 88.3807C236.579 87.2214 237.476 86.2278 238.542 85.3997C240.141 84.1694 242.104 83.4596 244.139 83.3177C246.175 83.1757 248.234 83.6489 250.003 84.6426C251.796 85.6363 253.25 87.1268 254.171 88.9249C255.092 90.723 255.479 92.734 255.237 94.745C254.995 96.7324 254.171 98.6015 252.838 100.116C251.506 101.63 249.737 102.694 247.774 103.215C245.811 103.735 243.703 103.664 241.765 103.026C239.826 102.387 238.106 101.18 236.822 99.5951C235.974 98.5305 235.368 97.3475 234.98 96.0463C234.617 94.7687 234.496 93.4201 234.665 92.0952C234.835 90.8176 235.271 89.54 235.925 88.3807Z" fill="#363B3E"/>
</g>
<path opacity="0.5" d="M241.486 89.6186C241.635 90.0674 241.874 90.4899 242.202 90.8859C242.71 91.4404 243.366 91.8628 244.143 92.1005C244.919 92.3381 245.725 92.3645 246.501 92.1797C247.278 91.9949 247.964 91.5988 248.472 91.0707C248.979 90.5427 249.308 89.8826 249.427 89.1697C249.517 88.4568 249.368 87.7439 249.009 87.1103C248.651 86.4766 248.084 85.9485 247.367 85.5789C246.68 85.2357 245.874 85.0508 245.068 85.1036C244.262 85.1564 243.516 85.4205 242.889 85.8429C242.471 86.1334 242.113 86.4766 241.874 86.8991C241.605 87.2951 241.456 87.7704 241.396 88.2192C241.306 88.6945 241.336 89.1697 241.486 89.6186Z" fill="white"/>
<g filter="url(#filter2_i_20_8315)">
<path d="M222.461 118.354L205.16 113.477C200.234 112.088 195.179 115.649 195.835 120.725C196.751 127.815 199.619 135.116 207.447 136.606C215.481 138.136 222.222 133.285 226.432 127.951C229.273 124.349 226.876 119.599 222.461 118.354Z" fill="#363B3E"/>
</g>
<path opacity="0.1" fill-rule="evenodd" clip-rule="evenodd" d="M225.859 161.577C233.735 161.609 248.373 160.041 263.498 153.414C264.507 154.079 266.292 155.945 265.363 158.091C257.089 161.34 238.509 167.119 225.878 166.238C225.151 171.005 221.054 174.675 216.078 174.717L203.554 174.823C198.031 174.87 193.516 170.431 193.469 164.908L193.456 163.323C193.409 157.801 197.848 153.286 203.371 153.239L215.895 153.133C220.918 153.09 225.107 156.758 225.859 161.577Z" fill="black"/>
<path opacity="0.1" d="M283.195 102.701C285.171 98.77 285.905 87.0581 286.629 80.7949C289.544 82.0439 298.095 85.044 298.286 85.3744C298.477 85.7048 292.389 104.533 290.601 110.772L285.52 112.166L283.195 102.701Z" fill="black"/>
<g filter="url(#filter3_i_20_8315)">
<path d="M266.411 106.678C270.85 98.2392 281.425 94.7263 290.031 98.8312L302.618 104.835C311.224 108.94 314.602 119.109 310.163 127.547L293.202 159.788C288.762 168.226 278.187 171.739 269.581 167.634L256.994 161.63C248.388 157.525 245.01 147.357 249.45 138.918L266.411 106.678Z" fill="url(#paint9_linear_20_8315)"/>
</g>
<g filter="url(#filter4_i_20_8315)">
<path d="M290.362 104.621C296.201 93.0064 299.822 60.4166 282.056 70.6457C279.028 72.3889 277.71 73.3243 271.226 76.6315C261.567 73.9671 249.161 74.1336 244.165 74.5499L249.98 71.2883C268.254 62.4328 286.178 48.5083 302.847 58.0275C325.786 71.1271 311.972 120.011 298.92 139.464L290.362 104.621Z" fill="url(#paint10_linear_20_8315)"/>
</g>
<g filter="url(#filter5_i_20_8315)">
<path d="M302.847 58.0277C325.786 71.1273 311.972 120.012 298.92 139.464L290.362 104.621C294.597 96.1973 297.665 76.7393 292.253 70.5873C288.318 66.7041 284.588 58.4896 273.147 59.3494C275.617 58.3601 281.039 56.2775 282.965 55.8612C289.745 54.1707 296.39 54.3405 302.847 58.0277Z" fill="url(#paint11_linear_20_8315)"/>
</g>
<g filter="url(#filter6_i_20_8315)">
<path d="M270.546 110.753C274.985 102.315 285.56 98.8016 294.166 102.907L306.761 108.914C315.367 113.019 318.745 123.188 314.306 131.626L299.207 160.327C294.768 168.765 284.193 172.278 275.587 168.173L262.992 162.165C254.386 158.06 251.008 147.892 255.447 139.454L270.546 110.753Z" fill="url(#paint12_linear_20_8315)"/>
</g>
<g filter="url(#filter7_i_20_8315)">
<path d="M276.148 117.496C280.587 109.058 291.162 105.545 299.768 109.65L308.5 113.815C317.106 117.92 320.484 128.088 316.044 136.527L304.071 159.287C299.632 167.725 289.057 171.238 280.451 167.133L271.719 162.968C263.113 158.863 259.735 148.695 264.174 140.257L276.148 117.496Z" fill="url(#paint13_linear_20_8315)"/>
</g>
<path d="M188.021 156.119C187.976 150.822 192.233 146.492 197.53 146.447L210.872 146.333C216.169 146.289 220.5 150.546 220.545 155.843L220.565 158.245C220.61 163.542 216.352 167.873 211.055 167.918L197.713 168.031C192.417 168.076 188.086 163.818 188.041 158.521L188.021 156.119Z" fill="url(#paint14_linear_20_8315)"/>
<g filter="url(#filter8_i_20_8315)">
<path d="M188 155.983C187.955 150.687 192.213 146.356 197.509 146.311L205.423 146.244C210.72 146.199 215.051 150.457 215.096 155.754L215.116 158.213C215.161 163.51 210.904 167.84 205.607 167.885L197.693 167.952C192.396 167.997 188.066 163.74 188.021 158.443L188 155.983Z" fill="url(#paint15_linear_20_8315)"/>
</g>
<g filter="url(#filter9_i_20_8315)">
<path d="M258.067 146.618C240.362 154.375 223.326 155.2 217.021 154.643C215.522 157.248 216.682 158.688 217.449 159.083C229.939 161.294 250.975 154.812 259.931 151.295C260.86 149.148 259.076 147.282 258.067 146.618Z" fill="url(#paint16_linear_20_8315)"/>
</g>
<g filter="url(#filter10_f_20_8315)">
<path d="M207.824 164.843C188.994 176.601 194.933 195.62 211.763 203.855C227.117 211.381 256.531 212.425 275.8 201.775C274.817 198.609 272.645 192.175 271.821 191.768C270.998 191.361 228.813 173.648 207.824 164.843Z" fill="url(#paint17_radial_20_8315)"/>
</g>
<path d="M274.797 188.575C285.417 150.636 210.008 163.181 194.066 173.148C176.24 184.278 181.862 202.283 197.794 210.079C218.579 220.266 266.578 217.907 274.797 188.575Z" fill="#084C7E"/>
<path d="M274.797 188.575C285.417 150.636 210.008 163.181 194.066 173.148C176.24 184.278 181.862 202.283 197.794 210.079C218.579 220.266 266.578 217.907 274.797 188.575Z" fill="url(#paint18_radial_20_8315)"/>
<path d="M260.368 174.429C253.445 181.07 246.261 185.866 240.868 188.86C235.474 191.853 231.937 193.231 231.937 193.231C231.937 193.231 234.851 190.734 239.514 186.705C244.144 182.685 250.351 177.033 257.043 170.64C258.852 168.907 260.591 167.194 262.259 165.555C263.895 166.12 265.438 166.748 266.848 167.504C264.9 169.827 262.75 172.152 260.368 174.429Z" fill="#259DD8"/>
<path d="M247.352 167.881C238.363 173.154 229.599 176.336 223.221 178.235C216.843 180.135 212.809 180.874 212.809 180.874C212.809 180.874 216.494 178.94 222.402 175.804C228.32 172.704 236.378 168.443 245.008 163.343C245.23 163.208 245.453 163.073 245.675 162.938C248.488 163.014 251.235 163.255 253.828 163.612C251.81 165.107 249.629 166.536 247.352 167.881Z" fill="#259DD8"/>
<path fill-rule="evenodd" clip-rule="evenodd" d="M96.4121 0.974064L90.3349 -2.82422L90.3348 -2.8242L75.1417 0.214427V17.1554L52.3521 20.7248V83.7763L52.3529 83.7762L52.3521 83.7769L58.4293 88.3349L121.481 78.4593L121.481 78.4591L121.481 15.4078L121.481 15.4076L115.404 10.8496L115.404 10.8493L96.4121 13.8239V0.974064Z" fill="black" fill-opacity="0.07"/>
<path fill-rule="evenodd" clip-rule="evenodd" d="M159.401 -4.12925L163.377 -6.61426L163.378 -6.61377L173.317 -4.62589V6.45759L188.227 8.7929V50.0441L188.227 50.044L188.227 50.0444L184.251 53.0264L143 46.5654L143 46.5656V46.5654V5.31438V5.31417L146.976 2.33216L146.976 2.33187L159.401 4.27797V-4.12925Z" fill="black" fill-opacity="0.07"/>
<path d="M48.0773 83.1592L111.129 73.2836V10.2321L97.8348 12.3143L48.0773 20.1077V73.2836V83.1592Z" fill="url(#paint19_linear_20_8315)"/>
<path d="M48.0773 83.1592L42 78.6012L48.0773 73.2836V83.1592Z" fill="url(#paint20_linear_20_8315)"/>
<path d="M105.051 5.67421L111.129 10.2321L97.8348 12.3143L105.051 5.67421Z" fill="url(#paint21_linear_20_8315)"/>
<path d="M105.051 5.67376L111.129 10.2317L97.8347 12.3139L105.051 5.67376Z" fill="url(#paint22_linear_20_8315)"/>
<path d="M111.129 10.2317V73.2832L100.494 65.3068L97.8347 12.3139L111.129 10.2317Z" fill="url(#paint23_linear_20_8315)"/>
<path d="M70.8669 17.8281L86.06 14.7895V-4.20192L70.8669 -1.16329V17.8281Z" fill="url(#paint24_linear_20_8315)"/>
<path d="M86.06 -4.20192L70.8669 -1.16329L79.9828 -8.0002L86.06 -4.20192Z" fill="url(#paint25_linear_20_8315)"/>
<path d="M64.7896 14.0303L79.9828 10.9916V-7.99977L64.7896 -4.96114V14.0303Z" fill="url(#paint26_linear_20_8315)"/>
<path d="M42 78.6016L105.052 68.726V5.67453L42 15.5501V78.6016Z" fill="url(#paint27_linear_20_8315)"/>
<path d="M42 78.6016L105.052 68.726V5.67453L42 15.5501V78.6016Z" fill="url(#paint28_linear_20_8315)"/>
<path d="M70.5711 50.8216C70.5275 50.5033 70.5022 50.2006 70.495 49.9135C70.4879 49.6263 70.4799 49.3033 70.471 48.9445C70.4265 47.15 70.7255 45.5264 71.368 44.0736C72.0104 42.6208 73.1191 41.2507 74.6941 39.9631L77.0032 38.0389C77.9135 37.3069 78.5884 36.444 79.028 35.4499C79.5031 34.4512 79.7278 33.4315 79.702 32.3907C79.6825 31.6012 79.5214 30.8663 79.2189 30.186C78.951 29.4651 78.5431 28.8527 77.9949 28.3488C77.4824 27.8402 76.8128 27.4782 75.9862 27.263C75.1943 27.0072 74.2644 26.9496 73.1966 27.0902C72.0221 27.2448 71.0126 27.5758 70.1681 28.083C69.3593 28.5855 68.6959 29.195 68.1781 29.9112C67.6602 30.6275 67.2691 31.4171 67.0048 32.2801C66.7762 33.1383 66.6725 33.9981 66.6938 34.8594C66.7054 35.326 66.753 35.8058 66.8366 36.2988C66.9203 36.7919 67.0191 37.175 67.1329 37.448L61.9382 37.4838C61.706 36.7583 61.5779 35.911 61.5538 34.942C61.5236 33.7218 61.7238 32.4352 62.1545 31.0823C62.5843 29.6935 63.2663 28.3975 64.2006 27.1944C65.1349 25.9912 66.3233 24.9526 67.7657 24.0786C69.2437 23.1999 71.0148 22.6247 73.0792 22.3529C74.93 22.1092 76.5926 22.1964 78.067 22.6144C79.5415 23.0324 80.7894 23.6782 81.8109 24.5519C82.8324 25.4256 83.6088 26.4935 84.14 27.7558C84.7059 28.9775 85.0058 30.2702 85.0396 31.634C85.0929 33.7873 84.6227 35.7035 83.6287 37.3826C82.6339 39.0259 81.3664 40.4709 79.8261 41.7179L77.4116 43.71C76.6072 44.392 76.0208 45.2253 75.6524 46.21C75.3187 47.1541 75.1648 48.1465 75.1906 49.1873C75.1942 49.3308 75.1977 49.4744 75.2013 49.6179C75.2039 49.7256 75.2266 49.9206 75.2693 50.2031L70.5711 50.8216ZM69.5874 58.6743C69.5634 57.7053 69.881 56.8354 70.5404 56.0645C71.1989 55.2577 72.0086 54.791 72.9696 54.6645C73.9306 54.538 74.7581 54.7891 75.4522 55.4178C76.1809 56.006 76.5573 56.7846 76.5813 57.7536C76.6053 58.7226 76.2699 59.5949 75.5749 60.3705C74.9156 61.1414 74.1054 61.5901 73.1444 61.7166C72.1834 61.8431 71.3563 61.61 70.6632 61.0171C69.97 60.4242 69.6114 59.6433 69.5874 58.6743Z" fill="white"/>
<path d="M191.024 49.6406L149.773 43.1796V1.92841L158.47 3.29068L191.024 8.38944V43.1796V49.6406Z" fill="url(#paint29_linear_20_8315)"/>
<path d="M191.024 49.6406L195 46.6586L191.024 43.1796V49.6406Z" fill="url(#paint30_linear_20_8315)"/>
<path d="M153.749 -1.0536L149.773 1.92841L158.47 3.29068L153.749 -1.0536Z" fill="url(#paint31_linear_20_8315)"/>
<path d="M153.749 -1.05351L149.773 1.9285L158.47 3.29077L153.749 -1.05351Z" fill="url(#paint32_linear_20_8315)"/>
<path d="M149.773 1.9285V43.1797L156.731 37.9612L158.47 3.29077L149.773 1.9285Z" fill="url(#paint33_linear_20_8315)"/>
<path d="M176.114 6.89844L166.174 4.91043V-7.51463L176.114 -5.52662V6.89844Z" fill="url(#paint34_linear_20_8315)"/>
<path d="M166.174 -7.51463L176.114 -5.52662L170.15 -9.99964L166.174 -7.51463Z" fill="url(#paint35_linear_20_8315)"/>
<path d="M180.09 4.41309L170.15 2.42508V-9.99998L180.09 -8.01197V4.41309Z" fill="url(#paint36_linear_20_8315)"/>
<path d="M195 46.6582L153.749 40.1972V-1.05401L195 5.40702V46.6582Z" fill="url(#paint37_linear_20_8315)"/>
<path d="M195 46.6582L153.749 40.1972V-1.05401L195 5.40702V46.6582Z" fill="url(#paint38_linear_20_8315)"/>
<path d="M173.584 27.7116C173.566 27.5059 173.56 27.3126 173.565 27.1316C173.569 26.9507 173.574 26.7471 173.58 26.5209C173.609 25.3898 173.849 24.4142 174.299 23.594C174.749 22.7739 175.49 22.0712 176.522 21.4859L178.035 20.6049C178.631 20.2743 179.083 19.8284 179.391 19.2672C179.721 18.7082 179.895 18.1006 179.912 17.4446C179.924 16.9469 179.847 16.4636 179.678 15.9946C179.532 15.505 179.295 15.0637 178.967 14.6706C178.66 14.2797 178.251 13.9585 177.738 13.7072C177.248 13.4353 176.665 13.2683 175.989 13.206C175.245 13.1376 174.6 13.2028 174.053 13.4019C173.528 13.603 173.092 13.8916 172.743 14.2676C172.395 14.6437 172.124 15.0835 171.93 15.5872C171.759 16.093 171.666 16.6173 171.652 17.1602C171.645 17.4543 171.66 17.7617 171.696 18.0826C171.733 18.4034 171.783 18.6574 171.846 18.8446L168.578 18.1355C168.455 17.6481 168.402 17.0989 168.417 16.4882C168.437 15.7191 168.604 14.9408 168.918 14.1534C169.232 13.3434 169.702 12.6271 170.328 12.0045C170.954 11.3819 171.734 10.8983 172.669 10.5535C173.627 10.2109 174.759 10.0997 176.066 10.2201C177.237 10.328 178.28 10.6167 179.194 11.0864C180.108 11.556 180.872 12.1365 181.487 12.828C182.102 13.5195 182.556 14.2983 182.85 15.1643C183.167 16.0098 183.315 16.8623 183.293 17.7219C183.258 19.0792 182.901 20.2141 182.223 21.1266C181.545 22.0165 180.702 22.7438 179.693 23.3085L178.112 24.2172C177.584 24.5314 177.189 24.9712 176.926 25.5365C176.686 26.0813 176.558 26.6817 176.541 27.3377C176.538 27.4282 176.536 27.5186 176.534 27.6091C176.532 27.677 176.54 27.8024 176.558 27.9855L173.584 27.7116ZM172.715 32.4953C172.731 31.8845 172.958 31.384 173.398 30.9936C173.837 30.5806 174.361 30.4021 174.97 30.4581C175.578 30.5142 176.091 30.7881 176.507 31.2799C176.947 31.7512 177.159 32.2923 177.143 32.903C177.127 33.5138 176.889 34.0133 176.427 34.4016C175.988 34.792 175.464 34.9592 174.856 34.9032C174.247 34.8471 173.735 34.5845 173.317 34.1153C172.9 33.6461 172.7 33.1061 172.715 32.4953Z" fill="white"/>
<g opacity="0.3">
<path d="M250.72 48.1464C257.192 48.1464 262.439 42.9649 262.439 36.5732C262.439 30.1815 257.192 25 250.72 25C244.247 25 239 30.1815 239 36.5732C239 42.9649 244.247 48.1464 250.72 48.1464Z" fill="white"/>
<path d="M323.987 47.6087C323.995 43.6572 320.757 40.4478 316.756 40.4403C312.754 40.4328 309.504 43.6301 309.497 47.5816C309.489 51.533 312.727 54.7424 316.728 54.7499C320.73 54.7574 323.98 51.5602 323.987 47.6087Z" fill="white"/>
<path d="M210.911 109.649C214.728 109.649 217.822 106.593 217.822 102.824C217.822 99.0554 214.728 96 210.911 96C207.094 96 204 99.0554 204 102.824C204 106.593 207.094 109.649 210.911 109.649Z" fill="white"/>
<path d="M106.429 149.174C106.438 146.335 104.114 144.026 101.239 144.017C98.364 144.008 96.0258 146.302 96.0166 149.141C96.0074 151.981 98.3308 154.29 101.206 154.299C104.081 154.308 106.419 152.013 106.429 149.174Z" fill="white"/>
</g>
<rect opacity="0.6" width="360" height="240" fill="#131A2D"/>
</g>
<defs>
<filter id="filter0_f_20_8315" x="242.923" y="199.977" width="163.543" height="120.79" filterUnits="userSpaceOnUse" color-interpolation-filters="sRGB">
<feFlood flood-opacity="0" result="BackgroundImageFix"/>
<feBlend mode="normal" in="SourceGraphic" in2="BackgroundImageFix" result="shape"/>
<feGaussianBlur stdDeviation="12" result="effect1_foregroundBlur_20_8315"/>
</filter>
<filter id="filter1_d_20_8315" x="230.59" y="83.293" width="28.718" height="28.2676" filterUnits="userSpaceOnUse" color-interpolation-filters="sRGB">
<feFlood flood-opacity="0" result="BackgroundImageFix"/>
<feColorMatrix in="SourceAlpha" type="matrix" values="0 0 0 0 0 0 0 0 0 0 0 0 0 0 0 0 0 0 127 0" result="hardAlpha"/>
<feOffset dy="4"/>
<feGaussianBlur stdDeviation="2"/>
<feComposite in2="hardAlpha" operator="out"/>
<feColorMatrix type="matrix" values="0 0 0 0 0 0 0 0 0 0 0 0 0 0 0 0 0 0 0.25 0"/>
<feBlend mode="normal" in2="BackgroundImageFix" result="effect1_dropShadow_20_8315"/>
<feBlend mode="normal" in="SourceGraphic" in2="effect1_dropShadow_20_8315" result="shape"/>
</filter>
<filter id="filter2_i_20_8315" x="195.777" y="113.174" width="31.8845" height="23.7188" filterUnits="userSpaceOnUse" color-interpolation-filters="sRGB">
<feFlood flood-opacity="0" result="BackgroundImageFix"/>
<feBlend mode="normal" in="SourceGraphic" in2="BackgroundImageFix" result="shape"/>
<feColorMatrix in="SourceAlpha" type="matrix" values="0 0 0 0 0 0 0 0 0 0 0 0 0 0 0 0 0 0 127 0" result="hardAlpha"/>
<feOffset dx="12" dy="12"/>
<feComposite in2="hardAlpha" operator="arithmetic" k2="-1" k3="1"/>
<feColorMatrix type="matrix" values="0 0 0 0 0 0 0 0 0 0 0 0 0 0 0 0 0 0 0.25 0"/>
<feBlend mode="normal" in2="shape" result="effect1_innerShadow_20_8315"/>
</filter>
<filter id="filter3_i_20_8315" x="247.495" y="95.1152" width="67.6224" height="74.2344" filterUnits="userSpaceOnUse" color-interpolation-filters="sRGB">
<feFlood flood-opacity="0" result="BackgroundImageFix"/>
<feBlend mode="normal" in="SourceGraphic" in2="BackgroundImageFix" result="shape"/>
<feColorMatrix in="SourceAlpha" type="matrix" values="0 0 0 0 0 0 0 0 0 0 0 0 0 0 0 0 0 0 127 0" result="hardAlpha"/>
<feOffset dx="3" dy="-2"/>
<feGaussianBlur stdDeviation="4"/>
<feComposite in2="hardAlpha" operator="arithmetic" k2="-1" k3="1"/>
<feColorMatrix type="matrix" values="0 0 0 0 0 0 0 0 0 0 0 0 0 0 0 0 0 0 0.25 0"/>
<feBlend mode="normal" in2="shape" result="effect1_innerShadow_20_8315"/>
</filter>
<filter id="filter4_i_20_8315" x="244.165" y="50.8301" width="70.9757" height="88.6338" filterUnits="userSpaceOnUse" color-interpolation-filters="sRGB">
<feFlood flood-opacity="0" result="BackgroundImageFix"/>
<feBlend mode="normal" in="SourceGraphic" in2="BackgroundImageFix" result="shape"/>
<feColorMatrix in="SourceAlpha" type="matrix" values="0 0 0 0 0 0 0 0 0 0 0 0 0 0 0 0 0 0 127 0" result="hardAlpha"/>
<feOffset dy="-4"/>
<feGaussianBlur stdDeviation="4"/>
<feComposite in2="hardAlpha" operator="arithmetic" k2="-1" k3="1"/>
<feColorMatrix type="matrix" values="0 0 0 0 0 0 0 0 0 0 0 0 0 0 0 0 0 0 0.25 0"/>
<feBlend mode="normal" in2="shape" result="effect1_innerShadow_20_8315"/>
</filter>
<filter id="filter5_i_20_8315" x="273.147" y="51.8301" width="43.9934" height="87.6338" filterUnits="userSpaceOnUse" color-interpolation-filters="sRGB">
<feFlood flood-opacity="0" result="BackgroundImageFix"/>
<feBlend mode="normal" in="SourceGraphic" in2="BackgroundImageFix" result="shape"/>
<feColorMatrix in="SourceAlpha" type="matrix" values="0 0 0 0 0 0 0 0 0 0 0 0 0 0 0 0 0 0 127 0" result="hardAlpha"/>
<feOffset dx="2" dy="-3"/>
<feGaussianBlur stdDeviation="3"/>
<feComposite in2="hardAlpha" operator="arithmetic" k2="-1" k3="1"/>
<feColorMatrix type="matrix" values="0 0 0 0 0 0 0 0 0 0 0 0 0 0 0 0 0 0 0.25 0"/>
<feBlend mode="normal" in2="shape" result="effect1_innerShadow_20_8315"/>
</filter>
<filter id="filter6_i_20_8315" x="253.493" y="101.19" width="64.768" height="76.6982" filterUnits="userSpaceOnUse" color-interpolation-filters="sRGB">
<feFlood flood-opacity="0" result="BackgroundImageFix"/>
<feBlend mode="normal" in="SourceGraphic" in2="BackgroundImageFix" result="shape"/>
<feColorMatrix in="SourceAlpha" type="matrix" values="0 0 0 0 0 0 0 0 0 0 0 0 0 0 0 0 0 0 127 0" result="hardAlpha"/>
<feOffset dx="2" dy="8"/>
<feGaussianBlur stdDeviation="4"/>
<feComposite in2="hardAlpha" operator="arithmetic" k2="-1" k3="1"/>
<feColorMatrix type="matrix" values="0 0 0 0 0 0 0 0 0 0 0 0 0 0 0 0 0 0 0.25 0"/>
<feBlend mode="normal" in2="shape" result="effect1_innerShadow_20_8315"/>
</filter>
<filter id="filter7_i_20_8315" x="262.22" y="99.9346" width="57.7792" height="68.9141" filterUnits="userSpaceOnUse" color-interpolation-filters="sRGB">
<feFlood flood-opacity="0" result="BackgroundImageFix"/>
<feBlend mode="normal" in="SourceGraphic" in2="BackgroundImageFix" result="shape"/>
<feColorMatrix in="SourceAlpha" type="matrix" values="0 0 0 0 0 0 0 0 0 0 0 0 0 0 0 0 0 0 127 0" result="hardAlpha"/>
<feOffset dx="2" dy="-8"/>
<feGaussianBlur stdDeviation="4"/>
<feComposite in2="hardAlpha" operator="arithmetic" k2="-1" k3="1"/>
<feColorMatrix type="matrix" values="0 0 0 0 0 0 0 0 0 0 0 0 0 0 0 0 0 0 0.25 0"/>
<feBlend mode="normal" in2="shape" result="effect1_innerShadow_20_8315"/>
</filter>
<filter id="filter8_i_20_8315" x="180" y="138.244" width="35.1171" height="29.709" filterUnits="userSpaceOnUse" color-interpolation-filters="sRGB">
<feFlood flood-opacity="0" result="BackgroundImageFix"/>
<feBlend mode="normal" in="SourceGraphic" in2="BackgroundImageFix" result="shape"/>
<feColorMatrix in="SourceAlpha" type="matrix" values="0 0 0 0 0 0 0 0 0 0 0 0 0 0 0 0 0 0 127 0" result="hardAlpha"/>
<feOffset dx="-8" dy="-8"/>
<feGaussianBlur stdDeviation="4"/>
<feComposite in2="hardAlpha" operator="arithmetic" k2="-1" k3="1"/>
<feColorMatrix type="matrix" values="0 0 0 0 0 0 0 0 0 0 0 0 0 0 0 0 0 0 0.25 0"/>
<feBlend mode="normal" in2="shape" result="effect1_innerShadow_20_8315"/>
</filter>
<filter id="filter9_i_20_8315" x="208.293" y="138.618" width="51.8982" height="20.9141" filterUnits="userSpaceOnUse" color-interpolation-filters="sRGB">
<feFlood flood-opacity="0" result="BackgroundImageFix"/>
<feBlend mode="normal" in="SourceGraphic" in2="BackgroundImageFix" result="shape"/>
<feColorMatrix in="SourceAlpha" type="matrix" values="0 0 0 0 0 0 0 0 0 0 0 0 0 0 0 0 0 0 127 0" result="hardAlpha"/>
<feOffset dx="-8" dy="-8"/>
<feGaussianBlur stdDeviation="4"/>
<feComposite in2="hardAlpha" operator="arithmetic" k2="-1" k3="1"/>
<feColorMatrix type="matrix" values="0 0 0 0 0 0 0 0 0 0 0 0 0 0 0 0 0 0 0.25 0"/>
<feBlend mode="normal" in2="shape" result="effect1_innerShadow_20_8315"/>
</filter>
<filter id="filter10_f_20_8315" x="188.169" y="156.843" width="95.6317" height="60.7939" filterUnits="userSpaceOnUse" color-interpolation-filters="sRGB">
<feFlood flood-opacity="0" result="BackgroundImageFix"/>
<feBlend mode="normal" in="SourceGraphic" in2="BackgroundImageFix" result="shape"/>
<feGaussianBlur stdDeviation="4" result="effect1_foregroundBlur_20_8315"/>
</filter>
<linearGradient id="paint0_linear_20_8315" x1="434.978" y1="109.515" x2="-41.993" y2="109.515" gradientUnits="userSpaceOnUse">
<stop stop-color="white" stop-opacity="0.94"/>
<stop offset="1" stop-color="white" stop-opacity="0"/>
</linearGradient>
<linearGradient id="paint1_linear_20_8315" x1="261.062" y1="169.794" x2="-64.6362" y2="308.068" gradientUnits="userSpaceOnUse">
<stop stop-color="white" stop-opacity="0.94"/>
<stop offset="1" stop-color="white" stop-opacity="0"/>
</linearGradient>
<radialGradient id="paint2_radial_20_8315" cx="0" cy="0" r="1" gradientUnits="userSpaceOnUse" gradientTransform="translate(311.898 192.849) rotate(-130.409) scale(117.074)">
<stop stop-color="#1C75BC" stop-opacity="0.97"/>
<stop offset="0.706" stop-color="#2484C6" stop-opacity="0"/>
</radialGradient>
<radialGradient id="paint3_radial_20_8315" cx="0" cy="0" r="1" gradientUnits="userSpaceOnUse" gradientTransform="translate(407.536 115.921) rotate(144.683) scale(74.7923 128.494)">
<stop stop-color="white" stop-opacity="0.7"/>
<stop offset="1" stop-color="#0B4F82" stop-opacity="0"/>
</radialGradient>
<radialGradient id="paint4_radial_20_8315" cx="0" cy="0" r="1" gradientUnits="userSpaceOnUse" gradientTransform="translate(175.012 69.0751) rotate(15) scale(60.8686 60.0897)">
<stop stop-color="#1C75BC" stop-opacity="0.97"/>
<stop offset="1" stop-color="#2484C6" stop-opacity="0"/>
</radialGradient>
<linearGradient id="paint5_linear_20_8315" x1="329.619" y1="250.812" x2="364.074" y2="278.736" gradientUnits="userSpaceOnUse">
<stop/>
<stop offset="1" stop-opacity="0"/>
</linearGradient>
<linearGradient id="paint6_linear_20_8315" x1="215.67" y1="459.793" x2="304.428" y2="92.9283" gradientUnits="userSpaceOnUse">
<stop stop-color="#165F9A" stop-opacity="0.97"/>
<stop offset="0.7464" stop-color="#2079B9" stop-opacity="0.2459"/>
<stop offset="1" stop-color="#2484C6" stop-opacity="0"/>
</linearGradient>
<linearGradient id="paint7_linear_20_8315" x1="210.04" y1="289.095" x2="307.378" y2="101.796" gradientUnits="userSpaceOnUse">
<stop stop-color="#165F9A" stop-opacity="0.97"/>
<stop offset="0.7464" stop-color="#2079B9" stop-opacity="0.2459"/>
<stop offset="1" stop-color="#2484C6" stop-opacity="0"/>
</linearGradient>
<radialGradient id="paint8_radial_20_8315" cx="0" cy="0" r="1" gradientUnits="userSpaceOnUse" gradientTransform="translate(346.959 76.9608) rotate(112.097) scale(121.524 160.262)">
<stop stop-color="white" stop-opacity="0.97"/>
<stop offset="1" stop-color="#49AADA" stop-opacity="0"/>
</radialGradient>
<linearGradient id="paint9_linear_20_8315" x1="292.649" y1="104.573" x2="269.361" y2="161.974" gradientUnits="userSpaceOnUse">
<stop stop-color="#647A9B"/>
<stop offset="1" stop-color="#23354F"/>
</linearGradient>
<linearGradient id="paint10_linear_20_8315" x1="306.964" y1="54.6995" x2="249.405" y2="87.0194" gradientUnits="userSpaceOnUse">
<stop stop-color="#6C7E99"/>
<stop offset="1" stop-color="#354459"/>
</linearGradient>
<linearGradient id="paint11_linear_20_8315" x1="301.247" y1="61.5213" x2="294.612" y2="113.006" gradientUnits="userSpaceOnUse">
<stop stop-color="#6C7E99"/>
<stop offset="1" stop-color="#354459"/>
</linearGradient>
<linearGradient id="paint12_linear_20_8315" x1="296.894" y1="108.447" x2="274.73" y2="162.557" gradientUnits="userSpaceOnUse">
<stop stop-color="#52637C"/>
<stop offset="1" stop-color="#182537"/>
</linearGradient>
<linearGradient id="paint13_linear_20_8315" x1="300.901" y1="114.005" x2="280.921" y2="162.679" gradientUnits="userSpaceOnUse">
<stop stop-color="#6C7E99"/>
<stop offset="1" stop-color="#354459"/>
</linearGradient>
<linearGradient id="paint14_linear_20_8315" x1="202.884" y1="147.636" x2="206.944" y2="164.45" gradientUnits="userSpaceOnUse">
<stop stop-color="#5E7494"/>
<stop offset="1" stop-color="#16253A"/>
</linearGradient>
<linearGradient id="paint15_linear_20_8315" x1="200.371" y1="147.525" x2="201.152" y2="166.484" gradientUnits="userSpaceOnUse">
<stop stop-color="#738BAC"/>
<stop offset="1" stop-color="#2B3E58"/>
</linearGradient>
<linearGradient id="paint16_linear_20_8315" x1="220.251" y1="153.635" x2="252.207" y2="168.539" gradientUnits="userSpaceOnUse">
<stop stop-color="#3A4D68"/>
<stop offset="1" stop-color="#212F42"/>
</linearGradient>
<radialGradient id="paint17_radial_20_8315" cx="0" cy="0" r="1" gradientUnits="userSpaceOnUse" gradientTransform="translate(242.943 164.679) rotate(99.6991) scale(43.8755 57.1158)">
<stop offset="0.414616"/>
<stop offset="1" stop-opacity="0"/>
</radialGradient>
<radialGradient id="paint18_radial_20_8315" cx="0" cy="0" r="1" gradientUnits="userSpaceOnUse" gradientTransform="translate(174.957 188.361) rotate(122.155) scale(94.1345 88.5229)">
<stop stop-color="#1C75BC" stop-opacity="0.97"/>
<stop offset="1" stop-color="#2484C6" stop-opacity="0"/>
</radialGradient>
<linearGradient id="paint19_linear_20_8315" x1="119.065" y1="61.3017" x2="44.3689" y2="81.5772" gradientUnits="userSpaceOnUse">
<stop offset="0.00119874" stop-color="#ECB0B0"/>
<stop offset="1" stop-color="#985559"/>
</linearGradient>
<linearGradient id="paint20_linear_20_8315" x1="119.065" y1="61.3017" x2="44.3689" y2="81.5772" gradientUnits="userSpaceOnUse">
<stop offset="0.00119874" stop-color="#ECB0B0"/>
<stop offset="1" stop-color="#985559"/>
</linearGradient>
<linearGradient id="paint21_linear_20_8315" x1="119.065" y1="61.3017" x2="44.3689" y2="81.5772" gradientUnits="userSpaceOnUse">
<stop offset="0.00119874" stop-color="#ECB0B0"/>
<stop offset="1" stop-color="#985559"/>
</linearGradient>
<linearGradient id="paint22_linear_20_8315" x1="110.151" y1="64.4644" x2="139.417" y2="43.1438" gradientUnits="userSpaceOnUse">
<stop offset="0.00119874" stop-color="#CD8484"/>
<stop offset="1" stop-color="#985559"/>
</linearGradient>
<linearGradient id="paint23_linear_20_8315" x1="110.151" y1="64.4644" x2="139.417" y2="43.1438" gradientUnits="userSpaceOnUse">
<stop offset="0.00119874" stop-color="#CD8484"/>
<stop offset="1" stop-color="#985559"/>
</linearGradient>
<linearGradient id="paint24_linear_20_8315" x1="93.1852" y1="-10.5882" x2="79.4143" y2="8.55434" gradientUnits="userSpaceOnUse">
<stop offset="0.00119874" stop-color="#CD8484"/>
<stop offset="1" stop-color="#985559"/>
</linearGradient>
<linearGradient id="paint25_linear_20_8315" x1="93.1852" y1="-10.5882" x2="79.4143" y2="8.55434" gradientUnits="userSpaceOnUse">
<stop offset="0.00119874" stop-color="#CD8484"/>
<stop offset="1" stop-color="#985559"/>
</linearGradient>
<linearGradient id="paint26_linear_20_8315" x1="71.6266" y1="11.3715" x2="113.603" y2="-66.8037" gradientUnits="userSpaceOnUse">
<stop offset="0.00119874" stop-color="#DF5B62"/>
<stop offset="1" stop-color="#ECB0B0"/>
</linearGradient>
<linearGradient id="paint27_linear_20_8315" x1="50.3562" y1="66.4471" x2="113.177" y2="-4.10493" gradientUnits="userSpaceOnUse">
<stop offset="0.00119874" stop-color="#ECB0B0"/>
<stop offset="1" stop-color="#D72832"/>
</linearGradient>
<linearGradient id="paint28_linear_20_8315" x1="50.3562" y1="66.4471" x2="118.992" y2="-9.33538" gradientUnits="userSpaceOnUse">
<stop offset="0.00119874" stop-color="#ECB0B0"/>
<stop offset="1" stop-color="#D72832"/>
</linearGradient>
<linearGradient id="paint29_linear_20_8315" x1="189.544" y1="41.5509" x2="148.327" y2="22.9363" gradientUnits="userSpaceOnUse">
<stop offset="0.00119874" stop-color="#D7BD95"/>
<stop offset="1" stop-color="#A56625"/>
</linearGradient>
<linearGradient id="paint30_linear_20_8315" x1="189.544" y1="41.5509" x2="148.327" y2="22.9363" gradientUnits="userSpaceOnUse">
<stop offset="0.00119874" stop-color="#D7BD95"/>
<stop offset="1" stop-color="#A56625"/>
</linearGradient>
<linearGradient id="paint31_linear_20_8315" x1="189.544" y1="41.5509" x2="148.327" y2="22.9363" gradientUnits="userSpaceOnUse">
<stop offset="0.00119874" stop-color="#D7BD95"/>
<stop offset="1" stop-color="#A56625"/>
</linearGradient>
<linearGradient id="paint32_linear_20_8315" x1="157.421" y1="36.121" x2="151.541" y2="-2.28404" gradientUnits="userSpaceOnUse">
<stop offset="0.00119874" stop-color="#D3A16A"/>
<stop offset="1" stop-color="#A56625"/>
</linearGradient>
<linearGradient id="paint33_linear_20_8315" x1="157.421" y1="36.121" x2="151.541" y2="-2.28404" gradientUnits="userSpaceOnUse">
<stop offset="0.00119874" stop-color="#D3A16A"/>
<stop offset="1" stop-color="#A56625"/>
</linearGradient>
<linearGradient id="paint34_linear_20_8315" x1="174.915" y1="4.20186" x2="164.573" y2="-1.43266" gradientUnits="userSpaceOnUse">
<stop offset="0.00119874" stop-color="#D7BD95"/>
<stop offset="1" stop-color="#A56625"/>
</linearGradient>
<linearGradient id="paint35_linear_20_8315" x1="174.915" y1="4.20186" x2="164.573" y2="-1.43266" gradientUnits="userSpaceOnUse">
<stop offset="0.00119874" stop-color="#D7BD95"/>
<stop offset="1" stop-color="#A56625"/>
</linearGradient>
<linearGradient id="paint36_linear_20_8315" x1="175.617" y1="2.67358" x2="148.154" y2="-48.4722" gradientUnits="userSpaceOnUse">
<stop offset="0.00119874" stop-color="#E6A761"/>
<stop offset="1" stop-color="#FCDFB3"/>
</linearGradient>
<linearGradient id="paint37_linear_20_8315" x1="189.533" y1="38.7062" x2="148.433" y2="-7.45218" gradientUnits="userSpaceOnUse">
<stop offset="0.00119874" stop-color="#ECB0B0"/>
<stop offset="1" stop-color="#D72832"/>
</linearGradient>
<linearGradient id="paint38_linear_20_8315" x1="189.533" y1="38.7062" x2="148.433" y2="-7.45218" gradientUnits="userSpaceOnUse">
<stop offset="0.00119874" stop-color="#FCDFB3"/>
<stop offset="1" stop-color="#D78128"/>
</linearGradient>
<clipPath id="clip0_20_8315">
<rect width="360" height="210" fill="white"/>
</clipPath>
</defs>
</svg>
