<svg width="1366" height="280" viewBox="0 0 1366 280" fill="none" xmlns="http://www.w3.org/2000/svg">
<g clip-path="url(#clip0_10_3529)">
<rect width="1366" height="280" fill="black"/>
<path opacity="0.25" d="M759 237.593L703.948 163.832C703.948 163.832 299.176 34.3596 245.933 -40.8599H317.051C317.051 -40.8599 278.613 -67.6083 222.904 -111C207.057 -109.973 191.211 -108.839 175.364 -107.704C58.4065 -99.1119 -36.3439 -10.8153 -51.9163 103.743C-61.6216 174.964 -64.3084 246.563 -60.0315 318C30.8806 297.898 131.498 285.037 220.381 295.467L152.389 211.871C152.389 211.871 487.031 169.776 759 237.593Z" fill="url(#paint0_linear_10_3529)"/>
<path opacity="0.25" d="M135.536 367.621C248.797 338.839 394.481 345.494 394.481 345.494C459.436 366.702 540 300.372 574.45 197.416C608.899 94.4603 584.199 -6.2235 519.243 -27.4315C519.243 -27.4315 439.227 -71.9574 394.262 -120C321.146 -117.241 248.085 -113.183 175.079 -107.827C58.2577 -99.2248 -36.3821 -10.8222 -51.9363 103.874C-65.3546 202.773 -65.3546 302.483 -51.9363 401.381C-47.6096 433.355 -37.0941 463.274 -21.7042 490C112.369 444.879 204.27 434.059 204.27 434.059L135.536 367.621Z" fill="url(#paint1_linear_10_3529)"/>
<path opacity="0.25" d="M654 239.593L709.052 165.832C709.052 165.832 1113.82 36.3596 1167.07 -38.8599H1095.95C1095.95 -38.8599 1134.39 -65.6083 1190.1 -109C1205.94 -107.973 1221.79 -106.839 1237.64 -105.704C1354.59 -97.1119 1449.34 -8.81534 1464.92 105.743C1474.62 176.964 1477.31 248.563 1473.03 320C1382.12 299.898 1281.5 287.037 1192.62 297.467L1260.61 213.871C1260.61 213.871 925.969 171.776 654 239.593Z" fill="url(#paint2_linear_10_3529)"/>
<path opacity="0.25" d="M1277.46 369.621C1164.2 340.839 1018.52 347.494 1018.52 347.494C953.564 368.702 873 302.372 838.55 199.416C804.101 96.4603 828.801 -4.2235 893.757 -25.4315C893.757 -25.4315 973.773 -69.9574 1018.74 -118C1091.85 -115.241 1164.92 -111.183 1237.92 -105.827C1354.74 -97.2248 1449.38 -8.82217 1464.94 105.874C1478.35 204.773 1478.35 304.483 1464.94 403.381C1460.61 435.355 1450.09 465.274 1434.7 492C1300.63 446.879 1208.73 436.059 1208.73 436.059L1277.46 369.621Z" fill="url(#paint3_linear_10_3529)"/>
<g opacity="0.2">
<path d="M158.72 54.1464C165.192 54.1464 170.439 48.9649 170.439 42.5732C170.439 36.1815 165.192 31 158.72 31C152.247 31 147 36.1815 147 42.5732C147 48.9649 152.247 54.1464 158.72 54.1464Z" fill="white"/>
<path d="M264.462 107.617C264.474 101.225 259.237 96.0341 252.764 96.022C246.292 96.0099 241.035 101.182 241.022 107.573C241.01 113.965 246.247 119.156 252.72 119.168C259.192 119.181 264.449 114.009 264.462 107.617Z" fill="white"/>
<path d="M296.695 238.978C303.167 238.966 308.404 233.774 308.392 227.382C308.379 220.991 303.122 215.819 296.65 215.831C290.177 215.844 284.94 221.035 284.953 227.427C284.965 233.818 290.222 238.99 296.695 238.978Z" fill="white"/>
<path d="M382.65 189.183C385.218 189.183 387.299 187.127 387.299 184.592C387.299 182.056 385.218 180 382.65 180C380.082 180 378 182.056 378 184.592C378 187.127 380.082 189.183 382.65 189.183Z" fill="white"/>
<path d="M34.9108 171.649C38.7276 171.649 41.8216 168.593 41.8216 164.824C41.8216 161.055 38.7276 158 34.9108 158C31.0941 158 28 161.055 28 164.824C28 168.593 31.0941 171.649 34.9108 171.649Z" fill="white"/>
<path d="M121.844 111.868C121.856 108.099 118.772 105.034 114.955 105.022C111.138 105.01 108.034 108.055 108.022 111.824C108.01 115.594 111.094 118.659 114.911 118.671C118.727 118.683 121.831 115.637 121.844 111.868Z" fill="white"/>
</g>
<g opacity="0.2">
<path d="M981.72 61.1464C975.247 61.1464 970 55.9649 970 49.5732C970 43.1815 975.247 38 981.72 38C988.192 38 993.439 43.1815 993.439 49.5732C993.439 55.9649 988.192 61.1464 981.72 61.1464Z" fill="white"/>
<path d="M1212.02 105.617C1212.01 99.2255 1217.25 94.0341 1223.72 94.022C1230.19 94.0099 1235.45 99.1816 1235.46 105.573C1235.47 111.965 1230.24 117.156 1223.76 117.168C1217.29 117.181 1212.03 112.009 1212.02 105.617Z" fill="white"/>
<path d="M1304.03 37.9315C1304.02 28.0661 1312.1 20.0532 1322.09 20.0343C1332.08 20.0154 1340.19 27.9976 1340.21 37.8631C1340.23 47.7285 1332.15 55.7414 1322.16 55.7603C1312.17 55.7792 1304.05 47.797 1304.03 37.9315Z" fill="white"/>
<path d="M1133.38 164.162C1126.91 164.162 1121.66 158.981 1121.66 152.589C1121.66 146.197 1126.91 141.016 1133.38 141.016C1139.85 141.016 1145.1 146.197 1145.1 152.589C1145.1 158.981 1139.85 164.162 1133.38 164.162Z" fill="white"/>
<path d="M1072.72 218.978C1066.25 218.966 1061.01 213.774 1061.02 207.382C1061.03 200.991 1066.29 195.819 1072.76 195.831C1079.24 195.844 1084.47 201.035 1084.46 207.427C1084.45 213.818 1079.19 218.99 1072.72 218.978Z" fill="white"/>
<path d="M1107.55 162.778C1104.98 162.778 1102.9 160.722 1102.9 158.186C1102.9 155.65 1104.98 153.595 1107.55 153.595C1110.12 153.595 1112.2 155.65 1112.2 158.186C1112.2 160.722 1110.12 162.778 1107.55 162.778Z" fill="white"/>
<path d="M1148.91 47.6488C1145.09 47.6488 1142 44.5934 1142 40.8244C1142 37.0554 1145.09 34 1148.91 34C1152.73 34 1155.82 37.0554 1155.82 40.8244C1155.82 44.5934 1152.73 47.6488 1148.91 47.6488Z" fill="white"/>
<path d="M861.911 29.6488C858.094 29.6488 855 26.5934 855 22.8244C855 19.0554 858.094 16 861.911 16C865.727 16 868.822 19.0554 868.822 22.8244C868.822 26.5934 865.727 29.6488 861.911 29.6488Z" fill="white"/>
<path d="M1282.02 200.868C1282.01 197.099 1285.09 194.034 1288.91 194.022C1292.73 194.01 1295.83 197.055 1295.84 200.824C1295.86 204.594 1292.77 207.659 1288.95 207.671C1285.14 207.683 1282.03 204.637 1282.02 200.868Z" fill="white"/>
<path d="M1066.77 90.9968C1066.75 83.2329 1073.13 76.9271 1081.01 76.9123C1088.89 76.8976 1095.29 83.1795 1095.3 90.9433C1095.32 98.7071 1088.94 105.013 1081.06 105.028C1073.18 105.042 1066.78 98.7606 1066.77 90.9968Z" fill="white"/>
</g>
<path fill-rule="evenodd" clip-rule="evenodd" d="M1159.42 111.386C1161.48 91.0247 1157.88 72.2036 1143.43 63.9506C1134.75 58.9948 1125.82 58.7666 1116.71 61.0388C1116.4 61.1051 1116.03 61.203 1115.6 61.3262C1111.93 62.3205 1108.22 63.7052 1104.5 65.3352C1104.14 65.4759 1103.81 65.6074 1103.51 65.7271L1103.63 65.7183C1097.85 68.3004 1092.01 71.4438 1086.14 74.6091C1081.57 77.0684 1076.98 79.541 1072.37 81.7738L1064.72 86.0648C1050.22 87.497 1036.31 92.3162 1023.94 101.781C1023.4 102.196 1022.86 102.619 1022.33 103.052C1022.24 103.123 1022.15 103.195 1022.06 103.266C1021.92 103.378 1021.79 103.491 1021.65 103.604C1010.72 112.65 1002.64 124.817 998.092 138.155C997.7 137.183 997.342 136.188 997.027 135.166C996.109 132.19 995.391 129.15 994.674 126.112L994.674 126.112C993.121 119.536 991.57 112.971 987.996 107.09C984.904 101.989 981.209 97.0621 976.082 93.8815C970.954 90.701 964.166 89.505 958.611 92.1021C953.842 94.3402 950.661 98.9747 948.416 103.653C932.806 136.191 957.12 178.048 991.168 188.444C989.821 190.501 989.046 192.965 989.069 195.608L989.097 198.913C989.106 200.015 989.253 201.084 989.522 202.103C990.473 205.833 993.048 208.908 996.444 210.538L996.449 211.042C996.47 213.584 997.438 215.896 999.014 217.646C998.367 217.992 997.768 218.336 997.221 218.677C986.865 225.144 982.397 233.337 982.392 241.402C975.548 255.636 984.271 271.759 1001.01 279.948C1021.64 290.064 1061.18 291.467 1087.08 277.153C1086.15 274.159 1084.43 268.991 1083.1 265.999C1085.78 264.56 1088.31 262.946 1090.65 261.15L1097.99 282.909L1089.09 336.983C1089.21 337.087 1089.33 337.191 1089.45 337.294C1089.58 337.406 1089.71 337.518 1089.84 337.629C1093.55 340.841 1097.24 343.811 1100.9 346.549C1098.92 347.424 1096.99 348.273 1095.14 349.09C1162.3 407.683 1221.61 387.336 1247.32 337.589C1248.71 328.043 1250.43 312.703 1250.44 301.41C1262.07 257.16 1251.47 199.84 1206.83 152.122C1205.18 150.366 1203.6 148.683 1202.05 147.065C1191.21 135.736 1182.31 127.555 1170.02 119.377C1166.59 117.095 1163.01 114.834 1159.28 112.627C1159.33 112.212 1159.37 111.799 1159.42 111.386ZM1133.03 98.9171C1133.35 91.3096 1132.33 84.4025 1129.19 80.8313C1128.99 80.6338 1128.79 80.4279 1128.59 80.2147C1125.81 77.6418 1121.59 77.3965 1115.48 80.9102C1114.55 81.4465 1113.74 81.926 1112.94 82.3999L1112.94 82.4C1110.3 83.9625 1107.76 85.4638 1101.34 88.7427C1108.17 90.2654 1114.96 92.2859 1121.62 94.6815L1121.63 94.5507C1123.35 95.2865 1126.52 96.4746 1129.56 97.6144C1130.77 98.0667 1131.96 98.5113 1133.03 98.9171Z" fill="black" fill-opacity="0.1"/>
<path d="M1051.11 104.207C1049.94 102.094 1048.34 100.282 1046.44 98.7727C1043.59 96.5299 1040.09 95.236 1036.46 94.9772C1032.83 94.7184 1029.16 95.581 1026 97.3925C1022.81 99.2041 1020.21 101.921 1018.57 105.199C1016.93 108.477 1016.24 112.143 1016.67 115.81C1017.1 119.433 1018.57 122.84 1020.95 125.6C1023.32 128.361 1026.48 130.302 1029.98 131.25C1033.48 132.199 1037.24 132.07 1040.7 130.905C1044.15 129.741 1047.22 127.541 1049.51 124.651C1051.02 122.71 1052.1 120.554 1052.8 118.182C1053.44 115.853 1053.66 113.394 1053.36 110.979C1053.05 108.607 1052.32 106.321 1051.11 104.207Z" fill="#363B3E"/>
<path d="M1260.92 139.878C1280.04 149.514 1298.09 161.726 1309.16 180.064C1317.97 194.653 1327.48 224.634 1310.87 238.353C1295.26 251.243 1276.94 235.845 1262.08 230.599C1250.21 226.408 1237.73 223.901 1225.09 223.155C1212.64 222.421 1199.05 226.737 1188.77 218.006C1170.12 202.164 1170.77 163.343 1178.84 141.793C1189.03 114.601 1215.92 119.968 1236.61 128.801C1244.61 132.215 1252.86 135.818 1260.92 139.878Z" fill="#084C7E"/>
<path d="M1260.92 139.878C1280.04 149.514 1298.09 161.726 1309.16 180.064C1317.97 194.653 1327.48 224.634 1310.87 238.353C1295.26 251.243 1276.94 235.845 1262.08 230.599C1250.21 226.408 1237.73 223.901 1225.09 223.155C1212.64 222.421 1199.05 226.737 1188.77 218.006C1170.12 202.164 1170.77 163.343 1178.84 141.793C1189.03 114.601 1215.92 119.968 1236.61 128.801C1244.61 132.215 1252.86 135.818 1260.92 139.878Z" fill="url(#paint4_radial_10_3529)"/>
<path d="M1260.92 139.878C1280.04 149.514 1298.09 161.726 1309.16 180.064C1317.97 194.653 1327.48 224.634 1310.87 238.353C1295.26 251.243 1276.94 235.845 1262.08 230.599C1250.21 226.408 1237.73 223.901 1225.09 223.155C1212.64 222.421 1199.05 226.737 1188.77 218.006C1170.12 202.164 1170.77 163.343 1178.84 141.793C1189.03 114.601 1215.92 119.968 1236.61 128.801C1244.61 132.215 1252.86 135.818 1260.92 139.878Z" fill="url(#paint5_radial_10_3529)"/>
<path d="M1202.06 163.405C1202.79 163.49 1203.53 163.576 1204.29 163.657C1205.14 163.746 1206 163.885 1206.89 164.008C1207.77 164.139 1208.67 164.259 1209.58 164.408C1210.49 164.569 1211.41 164.732 1212.35 164.899C1212.82 164.985 1213.3 165.064 1213.78 165.158C1214.25 165.255 1214.73 165.355 1215.21 165.456C1216.17 165.661 1217.15 165.856 1218.14 166.082C1219.12 166.321 1220.11 166.562 1221.12 166.808C1222.14 167.044 1223.15 167.341 1224.17 167.617C1225.2 167.902 1226.24 168.176 1227.28 168.508C1228.31 168.831 1229.36 169.158 1230.42 169.488C1231.47 169.848 1232.53 170.213 1233.6 170.581C1237.85 172.099 1242.19 173.866 1246.52 175.909C1250.84 177.972 1254.95 180.208 1258.81 182.537C1259.77 183.129 1260.72 183.718 1261.66 184.3C1262.59 184.911 1263.5 185.514 1264.41 186.113C1265.31 186.7 1266.18 187.334 1267.05 187.945C1267.91 188.56 1268.78 189.153 1269.6 189.788C1270.42 190.414 1271.24 191.03 1272.04 191.64C1272.83 192.26 1273.6 192.891 1274.37 193.505C1274.75 193.813 1275.12 194.12 1275.5 194.423C1275.87 194.729 1276.23 195.048 1276.59 195.355C1277.31 195.976 1278.02 196.586 1278.71 197.186C1279.4 197.796 1280.06 198.412 1280.71 199.011C1281.36 199.615 1282.02 200.191 1282.62 200.793C1283.83 201.994 1285.02 203.11 1286.09 204.253C1287.17 205.381 1288.21 206.443 1289.13 207.502C1290.07 208.554 1290.97 209.523 1291.75 210.48C1292.54 211.432 1293.29 212.304 1293.96 213.13C1294.61 213.965 1295.21 214.726 1295.74 215.414C1296.01 215.758 1296.27 216.077 1296.5 216.39C1296.73 216.701 1296.94 216.993 1297.14 217.264C1297.53 217.805 1297.86 218.264 1298.13 218.637C1298.66 219.379 1298.94 219.771 1298.94 219.771C1298.94 219.771 1298.6 219.434 1297.95 218.796C1297.63 218.474 1297.22 218.08 1296.75 217.611C1296.51 217.376 1296.26 217.125 1295.99 216.854C1295.71 216.591 1295.41 216.309 1295.1 216.012C1294.47 215.417 1293.78 214.757 1293.01 214.035C1292.25 213.321 1291.39 212.563 1290.49 211.739C1289.6 210.906 1288.59 210.069 1287.55 209.158C1286.52 208.237 1285.38 207.321 1284.2 206.341C1283.04 205.348 1281.75 204.381 1280.45 203.334C1279.8 202.807 1279.11 202.308 1278.42 201.784C1277.73 201.262 1277.02 200.732 1276.31 200.192C1275.58 199.669 1274.84 199.136 1274.08 198.591C1273.71 198.319 1273.33 198.048 1272.95 197.775C1272.56 197.508 1272.17 197.24 1271.77 196.971C1270.98 196.433 1270.19 195.874 1269.38 195.33C1268.56 194.79 1267.73 194.248 1266.88 193.695C1266.05 193.131 1265.17 192.609 1264.3 192.059C1263.43 191.515 1262.56 190.947 1261.64 190.421C1260.74 189.882 1259.82 189.336 1258.9 188.786C1257.97 188.256 1257.03 187.723 1256.07 187.183C1252.25 185.057 1248.24 182.971 1244.05 180.974C1239.86 178.999 1235.7 177.209 1231.63 175.598C1230.61 175.203 1229.6 174.809 1228.6 174.42C1227.59 174.054 1226.59 173.69 1225.59 173.331C1224.61 172.959 1223.61 172.643 1222.63 172.308C1221.66 171.98 1220.7 171.635 1219.73 171.343C1218.77 171.041 1217.82 170.74 1216.88 170.445C1215.94 170.159 1215 169.899 1214.08 169.627C1213.62 169.493 1213.17 169.359 1212.72 169.226C1212.26 169.103 1211.81 168.983 1211.36 168.861C1210.46 168.62 1209.58 168.382 1208.71 168.149C1207.83 167.933 1206.97 167.725 1206.13 167.518C1205.28 167.315 1204.45 167.094 1203.63 166.926C1202.76 166.74 1201.91 166.544 1201.07 166.362C1201.39 165.358 1201.72 164.377 1202.06 163.405Z" fill="#259DD8"/>
<path d="M1019.89 152.375C1015.74 145.098 1010.55 138.355 1007.95 129.937C1004.73 119.483 1003.73 108.321 997.931 98.7797C994.499 93.1184 990.398 87.6508 984.708 84.1211C979.018 80.5915 971.484 79.2643 965.32 82.1464C960.027 84.6302 956.498 89.7734 954.006 94.9651C936.382 131.7 964.614 179.138 1003.42 189.631C1018.19 193.639 1026.75 183.155 1025.7 169.446C1025.14 162.951 1022.8 157.536 1019.89 152.375Z" fill="#084C7E"/>
<path d="M1019.89 152.375C1015.74 145.098 1010.55 138.355 1007.95 129.937C1004.73 119.483 1003.73 108.321 997.931 98.7797C994.499 93.1184 990.398 87.6508 984.708 84.1211C979.018 80.5915 971.484 79.2643 965.32 82.1464C960.027 84.6302 956.498 89.7734 954.006 94.9651C936.382 131.7 964.614 179.138 1003.42 189.631C1018.19 193.639 1026.75 183.155 1025.7 169.446C1025.14 162.951 1022.8 157.536 1019.89 152.375Z" fill="url(#paint6_radial_10_3529)"/>
<path d="M1026.3 172.802C1025.99 172.723 1025.66 172.601 1025.35 172.522C1024.88 172.399 1024.42 172.206 1023.95 172.049C1023.49 171.891 1022.99 171.725 1022.49 171.558C1021.99 171.392 1021.49 171.225 1020.99 171.059C1020.72 170.954 1020.48 170.893 1020.22 170.787C1019.96 170.682 1019.7 170.577 1019.47 170.481C1018.44 170.104 1017.36 169.674 1016.27 169.28C1011.94 167.527 1007.27 165.458 1002.53 162.993C997.79 160.492 993.421 157.859 989.493 155.34C988.547 154.682 987.59 154.059 986.678 153.409C986.469 153.242 986.217 153.102 986.008 152.935C985.8 152.768 985.591 152.601 985.338 152.461C984.921 152.127 984.494 151.829 984.067 151.53C983.64 151.232 983.213 150.933 982.829 150.608C982.436 150.319 982.009 150.02 981.65 149.739C980.874 149.125 980.156 148.563 979.471 148.009C978.059 146.929 976.871 145.831 975.736 144.936C975.212 144.461 974.668 144.058 974.203 143.636C973.737 143.214 973.33 142.846 972.956 142.485C971.477 141.124 970.628 140.377 970.628 140.377C970.628 140.377 971.238 141.327 972.361 143.049C972.647 143.462 972.947 143.955 973.315 144.464C973.683 144.974 974.085 145.492 974.535 146.099C975.422 147.232 976.419 148.621 977.65 149.956C978.261 150.641 978.896 151.371 979.565 152.109C979.894 152.495 980.268 152.855 980.641 153.216C981.015 153.576 981.378 153.971 981.786 154.34C982.159 154.7 982.556 155.104 982.954 155.508C983.153 155.71 983.352 155.912 983.56 156.079C983.759 156.281 984.002 156.457 984.201 156.659C985.083 157.414 985.966 158.169 986.907 158.977C990.687 162.024 995.119 165.088 1000.07 167.72C1005.08 170.29 1010.13 172.192 1014.79 173.505C1015.98 173.811 1017.11 174.1 1018.23 174.388C1018.5 174.458 1018.77 174.528 1019.05 174.598C1019.32 174.668 1019.6 174.703 1019.87 174.773C1020.43 174.878 1020.98 174.983 1021.5 175.079C1022.02 175.175 1022.54 175.271 1023.06 175.367C1023.58 175.463 1024.07 175.55 1024.57 175.602C1025.06 175.654 1025.52 175.697 1026.01 175.785C1026.15 174.764 1026.24 173.805 1026.3 172.802Z" fill="#259DD8"/>
<path d="M989.373 125.13C988.373 123.537 987.781 122.679 987.781 122.679C987.781 122.679 988.078 123.684 988.651 125.504C988.814 125.954 988.957 126.474 989.134 127.003C989.345 127.54 989.58 128.12 989.795 128.77C990.313 130.018 990.84 131.491 991.603 133.024C991.968 133.786 992.357 134.592 992.769 135.441C992.976 135.865 993.226 136.263 993.432 136.688C993.672 137.121 993.912 137.554 994.153 137.987C994.393 138.42 994.667 138.862 994.897 139.33C995.017 139.546 995.161 139.806 995.281 140.022C995.435 140.248 995.555 140.464 995.709 140.689C996.291 141.581 996.897 142.517 997.536 143.46C1000.15 147.175 1003.31 150.993 1007.11 154.603C1010.93 158.142 1014.95 161.101 1018.79 163.418C1019.76 163.963 1020.73 164.508 1021.66 165.044C1021.88 165.173 1022.13 165.312 1022.35 165.442C1022.57 165.571 1022.83 165.675 1023.04 165.805C1023.52 166.038 1023.97 166.263 1024.41 166.487C1024.76 166.652 1025.11 166.816 1025.47 166.98C1025.19 165.273 1024.81 163.652 1024.32 162.041C1024.14 161.919 1024 161.772 1023.82 161.651C1023.01 161.037 1022.17 160.414 1021.3 159.783C1017.92 157.135 1014.27 154.124 1010.66 150.748C1007.06 147.338 1003.82 143.911 1000.96 140.69C1000.25 139.876 999.571 139.071 998.926 138.275C998.762 138.084 998.599 137.894 998.435 137.703C998.271 137.513 998.117 137.288 997.988 137.106C997.66 136.725 997.376 136.318 997.083 135.946C996.789 135.573 996.496 135.201 996.202 134.829C995.909 134.456 995.605 134.119 995.346 133.755C994.826 133.028 994.297 132.335 993.802 131.651C992.791 130.352 991.993 129.07 991.214 127.979C990.824 127.434 990.493 126.94 990.161 126.446C989.897 125.97 989.623 125.528 989.373 125.13Z" fill="#259DD8"/>
<g filter="url(#filter0_f_10_3529)">
<path d="M1285.71 354.578C1257.19 409.785 1191.37 432.365 1116.84 367.342C1170.52 343.605 1279.44 296.603 1285.71 298.484C1291.99 300.365 1288.33 336.663 1285.71 354.578Z" fill="url(#paint7_linear_10_3529)"/>
</g>
<path d="M1199.94 112.415C1154.66 82.2788 1084.25 55.3664 1036.03 94.2982C1011.68 113.957 999.726 147.457 1006.18 177.839C1013.67 212.916 1052.85 254.86 1072.11 284.19C1089.18 283.139 1093.09 265.9 1110.12 264.638L1120 293.896L1110.12 353.906C1253.21 478.743 1364.19 280.681 1240.78 148.754C1226.2 133.163 1215.51 122.788 1199.94 112.415Z" fill="#259DD8"/>
<path d="M1199.94 112.415C1154.66 82.2788 1084.25 55.3664 1036.03 94.2982C1011.68 113.957 999.726 147.457 1006.18 177.839C1013.67 212.916 1052.85 254.86 1072.11 284.19C1089.18 283.139 1093.09 265.9 1110.12 264.638L1120 293.896L1110.12 353.906C1253.21 478.743 1364.19 280.681 1240.78 148.754C1226.2 133.163 1215.51 122.788 1199.94 112.415Z" fill="url(#paint8_linear_10_3529)"/>
<path d="M1199.94 112.415C1154.66 82.2788 1084.25 55.3664 1036.03 94.2982C1011.68 113.957 999.726 147.457 1006.18 177.839C1013.67 212.916 1052.85 254.86 1072.11 284.19C1089.18 283.139 1093.09 265.9 1110.12 264.638L1120 293.896L1110.12 353.906C1253.21 478.743 1364.19 280.681 1240.78 148.754C1226.2 133.163 1215.51 122.788 1199.94 112.415Z" fill="url(#paint9_linear_10_3529)"/>
<path d="M1199.94 112.415C1154.66 82.2788 1084.25 55.3664 1036.03 94.2982C1011.68 113.957 999.726 147.457 1006.18 177.839C1013.67 212.916 1052.85 254.86 1072.11 284.19C1089.18 283.139 1093.09 265.9 1110.12 264.638L1120 293.896L1110.12 353.906C1253.21 478.743 1364.19 280.681 1240.78 148.754C1226.2 133.163 1215.51 122.788 1199.94 112.415Z" fill="url(#paint10_radial_10_3529)"/>
<g filter="url(#filter1_d_10_3529)">
<path d="M1070.6 96.1786C1071.58 94.4494 1072.92 92.9673 1074.51 91.7322C1076.89 89.8971 1079.82 88.8384 1082.86 88.6267C1085.89 88.415 1088.96 89.1208 1091.6 90.6029C1094.28 92.0851 1096.45 94.3083 1097.82 96.9902C1099.19 99.6722 1099.77 102.672 1099.41 105.671C1099.05 108.636 1097.82 111.423 1095.83 113.682C1093.84 115.94 1091.2 117.528 1088.28 118.305C1085.35 119.081 1082.21 118.975 1079.31 118.023C1076.42 117.07 1073.86 115.27 1071.94 112.906C1070.68 111.318 1069.77 109.553 1069.19 107.612C1068.65 105.707 1068.47 103.695 1068.72 101.719C1068.98 99.8134 1069.63 97.9078 1070.6 96.1786Z" fill="#363B3E"/>
</g>
<path opacity="0.5" d="M1078.9 98.0245C1079.12 98.694 1079.48 99.3241 1079.97 99.9148C1080.72 100.742 1081.7 101.372 1082.86 101.726C1084.02 102.081 1085.22 102.12 1086.38 101.845C1087.54 101.569 1088.56 100.978 1089.32 100.19C1090.08 99.4028 1090.57 98.4183 1090.74 97.355C1090.88 96.2917 1090.65 95.2283 1090.12 94.2832C1089.59 93.338 1088.74 92.5504 1087.67 91.999C1086.65 91.4871 1085.44 91.2114 1084.24 91.2901C1083.04 91.3689 1081.93 91.7627 1080.99 92.3928C1080.37 92.826 1079.83 93.338 1079.48 93.9681C1079.08 94.5589 1078.85 95.2677 1078.76 95.9372C1078.63 96.6461 1078.68 97.355 1078.9 98.0245Z" fill="white"/>
<g filter="url(#filter2_i_10_3529)">
<path d="M1054.52 142.013L1020 132.28C1015.07 130.891 1010.08 134.428 1010.36 139.539C1011.02 151.395 1014.63 165.541 1028.13 168.11C1041.79 170.712 1052.95 160.936 1058.86 151.827C1061.36 147.979 1058.93 143.257 1054.52 142.013Z" fill="#363B3E"/>
</g>
<path opacity="0.1" fill-rule="evenodd" clip-rule="evenodd" d="M1055.75 205.356C1067.53 205.381 1089.27 203.019 1111.73 193.179C1113.24 194.17 1115.9 196.954 1114.51 200.156C1102.21 204.985 1074.65 213.562 1055.81 212.32L1055.83 214.828C1055.88 220.35 1051.44 224.865 1045.92 224.912L1017.4 225.154C1011.88 225.201 1007.37 220.762 1007.32 215.239L1007.22 203.044C1007.17 197.522 1011.61 193.007 1017.13 192.96L1045.64 192.718C1051.17 192.671 1055.68 197.11 1055.73 202.633L1055.75 205.356Z" fill="black"/>
<path opacity="0.1" d="M1141.11 117.538C1144.06 111.675 1145.15 94.2057 1146.23 84.8638C1150.58 86.7267 1163.34 91.2016 1163.62 91.6944C1163.9 92.1872 1154.82 120.271 1152.16 129.576L1144.58 131.656L1141.11 117.538Z" fill="black"/>
<g filter="url(#filter3_i_10_3529)">
<path d="M1116.08 123.47C1122.7 110.884 1138.47 105.644 1151.31 111.767L1170.08 120.722C1182.92 126.845 1187.96 142.011 1181.33 154.598L1156.04 202.687C1149.41 215.273 1133.64 220.513 1120.8 214.39L1102.03 205.435C1089.19 199.312 1084.16 184.145 1090.78 171.559L1116.08 123.47Z" fill="url(#paint11_linear_10_3529)"/>
</g>
<g filter="url(#filter4_i_10_3529)">
<path d="M1151.8 120.402C1160.51 103.078 1165.91 54.4685 1139.41 69.726C1134.9 72.3261 1132.93 73.7212 1123.26 78.6542C1108.85 74.68 1090.35 74.9284 1082.89 75.5493L1091.57 70.6844C1118.82 57.4759 1145.56 36.7066 1170.42 50.905C1204.64 70.444 1184.03 143.358 1164.57 172.373L1151.8 120.402Z" fill="url(#paint12_linear_10_3529)"/>
</g>
<g filter="url(#filter5_i_10_3529)">
<path d="M1170.42 50.9052C1204.64 70.4441 1184.03 143.358 1164.57 172.373L1151.8 120.403C1158.12 107.838 1162.69 78.8148 1154.62 69.6387C1148.75 63.8465 1143.19 51.5942 1126.12 52.8766C1129.81 51.401 1137.89 48.2946 1140.77 47.6737C1150.88 45.1522 1160.79 45.4055 1170.42 50.9052Z" fill="url(#paint13_linear_10_3529)"/>
</g>
<g filter="url(#filter6_i_10_3529)">
<path d="M1122.24 129.548C1128.86 116.962 1144.64 111.722 1157.47 117.845L1176.26 126.806C1189.1 132.929 1194.14 148.095 1187.51 160.682L1164.99 203.491C1158.37 216.077 1142.6 221.317 1129.76 215.194L1110.98 206.233C1098.14 200.11 1093.1 184.944 1099.72 172.357L1122.24 129.548Z" fill="url(#paint14_linear_10_3529)"/>
</g>
<g filter="url(#filter7_i_10_3529)">
<path d="M1130.6 139.607C1137.22 127.021 1152.99 121.781 1165.83 127.904L1178.85 134.116C1191.69 140.239 1196.73 155.406 1190.11 167.992L1172.25 201.94C1165.63 214.527 1149.85 219.766 1137.02 213.644L1123.99 207.431C1111.16 201.308 1106.12 186.142 1112.74 173.555L1130.6 139.607Z" fill="url(#paint15_linear_10_3529)"/>
</g>
<path d="M999.152 197.215C999.085 189.314 1005.44 182.855 1013.34 182.788L1033.24 182.619C1041.14 182.552 1047.6 188.903 1047.66 196.804L1047.69 200.387C1047.76 208.288 1041.41 214.747 1033.51 214.814L1013.61 214.982C1005.71 215.049 999.249 208.699 999.182 200.798L999.152 197.215Z" fill="url(#paint16_linear_10_3529)"/>
<g filter="url(#filter8_i_10_3529)">
<path d="M999.121 197.013C999.054 189.112 1005.4 182.653 1013.3 182.586L1025.11 182.486C1033.01 182.419 1039.47 188.769 1039.54 196.67L1039.57 200.338C1039.63 208.239 1033.28 214.698 1025.38 214.765L1013.58 214.865C1005.68 214.932 999.219 208.581 999.152 200.681L999.121 197.013Z" fill="url(#paint17_linear_10_3529)"/>
</g>
<g filter="url(#filter9_i_10_3529)">
<path d="M1103.63 183.044C1077.22 194.614 1051.81 195.845 1042.41 195.013C1040.17 198.9 1041.9 201.048 1043.05 201.636C1061.68 204.934 1093.05 195.267 1106.41 190.02C1107.8 186.818 1105.13 184.035 1103.63 183.044Z" fill="url(#paint18_linear_10_3529)"/>
</g>
<g filter="url(#filter10_f_10_3529)">
<path d="M1029.31 210.39C1000.93 228.51 1009.36 257.023 1034.3 269.055C1057.05 280.052 1100.93 280.979 1129.94 264.518C1128.55 259.771 1125.45 250.13 1124.23 249.534C1123.01 248.939 1060.44 223.19 1029.31 210.39Z" fill="url(#paint19_radial_10_3529)"/>
</g>
<path d="M1128.35 244.645C1145 187.54 1032.58 207.993 1008.64 223.282C981.883 240.356 989.835 267.223 1013.35 278.561C1044.03 293.379 1115.46 288.792 1128.35 244.645Z" fill="#084C7E"/>
<path d="M1128.35 244.645C1145 187.54 1032.58 207.993 1008.64 223.282C981.883 240.356 989.835 267.223 1013.35 278.561C1044.03 293.379 1115.46 288.792 1128.35 244.645Z" fill="url(#paint20_radial_10_3529)"/>
<path d="M1107.01 224.301C1096.65 234.341 1085.95 241.638 1077.93 246.213C1069.9 250.788 1064.66 252.916 1064.66 252.916C1064.66 252.916 1069.01 249.134 1075.98 243.033C1082.9 236.947 1092.18 228.396 1102.2 218.73C1104.9 216.111 1107.51 213.522 1110 211.046C1112.4 211.851 1114.66 212.752 1116.73 213.847C1113.8 217.35 1110.58 220.858 1107.01 224.301Z" fill="#259DD8"/>
<path d="M1087.61 214.441C1074.17 222.515 1061.11 227.461 1051.62 230.438C1042.12 233.416 1036.12 234.609 1036.12 234.609C1036.12 234.609 1041.63 231.638 1050.46 226.824C1059.3 222.061 1071.34 215.519 1084.24 207.71C1084.57 207.503 1084.91 207.297 1085.24 207.091C1089.41 207.142 1093.47 207.443 1097.31 207.921C1094.28 210.198 1091.02 212.381 1087.61 214.441Z" fill="#259DD8"/>
<path d="M117.567 148L107 155.925V265.558L146.626 271.765V301.222L173.044 306.505L183.611 299.901V277.558L216.633 282.73L227.2 274.804V165.171L117.567 148Z" fill="black" fill-opacity="0.07"/>
<path d="M102.567 138L212.2 155.171V264.804L189.085 261.184L102.567 247.633V155.171V138Z" fill="url(#paint21_linear_10_3529)"/>
<path d="M102.567 138L92 145.925L102.567 155.171V138Z" fill="url(#paint22_linear_10_3529)"/>
<path d="M201.633 272.73L212.2 264.804L189.085 261.184L201.633 272.73Z" fill="url(#paint23_linear_10_3529)"/>
<path d="M201.633 272.73L212.2 264.804L189.085 261.184L201.633 272.73Z" fill="url(#paint24_linear_10_3529)"/>
<path d="M212.2 264.804V155.171L193.708 169.041L189.085 261.184L212.2 264.804Z" fill="url(#paint25_linear_10_3529)"/>
<path d="M142.193 251.596L168.611 256.879V289.901L142.193 284.618V251.596Z" fill="url(#paint26_linear_10_3529)"/>
<path d="M168.611 289.901L142.193 284.618L158.044 296.506L168.611 289.901Z" fill="url(#paint27_linear_10_3529)"/>
<path d="M131.626 258.2L158.044 263.484V296.506L131.626 291.222V258.2Z" fill="url(#paint28_linear_10_3529)"/>
<path d="M92 145.925L201.633 163.097V272.73L92 255.558V145.925Z" fill="url(#paint29_linear_10_3529)"/>
<path d="M140.073 223.208C140.003 222.631 139.964 222.088 139.958 221.579C139.951 221.07 139.944 220.498 139.936 219.862C139.896 216.683 140.464 213.932 141.638 211.61C142.812 209.288 144.814 207.286 147.643 205.602L151.791 203.069C153.426 202.118 154.645 200.848 155.449 199.259C156.315 197.676 156.737 195.962 156.714 194.118C156.697 192.719 156.426 191.364 155.903 190.052C155.443 188.682 154.73 187.451 153.767 186.358C152.866 185.271 151.684 184.384 150.218 183.698C148.816 182.952 147.163 182.505 145.261 182.355C143.169 182.191 141.367 182.399 139.854 182.979C138.404 183.564 137.211 184.391 136.275 185.461C135.338 186.531 134.625 187.777 134.137 189.2C133.711 190.627 133.508 192.104 133.527 193.63C133.537 194.457 133.612 195.321 133.75 196.221C133.888 197.121 134.055 197.833 134.251 198.357L125.013 196.487C124.615 195.122 124.406 193.581 124.385 191.864C124.357 189.702 124.742 187.509 125.537 185.284C126.332 182.996 127.573 180.966 129.261 179.193C130.949 177.419 133.085 176.031 135.669 175.027C138.317 174.028 141.479 173.673 145.156 173.962C148.453 174.22 151.407 174.993 154.02 176.278C156.633 177.563 158.838 179.166 160.636 181.085C162.433 183.005 163.791 185.177 164.708 187.599C165.687 189.963 166.192 192.353 166.223 194.77C166.271 198.585 165.392 201.787 163.588 204.377C161.783 206.904 159.497 208.979 156.731 210.604L152.393 213.217C150.948 214.12 149.887 215.371 149.21 216.97C148.596 218.509 148.301 220.201 148.324 222.046C148.327 222.3 148.33 222.554 148.334 222.809C148.336 222.999 148.372 223.352 148.442 223.865L140.073 223.208ZM138.152 236.683C138.131 234.966 138.714 233.551 139.904 232.438C141.093 231.26 142.543 230.739 144.254 230.874C145.966 231.008 147.432 231.758 148.653 233.125C149.936 234.433 150.588 235.945 150.61 237.662C150.631 239.379 150.016 240.792 148.763 241.9C147.573 243.014 146.123 243.503 144.411 243.369C142.699 243.234 141.234 242.516 140.014 241.213C138.794 239.91 138.174 238.4 138.152 236.683Z" fill="white"/>
<path d="M372 31.9472L411.626 25.7407V-3.71648L438.044 -9L448.611 -2.39551V19.9479L481.633 14.7758L492.2 22.7011V132.334L382.567 149.505L372 141.58V31.9472Z" fill="black" fill-opacity="0.07"/>
<path d="M368.567 140.505L478.2 123.334V13.701L455.085 17.3215L368.567 30.8724V123.334V140.505Z" fill="url(#paint30_linear_10_3529)"/>
<path d="M368.567 140.505L358 132.58L368.567 123.334V140.505Z" fill="url(#paint31_linear_10_3529)"/>
<path d="M467.633 5.77571L478.2 13.701L455.085 17.3215L467.633 5.77571Z" fill="url(#paint32_linear_10_3529)"/>
<path d="M467.633 5.77574L478.2 13.701L455.085 17.3215L467.633 5.77574Z" fill="url(#paint33_linear_10_3529)"/>
<path d="M478.2 13.701V123.334L459.708 109.465L455.085 17.3215L478.2 13.701Z" fill="url(#paint34_linear_10_3529)"/>
<path d="M408.193 26.9097L434.611 21.6262V-11.3958L408.193 -6.11231V26.9097Z" fill="url(#paint35_linear_10_3529)"/>
<path d="M434.611 -11.3958L408.193 -6.11231L424.044 -18.0002L434.611 -11.3958Z" fill="url(#paint36_linear_10_3529)"/>
<path d="M397.626 20.3052L424.044 15.0217V-18.0003L397.626 -12.7168V20.3052Z" fill="url(#paint37_linear_10_3529)"/>
<path d="M358 132.58L467.633 115.409V5.77568L358 22.9471V132.58Z" fill="url(#paint38_linear_10_3529)"/>
<path d="M358 132.58L467.633 115.409V5.77568L358 22.9471V132.58Z" fill="url(#paint39_linear_10_3529)"/>
<path d="M407.515 84.7696C407.437 84.1984 407.391 83.6551 407.378 83.1399C407.366 82.6247 407.351 82.045 407.335 81.401C407.255 78.1808 407.792 75.2671 408.945 72.66C410.098 70.0529 412.087 67.5941 414.914 65.2836L419.058 61.8304C420.691 60.5169 421.902 58.9683 422.691 57.1844C423.544 55.3922 423.947 53.5622 423.901 51.6945C423.866 50.2777 423.577 48.9588 423.034 47.738C422.553 46.4444 421.821 45.3454 420.837 44.4411C419.918 43.5283 418.716 42.8789 417.233 42.4926C415.811 42.0336 414.143 41.9302 412.226 42.1825C410.119 42.46 408.307 43.0539 406.792 43.9641C405.34 44.866 404.15 45.9596 403.22 47.245C402.291 48.5304 401.589 49.9474 401.115 51.4959C400.705 53.0361 400.519 54.579 400.557 56.1247C400.578 56.9619 400.663 57.823 400.813 58.7078C400.963 59.5927 401.141 60.2801 401.345 60.7701L392.023 60.8343C391.606 59.5323 391.376 58.0118 391.333 56.2729C391.279 54.0832 391.638 51.7744 392.411 49.3465C393.182 46.8543 394.406 44.5286 396.083 42.3694C397.759 40.2103 399.892 38.3465 402.48 36.778C405.133 35.2012 408.311 34.1689 412.016 33.6812C415.337 33.2439 418.321 33.4003 420.967 34.1504C423.613 34.9005 425.852 36.0595 427.685 37.6274C429.518 39.1952 430.912 41.1117 431.865 43.377C432.88 45.5694 433.419 47.8892 433.479 50.3366C433.575 54.2008 432.731 57.6395 430.947 60.6528C429.162 63.6016 426.887 66.1949 424.123 68.4326L419.79 72.0076C418.347 73.2314 417.295 74.7269 416.634 76.4939C416.035 78.188 415.758 79.969 415.805 81.8367C415.811 82.0943 415.818 82.3519 415.824 82.6095C415.829 82.8028 415.869 83.1528 415.946 83.6596L407.515 84.7696ZM405.75 98.8617C405.706 97.1228 406.277 95.5616 407.46 94.1782C408.641 92.7303 410.095 91.8929 411.819 91.6658C413.544 91.4388 415.029 91.8894 416.274 93.0177C417.582 94.0732 418.257 95.4704 418.3 97.2093C418.344 98.9482 417.742 100.514 416.494 101.905C415.311 103.289 413.857 104.094 412.133 104.321C410.408 104.548 408.924 104.13 407.68 103.066C406.436 102.002 405.793 100.601 405.75 98.8617Z" fill="white"/>
<rect opacity="0.7" width="1366" height="280" fill="#131A2D"/>
</g>
<defs>
<filter id="filter0_f_10_3529" x="1092.84" y="274.429" width="220.339" height="156.571" filterUnits="userSpaceOnUse" color-interpolation-filters="sRGB">
<feFlood flood-opacity="0" result="BackgroundImageFix"/>
<feBlend mode="normal" in="SourceGraphic" in2="BackgroundImageFix" result="shape"/>
<feGaussianBlur stdDeviation="12" result="effect1_foregroundBlur_10_3529"/>
</filter>
<filter id="filter1_d_10_3529" x="1064.61" y="88.5898" width="38.9021" height="38.2305" filterUnits="userSpaceOnUse" color-interpolation-filters="sRGB">
<feFlood flood-opacity="0" result="BackgroundImageFix"/>
<feColorMatrix in="SourceAlpha" type="matrix" values="0 0 0 0 0 0 0 0 0 0 0 0 0 0 0 0 0 0 127 0" result="hardAlpha"/>
<feOffset dy="4"/>
<feGaussianBlur stdDeviation="2"/>
<feComposite in2="hardAlpha" operator="out"/>
<feColorMatrix type="matrix" values="0 0 0 0 0 0 0 0 0 0 0 0 0 0 0 0 0 0 0.25 0"/>
<feBlend mode="normal" in2="BackgroundImageFix" result="effect1_dropShadow_10_3529"/>
<feBlend mode="normal" in="SourceGraphic" in2="effect1_dropShadow_10_3529" result="shape"/>
</filter>
<filter id="filter2_i_10_3529" x="1010.35" y="131.976" width="49.5137" height="36.5605" filterUnits="userSpaceOnUse" color-interpolation-filters="sRGB">
<feFlood flood-opacity="0" result="BackgroundImageFix"/>
<feBlend mode="normal" in="SourceGraphic" in2="BackgroundImageFix" result="shape"/>
<feColorMatrix in="SourceAlpha" type="matrix" values="0 0 0 0 0 0 0 0 0 0 0 0 0 0 0 0 0 0 127 0" result="hardAlpha"/>
<feOffset dx="12" dy="12"/>
<feComposite in2="hardAlpha" operator="arithmetic" k2="-1" k3="1"/>
<feColorMatrix type="matrix" values="0 0 0 0 0 0 0 0 0 0 0 0 0 0 0 0 0 0 0.25 0"/>
<feBlend mode="normal" in2="shape" result="effect1_innerShadow_10_3529"/>
</filter>
<filter id="filter3_i_10_3529" x="1087.86" y="107.208" width="99.3884" height="109.742" filterUnits="userSpaceOnUse" color-interpolation-filters="sRGB">
<feFlood flood-opacity="0" result="BackgroundImageFix"/>
<feBlend mode="normal" in="SourceGraphic" in2="BackgroundImageFix" result="shape"/>
<feColorMatrix in="SourceAlpha" type="matrix" values="0 0 0 0 0 0 0 0 0 0 0 0 0 0 0 0 0 0 127 0" result="hardAlpha"/>
<feOffset dx="3" dy="-2"/>
<feGaussianBlur stdDeviation="4"/>
<feComposite in2="hardAlpha" operator="arithmetic" k2="-1" k3="1"/>
<feColorMatrix type="matrix" values="0 0 0 0 0 0 0 0 0 0 0 0 0 0 0 0 0 0 0.25 0"/>
<feBlend mode="normal" in2="shape" result="effect1_innerShadow_10_3529"/>
</filter>
<filter id="filter4_i_10_3529" x="1082.89" y="42.1362" width="105.865" height="130.237" filterUnits="userSpaceOnUse" color-interpolation-filters="sRGB">
<feFlood flood-opacity="0" result="BackgroundImageFix"/>
<feBlend mode="normal" in="SourceGraphic" in2="BackgroundImageFix" result="shape"/>
<feColorMatrix in="SourceAlpha" type="matrix" values="0 0 0 0 0 0 0 0 0 0 0 0 0 0 0 0 0 0 127 0" result="hardAlpha"/>
<feOffset dy="-4"/>
<feGaussianBlur stdDeviation="4"/>
<feComposite in2="hardAlpha" operator="arithmetic" k2="-1" k3="1"/>
<feColorMatrix type="matrix" values="0 0 0 0 0 0 0 0 0 0 0 0 0 0 0 0 0 0 0.25 0"/>
<feBlend mode="normal" in2="shape" result="effect1_innerShadow_10_3529"/>
</filter>
<filter id="filter5_i_10_3529" x="1126.12" y="43.1362" width="64.636" height="129.237" filterUnits="userSpaceOnUse" color-interpolation-filters="sRGB">
<feFlood flood-opacity="0" result="BackgroundImageFix"/>
<feBlend mode="normal" in="SourceGraphic" in2="BackgroundImageFix" result="shape"/>
<feColorMatrix in="SourceAlpha" type="matrix" values="0 0 0 0 0 0 0 0 0 0 0 0 0 0 0 0 0 0 127 0" result="hardAlpha"/>
<feOffset dx="2" dy="-3"/>
<feGaussianBlur stdDeviation="3"/>
<feComposite in2="hardAlpha" operator="arithmetic" k2="-1" k3="1"/>
<feColorMatrix type="matrix" values="0 0 0 0 0 0 0 0 0 0 0 0 0 0 0 0 0 0 0.25 0"/>
<feBlend mode="normal" in2="shape" result="effect1_innerShadow_10_3529"/>
</filter>
<filter id="filter6_i_10_3529" x="1096.81" y="115.286" width="95.6226" height="110.468" filterUnits="userSpaceOnUse" color-interpolation-filters="sRGB">
<feFlood flood-opacity="0" result="BackgroundImageFix"/>
<feBlend mode="normal" in="SourceGraphic" in2="BackgroundImageFix" result="shape"/>
<feColorMatrix in="SourceAlpha" type="matrix" values="0 0 0 0 0 0 0 0 0 0 0 0 0 0 0 0 0 0 127 0" result="hardAlpha"/>
<feOffset dx="2" dy="8"/>
<feGaussianBlur stdDeviation="4"/>
<feComposite in2="hardAlpha" operator="arithmetic" k2="-1" k3="1"/>
<feColorMatrix type="matrix" values="0 0 0 0 0 0 0 0 0 0 0 0 0 0 0 0 0 0 0.25 0"/>
<feBlend mode="normal" in2="shape" result="effect1_innerShadow_10_3529"/>
</filter>
<filter id="filter7_i_10_3529" x="1109.82" y="117.345" width="85.1985" height="98.8579" filterUnits="userSpaceOnUse" color-interpolation-filters="sRGB">
<feFlood flood-opacity="0" result="BackgroundImageFix"/>
<feBlend mode="normal" in="SourceGraphic" in2="BackgroundImageFix" result="shape"/>
<feColorMatrix in="SourceAlpha" type="matrix" values="0 0 0 0 0 0 0 0 0 0 0 0 0 0 0 0 0 0 127 0" result="hardAlpha"/>
<feOffset dx="2" dy="-8"/>
<feGaussianBlur stdDeviation="4"/>
<feComposite in2="hardAlpha" operator="arithmetic" k2="-1" k3="1"/>
<feColorMatrix type="matrix" values="0 0 0 0 0 0 0 0 0 0 0 0 0 0 0 0 0 0 0.25 0"/>
<feBlend mode="normal" in2="shape" result="effect1_innerShadow_10_3529"/>
</filter>
<filter id="filter8_i_10_3529" x="991.12" y="174.485" width="48.4473" height="40.3799" filterUnits="userSpaceOnUse" color-interpolation-filters="sRGB">
<feFlood flood-opacity="0" result="BackgroundImageFix"/>
<feBlend mode="normal" in="SourceGraphic" in2="BackgroundImageFix" result="shape"/>
<feColorMatrix in="SourceAlpha" type="matrix" values="0 0 0 0 0 0 0 0 0 0 0 0 0 0 0 0 0 0 127 0" result="hardAlpha"/>
<feOffset dx="-8" dy="-8"/>
<feGaussianBlur stdDeviation="4"/>
<feComposite in2="hardAlpha" operator="arithmetic" k2="-1" k3="1"/>
<feColorMatrix type="matrix" values="0 0 0 0 0 0 0 0 0 0 0 0 0 0 0 0 0 0 0.25 0"/>
<feBlend mode="normal" in2="shape" result="effect1_innerShadow_10_3529"/>
</filter>
<filter id="filter9_i_10_3529" x="1033.32" y="175.044" width="73.4773" height="27.2627" filterUnits="userSpaceOnUse" color-interpolation-filters="sRGB">
<feFlood flood-opacity="0" result="BackgroundImageFix"/>
<feBlend mode="normal" in="SourceGraphic" in2="BackgroundImageFix" result="shape"/>
<feColorMatrix in="SourceAlpha" type="matrix" values="0 0 0 0 0 0 0 0 0 0 0 0 0 0 0 0 0 0 127 0" result="hardAlpha"/>
<feOffset dx="-8" dy="-8"/>
<feGaussianBlur stdDeviation="4"/>
<feComposite in2="hardAlpha" operator="arithmetic" k2="-1" k3="1"/>
<feColorMatrix type="matrix" values="0 0 0 0 0 0 0 0 0 0 0 0 0 0 0 0 0 0 0.25 0"/>
<feBlend mode="normal" in2="shape" result="effect1_innerShadow_10_3529"/>
</filter>
<filter id="filter10_f_10_3529" x="1003.49" y="202.39" width="134.45" height="82.7383" filterUnits="userSpaceOnUse" color-interpolation-filters="sRGB">
<feFlood flood-opacity="0" result="BackgroundImageFix"/>
<feBlend mode="normal" in="SourceGraphic" in2="BackgroundImageFix" result="shape"/>
<feGaussianBlur stdDeviation="4" result="effect1_foregroundBlur_10_3529"/>
</filter>
<linearGradient id="paint0_linear_10_3529" x1="-61.9616" y1="103.526" x2="758.988" y2="103.526" gradientUnits="userSpaceOnUse">
<stop stop-color="white" stop-opacity="0.94"/>
<stop offset="1" stop-color="white" stop-opacity="0"/>
</linearGradient>
<linearGradient id="paint1_linear_10_3529" x1="237.229" y1="206.125" x2="797.332" y2="444.194" gradientUnits="userSpaceOnUse">
<stop stop-color="white" stop-opacity="0.94"/>
<stop offset="1" stop-color="white" stop-opacity="0"/>
</linearGradient>
<linearGradient id="paint2_linear_10_3529" x1="1474.96" y1="105.526" x2="654.012" y2="105.526" gradientUnits="userSpaceOnUse">
<stop stop-color="white" stop-opacity="0.94"/>
<stop offset="1" stop-color="white" stop-opacity="0"/>
</linearGradient>
<linearGradient id="paint3_linear_10_3529" x1="1175.77" y1="208.125" x2="615.668" y2="446.194" gradientUnits="userSpaceOnUse">
<stop stop-color="white" stop-opacity="0.94"/>
<stop offset="1" stop-color="white" stop-opacity="0"/>
</linearGradient>
<radialGradient id="paint4_radial_10_3529" cx="0" cy="0" r="1" gradientUnits="userSpaceOnUse" gradientTransform="translate(1183.17 253.883) rotate(-129.725) scale(173.079 177.694)">
<stop stop-color="#1C75BC" stop-opacity="0.97"/>
<stop offset="0.706" stop-color="#2484C6" stop-opacity="0"/>
</radialGradient>
<radialGradient id="paint5_radial_10_3529" cx="0" cy="0" r="1" gradientUnits="userSpaceOnUse" gradientTransform="translate(1326.91 135.493) rotate(143.936) scale(113.302 190.325)">
<stop stop-color="white" stop-opacity="0.7"/>
<stop offset="1" stop-color="#0B4F82" stop-opacity="0"/>
</radialGradient>
<radialGradient id="paint6_radial_10_3529" cx="0" cy="0" r="1" gradientUnits="userSpaceOnUse" gradientTransform="translate(980.876 66.9838) rotate(14.5213) scale(89.3754 90.8974)">
<stop stop-color="#1C75BC" stop-opacity="0.97"/>
<stop offset="1" stop-color="#2484C6" stop-opacity="0"/>
</radialGradient>
<linearGradient id="paint7_linear_10_3529" x1="1210.35" y1="338.455" x2="1261.75" y2="380.106" gradientUnits="userSpaceOnUse">
<stop/>
<stop offset="1" stop-opacity="0"/>
</linearGradient>
<linearGradient id="paint8_linear_10_3529" x1="1040.39" y1="650.164" x2="1172.78" y2="102.961" gradientUnits="userSpaceOnUse">
<stop stop-color="#165F9A" stop-opacity="0.97"/>
<stop offset="0.7464" stop-color="#2079B9" stop-opacity="0.2459"/>
<stop offset="1" stop-color="#2484C6" stop-opacity="0"/>
</linearGradient>
<linearGradient id="paint9_linear_10_3529" x1="1031.99" y1="395.557" x2="1177.18" y2="116.188" gradientUnits="userSpaceOnUse">
<stop stop-color="#165F9A" stop-opacity="0.97"/>
<stop offset="0.7464" stop-color="#2079B9" stop-opacity="0.2459"/>
<stop offset="1" stop-color="#2484C6" stop-opacity="0"/>
</linearGradient>
<radialGradient id="paint10_radial_10_3529" cx="0" cy="0" r="1" gradientUnits="userSpaceOnUse" gradientTransform="translate(1236.22 79.145) rotate(112.097) scale(181.261 239.042)">
<stop stop-color="white" stop-opacity="0.97"/>
<stop offset="1" stop-color="#49AADA" stop-opacity="0"/>
</radialGradient>
<linearGradient id="paint11_linear_10_3529" x1="1155.21" y1="120.33" x2="1120.48" y2="205.949" gradientUnits="userSpaceOnUse">
<stop stop-color="#647A9B"/>
<stop offset="1" stop-color="#23354F"/>
</linearGradient>
<linearGradient id="paint12_linear_10_3529" x1="1176.56" y1="45.9411" x2="1090.71" y2="94.1485" gradientUnits="userSpaceOnUse">
<stop stop-color="#6C7E99"/>
<stop offset="1" stop-color="#354459"/>
</linearGradient>
<linearGradient id="paint13_linear_10_3529" x1="1168.04" y1="56.1161" x2="1158.14" y2="132.909" gradientUnits="userSpaceOnUse">
<stop stop-color="#6C7E99"/>
<stop offset="1" stop-color="#354459"/>
</linearGradient>
<linearGradient id="paint14_linear_10_3529" x1="1161.54" y1="126.109" x2="1128.48" y2="206.817" gradientUnits="userSpaceOnUse">
<stop stop-color="#52637C"/>
<stop offset="1" stop-color="#182537"/>
</linearGradient>
<linearGradient id="paint15_linear_10_3529" x1="1167.52" y1="134.399" x2="1137.72" y2="207" gradientUnits="userSpaceOnUse">
<stop stop-color="#6C7E99"/>
<stop offset="1" stop-color="#354459"/>
</linearGradient>
<linearGradient id="paint16_linear_10_3529" x1="1021.32" y1="184.562" x2="1027.38" y2="209.642" gradientUnits="userSpaceOnUse">
<stop stop-color="#5E7494"/>
<stop offset="1" stop-color="#16253A"/>
</linearGradient>
<linearGradient id="paint17_linear_10_3529" x1="1017.57" y1="184.396" x2="1018.74" y2="212.675" gradientUnits="userSpaceOnUse">
<stop stop-color="#738BAC"/>
<stop offset="1" stop-color="#2B3E58"/>
</linearGradient>
<linearGradient id="paint18_linear_10_3529" x1="1047.23" y1="193.51" x2="1094.89" y2="215.74" gradientUnits="userSpaceOnUse">
<stop stop-color="#3A4D68"/>
<stop offset="1" stop-color="#212F42"/>
</linearGradient>
<radialGradient id="paint19_radial_10_3529" cx="0" cy="0" r="1" gradientUnits="userSpaceOnUse" gradientTransform="translate(1081.74 209.373) rotate(100.432) scale(66.3917 84.8441)">
<stop offset="0.414616"/>
<stop offset="1" stop-opacity="0"/>
</radialGradient>
<radialGradient id="paint20_radial_10_3529" cx="0" cy="0" r="1" gradientUnits="userSpaceOnUse" gradientTransform="translate(979.882 246.505) rotate(122.333) scale(142.683 130.162)">
<stop stop-color="#1C75BC" stop-opacity="0.97"/>
<stop offset="1" stop-color="#2484C6" stop-opacity="0"/>
</radialGradient>
<linearGradient id="paint21_linear_10_3529" x1="106.5" y1="159.5" x2="216.042" y2="208.972" gradientUnits="userSpaceOnUse">
<stop offset="0.00119874" stop-color="#D7BD95"/>
<stop offset="1" stop-color="#A56625"/>
</linearGradient>
<linearGradient id="paint22_linear_10_3529" x1="106.5" y1="159.5" x2="216.042" y2="208.972" gradientUnits="userSpaceOnUse">
<stop offset="0.00119874" stop-color="#D7BD95"/>
<stop offset="1" stop-color="#A56625"/>
</linearGradient>
<linearGradient id="paint23_linear_10_3529" x1="106.5" y1="159.5" x2="216.042" y2="208.972" gradientUnits="userSpaceOnUse">
<stop offset="0.00119874" stop-color="#D7BD95"/>
<stop offset="1" stop-color="#A56625"/>
</linearGradient>
<linearGradient id="paint24_linear_10_3529" x1="191.873" y1="173.931" x2="207.5" y2="276" gradientUnits="userSpaceOnUse">
<stop offset="0.00119874" stop-color="#D3A16A"/>
<stop offset="1" stop-color="#A56625"/>
</linearGradient>
<linearGradient id="paint25_linear_10_3529" x1="191.873" y1="173.931" x2="207.5" y2="276" gradientUnits="userSpaceOnUse">
<stop offset="0.00119874" stop-color="#D3A16A"/>
<stop offset="1" stop-color="#A56625"/>
</linearGradient>
<linearGradient id="paint26_linear_10_3529" x1="145.38" y1="258.762" x2="172.864" y2="273.737" gradientUnits="userSpaceOnUse">
<stop offset="0.00119874" stop-color="#D7BD95"/>
<stop offset="1" stop-color="#A56625"/>
</linearGradient>
<linearGradient id="paint27_linear_10_3529" x1="145.38" y1="258.762" x2="172.864" y2="273.737" gradientUnits="userSpaceOnUse">
<stop offset="0.00119874" stop-color="#D7BD95"/>
<stop offset="1" stop-color="#A56625"/>
</linearGradient>
<linearGradient id="paint28_linear_10_3529" x1="143.514" y1="262.823" x2="216.503" y2="398.753" gradientUnits="userSpaceOnUse">
<stop offset="0.00119874" stop-color="#E6A761"/>
<stop offset="1" stop-color="#FCDFB3"/>
</linearGradient>
<linearGradient id="paint29_linear_10_3529" x1="106.53" y1="167.059" x2="215.761" y2="289.734" gradientUnits="userSpaceOnUse">
<stop offset="0.00119874" stop-color="#FCDFB3"/>
<stop offset="1" stop-color="#D78128"/>
</linearGradient>
<linearGradient id="paint30_linear_10_3529" x1="492" y1="102.5" x2="362.119" y2="137.755" gradientUnits="userSpaceOnUse">
<stop offset="0.00119874" stop-color="#ECB0B0"/>
<stop offset="1" stop-color="#985559"/>
</linearGradient>
<linearGradient id="paint31_linear_10_3529" x1="492" y1="102.5" x2="362.119" y2="137.755" gradientUnits="userSpaceOnUse">
<stop offset="0.00119874" stop-color="#ECB0B0"/>
<stop offset="1" stop-color="#985559"/>
</linearGradient>
<linearGradient id="paint32_linear_10_3529" x1="492" y1="102.5" x2="362.119" y2="137.755" gradientUnits="userSpaceOnUse">
<stop offset="0.00119874" stop-color="#ECB0B0"/>
<stop offset="1" stop-color="#985559"/>
</linearGradient>
<linearGradient id="paint33_linear_10_3529" x1="476.5" y1="108" x2="527.387" y2="70.9281" gradientUnits="userSpaceOnUse">
<stop offset="0.00119874" stop-color="#CD8484"/>
<stop offset="1" stop-color="#985559"/>
</linearGradient>
<linearGradient id="paint34_linear_10_3529" x1="476.5" y1="108" x2="527.387" y2="70.9281" gradientUnits="userSpaceOnUse">
<stop offset="0.00119874" stop-color="#CD8484"/>
<stop offset="1" stop-color="#985559"/>
</linearGradient>
<linearGradient id="paint35_linear_10_3529" x1="447" y1="-22.5002" x2="423.055" y2="10.7846" gradientUnits="userSpaceOnUse">
<stop offset="0.00119874" stop-color="#CD8484"/>
<stop offset="1" stop-color="#985559"/>
</linearGradient>
<linearGradient id="paint36_linear_10_3529" x1="447" y1="-22.5002" x2="423.055" y2="10.7846" gradientUnits="userSpaceOnUse">
<stop offset="0.00119874" stop-color="#CD8484"/>
<stop offset="1" stop-color="#985559"/>
</linearGradient>
<linearGradient id="paint37_linear_10_3529" x1="409.514" y1="15.6821" x2="482.503" y2="-120.248" gradientUnits="userSpaceOnUse">
<stop offset="0.00119874" stop-color="#DF5B62"/>
<stop offset="1" stop-color="#ECB0B0"/>
</linearGradient>
<linearGradient id="paint38_linear_10_3529" x1="372.53" y1="111.446" x2="481.761" y2="-11.2287" gradientUnits="userSpaceOnUse">
<stop offset="0.00119874" stop-color="#ECB0B0"/>
<stop offset="1" stop-color="#D72832"/>
</linearGradient>
<linearGradient id="paint39_linear_10_3529" x1="372.53" y1="111.446" x2="491.872" y2="-20.3233" gradientUnits="userSpaceOnUse">
<stop offset="0.00119874" stop-color="#ECB0B0"/>
<stop offset="1" stop-color="#D72832"/>
</linearGradient>
<clipPath id="clip0_10_3529">
<rect width="1366" height="280" fill="white"/>
</clipPath>
</defs>
</svg>
