<svg width="28" height="36" viewBox="0 0 28 36" fill="none" xmlns="http://www.w3.org/2000/svg">
<g clip-path="url(#clip0_10_5587)">
<path d="M26 11.9978V21.7078C26.0013 22.008 25.9433 22.3056 25.8293 22.5834C25.7153 22.8611 25.5476 23.1137 25.3357 23.3264C25.1239 23.5392 24.8721 23.7081 24.5948 23.8233C24.3176 23.9385 24.0203 23.9978 23.72 23.9978H14C13.3298 23.9952 12.661 23.9383 12 23.8278C9.74403 23.4464 7.6441 22.4281 5.94772 20.8928C4.25134 19.3576 3.02922 17.3693 2.42541 15.1625C1.82161 12.9556 1.86129 10.6221 2.53977 8.43708C3.21825 6.25203 4.50726 4.30648 6.25486 2.82976C8.00245 1.35305 10.1358 0.406708 12.4034 0.102298C14.671 -0.202112 16.9784 0.148093 19.0536 1.11164C21.1288 2.07518 22.8853 3.61189 24.116 5.54065C25.3467 7.46941 26.0004 9.70981 26 11.9978Z" fill="#0070B2"/>
<path opacity="0.2" d="M26 12V21.7C26.0013 22.0007 25.9434 22.2988 25.8295 22.5771C25.7157 22.8554 25.5481 23.1086 25.3364 23.3222C25.1246 23.5358 24.8729 23.7056 24.5956 23.8219C24.3183 23.9382 24.0207 23.9987 23.72 24H14C13.3294 23.9985 12.6601 23.9383 12 23.82C12.2769 22.367 12.7725 20.9644 13.47 19.66C13.7217 19.1983 13.9988 18.751 14.3 18.32C14.3994 18.3049 14.5006 18.3049 14.6 18.32C14.8023 18.3177 15.0015 18.3694 15.1772 18.4695C15.353 18.5697 15.4989 18.7148 15.6 18.89H16.33C16.7043 18.8848 17.0739 18.8059 17.4176 18.6578C17.7614 18.5098 18.0727 18.2954 18.3336 18.0271C18.5946 17.7587 18.8001 17.4415 18.9384 17.0937C19.0768 16.7459 19.1453 16.3743 19.14 16V13.87C20.1914 13.2774 21.3137 12.8205 22.48 12.51C23.6279 12.1957 24.8101 12.0244 26 12Z" fill="black"/>
<path d="M22.5699 13.1401V13.7101C22.5712 14.0104 22.5132 14.308 22.3993 14.5857C22.2853 14.8635 22.1175 15.116 21.9057 15.3288C21.6938 15.5416 21.442 15.7104 21.1648 15.8256C20.8875 15.9408 20.5902 16.0002 20.2899 16.0001C20.2899 17.061 19.8685 18.0784 19.1184 18.8286C18.3682 19.5787 17.3508 20.0001 16.2899 20.0001H15.5599C15.4452 20.2026 15.2714 20.365 15.0616 20.4657C14.8519 20.5665 14.6164 20.6006 14.3867 20.5636C14.1571 20.5266 13.9442 20.4202 13.7767 20.2587C13.6093 20.0972 13.4952 19.8883 13.4499 19.6601C13.4445 19.5836 13.4445 19.5067 13.4499 19.4301C13.4488 19.1783 13.5318 18.9333 13.6858 18.734C13.8398 18.5347 14.0559 18.3926 14.2999 18.3301C14.3994 18.3151 14.5005 18.3151 14.5999 18.3301C14.8022 18.3279 15.0014 18.3795 15.1772 18.4797C15.3529 18.5798 15.4988 18.725 15.5999 18.9001H16.3299C16.7055 18.8949 17.0764 18.8158 17.4214 18.6672C17.7664 18.5186 18.0788 18.3036 18.3406 18.0343C18.6025 17.765 18.8087 17.4467 18.9476 17.0977C19.0865 16.7487 19.1552 16.3757 19.1499 16.0001V9.71015C19.0915 8.38485 18.5239 7.13322 17.5654 6.21608C16.6069 5.29894 15.3315 4.78703 14.0049 4.78703C12.6783 4.78703 11.4029 5.29894 10.4444 6.21608C9.48597 7.13322 8.91837 8.38485 8.85993 9.71015V16.0001H7.71993C7.11431 16.0002 6.53335 15.7603 6.10418 15.333C5.67501 14.9057 5.43258 14.3258 5.42993 13.7201V13.1501C5.42993 12.5455 5.67015 11.9655 6.09773 11.5379C6.52531 11.1104 7.10524 10.8701 7.70993 10.8701V9.71015C7.7747 8.08664 8.4652 6.55118 9.63678 5.42541C10.8084 4.29964 12.3701 3.6709 13.9949 3.6709C15.6197 3.6709 17.1815 4.29964 18.3531 5.42541C19.5247 6.55118 20.2152 8.08664 20.2799 9.71015V10.8601C20.7745 10.8604 21.2556 11.0215 21.6507 11.3191C22.0457 11.6168 22.3333 12.0348 22.4699 12.5101C22.5333 12.7143 22.567 12.9264 22.5699 13.1401Z" fill="#9AC1FF"/>
</g>
<path d="M4.64184 33.08C6.26984 33.08 7.28984 31.952 7.28984 30.12C7.28984 28.268 6.24984 27.136 4.64184 27.136C3.02584 27.136 1.97384 28.272 1.97384 30.12C1.97384 31.96 3.00184 33.08 4.64184 33.08ZM4.64184 32.12C3.80184 32.12 3.25384 31.548 3.25384 30.136C3.25384 28.696 3.80184 28.096 4.64184 28.096C5.48184 28.096 6.02184 28.692 6.02184 30.136C6.02184 31.548 5.48584 32.12 4.64184 32.12ZM8.06641 33H9.23441V30.352C9.23441 29.948 9.62241 29.744 10.0064 29.744C10.3864 29.744 10.6944 29.968 10.6944 30.416V33H11.8624V30.272C11.8624 29.248 11.1704 28.828 10.4144 28.828C9.76241 28.828 9.40241 29.148 9.21441 29.448V28.864H8.06641V33ZM14.1286 33.072C14.2846 33.072 14.4566 33.028 14.6166 32.972V32.252L14.4206 32.24C14.0606 32.2 13.9526 32 13.9526 31.696V27.056H12.8086V31.84C12.8086 32.436 12.9046 33.072 14.1286 33.072ZM16.5383 27.22H15.4023V28.272H16.5383V27.22ZM16.5303 28.864H15.4143V33H16.5303V28.864ZM17.5586 33H18.7266V30.352C18.7266 29.948 19.1146 29.744 19.4986 29.744C19.8786 29.744 20.1866 29.968 20.1866 30.416V33H21.3546V30.272C21.3546 29.248 20.6626 28.828 19.9066 28.828C19.2546 28.828 18.8946 29.148 18.7066 29.448V28.864H17.5586V33ZM23.2888 31.2H26.0688V30.884C26.0688 29.644 25.4048 28.784 24.1408 28.784C22.8728 28.784 22.1328 29.736 22.1328 30.98C22.1328 32.264 22.9728 33.08 24.2008 33.08C25.0608 33.08 25.9248 32.572 26.0648 31.688H25.0128C24.8928 32.076 24.5728 32.236 24.1728 32.236C23.6128 32.236 23.2848 31.832 23.2888 31.2ZM23.2888 30.504C23.2848 30.048 23.6008 29.6 24.1368 29.6C24.7008 29.6 24.9768 30.004 24.9768 30.504H23.2888Z" fill="white"/>
<defs>
<clipPath id="clip0_10_5587">
<rect width="24" height="24" fill="white" transform="translate(2)"/>
</clipPath>
</defs>
</svg>
