<svg width="97" height="29" viewBox="0 0 97 29" fill="none" xmlns="http://www.w3.org/2000/svg">
<path d="M93.4074 29H3.59259C1.58074 29 0 27.405 0 25.375V3.625C0 1.595 1.58074 0 3.59259 0H93.4074C95.4193 0 97 1.595 97 3.625V25.375C97 27.405 95.4193 29 93.4074 29Z" fill="black"/>
<path d="M93.4074 0.58C95.06 0.58 96.4252 1.9575 96.4252 3.625V25.375C96.4252 27.0425 95.06 28.42 93.4074 28.42H3.59259C1.94 28.42 0.574815 27.0425 0.574815 25.375V3.625C0.574815 1.9575 1.94 0.58 3.59259 0.58H93.4074ZM93.4074 0H3.59259C1.58074 0 0 1.6675 0 3.625V25.375C0 27.405 1.58074 29 3.59259 29H93.4074C95.4193 29 97 27.405 97 25.375V3.625C97 1.6675 95.4193 0 93.4074 0Z" fill="#A6A6A6"/>
<path d="M34.0577 7.39494C34.0577 7.97494 33.914 8.48244 33.5547 8.84494C33.1236 9.27994 32.6207 9.49744 31.974 9.49744C31.3273 9.49744 30.8244 9.27994 30.3932 8.84494C29.9621 8.40994 29.7466 7.90244 29.7466 7.24994C29.7466 6.59744 29.9621 6.08994 30.3932 5.65494C30.8244 5.21994 31.3273 5.00244 31.974 5.00244C32.2614 5.00244 32.5488 5.07494 32.8362 5.21994C33.1236 5.36494 33.3392 5.50994 33.4829 5.72744L33.1236 6.08994C32.8362 5.72744 32.477 5.58244 31.974 5.58244C31.5429 5.58244 31.1118 5.72744 30.8244 6.08994C30.4651 6.37994 30.3214 6.81494 30.3214 7.32244C30.3214 7.82994 30.4651 8.26494 30.8244 8.55494C31.1836 8.84494 31.5429 9.06244 31.974 9.06244C32.477 9.06244 32.8362 8.91744 33.1955 8.55494C33.411 8.33744 33.5547 8.04744 33.5547 7.68494H31.974V7.10494H34.0577C34.0577 7.17744 34.0577 7.32244 34.0577 7.39494Z" fill="white" stroke="white" stroke-width="0.2" stroke-miterlimit="10"/>
<path d="M37.363 5.58221H35.423V6.95971H37.2193V7.46721H35.423V8.84471H37.363V9.42471H34.8481V5.07471H37.363V5.58221Z" fill="white" stroke="white" stroke-width="0.2" stroke-miterlimit="10"/>
<path d="M39.734 9.42471H39.1592V5.58221H37.9377V5.07471H40.9555V5.58221H39.734V9.42471Z" fill="white" stroke="white" stroke-width="0.2" stroke-miterlimit="10"/>
<path d="M43.0391 9.42471V5.07471H43.6139V9.42471H43.0391Z" fill="white" stroke="white" stroke-width="0.2" stroke-miterlimit="10"/>
<path d="M46.057 9.42471H45.4822V5.58221H44.2607V5.07471H47.2067V5.58221H45.9852V9.42471H46.057Z" fill="white" stroke="white" stroke-width="0.2" stroke-miterlimit="10"/>
<path d="M52.8829 8.84494C52.4517 9.27994 51.9488 9.49744 51.3021 9.49744C50.6554 9.49744 50.1525 9.27994 49.7214 8.84494C49.2903 8.40994 49.0747 7.90244 49.0747 7.24994C49.0747 6.59744 49.2903 6.08994 49.7214 5.65494C50.1525 5.21994 50.6554 5.00244 51.3021 5.00244C51.9488 5.00244 52.4517 5.21994 52.8829 5.65494C53.314 6.08994 53.5295 6.59744 53.5295 7.24994C53.5295 7.90244 53.314 8.40994 52.8829 8.84494ZM50.1525 8.48244C50.4399 8.77244 50.871 8.98994 51.3021 8.98994C51.7332 8.98994 52.1643 8.84494 52.4517 8.48244C52.7392 8.19244 52.9547 7.75744 52.9547 7.24994C52.9547 6.74244 52.811 6.30744 52.4517 6.01744C52.1643 5.72744 51.7332 5.50994 51.3021 5.50994C50.871 5.50994 50.4399 5.65494 50.1525 6.01744C49.8651 6.30744 49.6495 6.74244 49.6495 7.24994C49.6495 7.75744 49.7932 8.19244 50.1525 8.48244Z" fill="white" stroke="white" stroke-width="0.2" stroke-miterlimit="10"/>
<path d="M54.3198 9.42471V5.07471H54.9665L57.0502 8.48221V7.61221V5.07471H57.625V9.42471H57.0502L54.8228 5.87221V6.74221V9.42471H54.3198Z" fill="white" stroke="white" stroke-width="0.2" stroke-miterlimit="10"/>
<path d="M48.931 15.805C47.2066 15.805 45.8414 17.11 45.8414 18.9225C45.8414 20.6625 47.2066 22.04 48.931 22.04C50.6554 22.04 52.0206 20.735 52.0206 18.9225C52.0206 17.0375 50.6554 15.805 48.931 15.805ZM48.931 20.735C47.9969 20.735 47.2066 19.9375 47.2066 18.85C47.2066 17.7625 47.9969 16.965 48.931 16.965C49.8651 16.965 50.6555 17.69 50.6555 18.85C50.6555 19.9375 49.8651 20.735 48.931 20.735ZM42.2488 15.805C40.5243 15.805 39.1592 17.11 39.1592 18.9225C39.1592 20.6625 40.5243 22.04 42.2488 22.04C43.9732 22.04 45.3384 20.735 45.3384 18.9225C45.3384 17.0375 43.9732 15.805 42.2488 15.805ZM42.2488 20.735C41.3147 20.735 40.5243 19.9375 40.5243 18.85C40.5243 17.7625 41.3147 16.965 42.2488 16.965C43.1829 16.965 43.9732 17.69 43.9732 18.85C43.9732 19.9375 43.1829 20.735 42.2488 20.735ZM34.2732 16.7475V18.0525H37.3629C37.291 18.7775 37.0036 19.3575 36.6443 19.72C36.2132 20.155 35.4947 20.6625 34.2732 20.6625C32.3332 20.6625 30.8962 19.14 30.8962 17.1825C30.8962 15.225 32.4051 13.7025 34.2732 13.7025C35.2792 13.7025 36.0695 14.1375 36.6443 14.645L37.5784 13.7025C36.788 12.9775 35.7821 12.3975 34.3451 12.3975C31.7584 12.3975 29.531 14.5725 29.531 17.1825C29.531 19.7925 31.7584 21.9675 34.3451 21.9675C35.7821 21.9675 36.788 21.5325 37.6503 20.59C38.5125 19.72 38.7999 18.4875 38.7999 17.545C38.7999 17.255 38.7999 16.965 38.728 16.7475H34.2732ZM66.894 17.7625C66.6066 17.0375 65.888 15.805 64.3073 15.805C62.7266 15.805 61.4332 17.0375 61.4332 18.9225C61.4332 20.6625 62.7266 22.04 64.451 22.04C65.8162 22.04 66.6784 21.17 66.9658 20.6625L65.9599 19.9375C65.6006 20.445 65.1695 20.8075 64.451 20.8075C63.7325 20.8075 63.3014 20.5175 62.9421 19.865L67.0377 18.125L66.894 17.7625ZM62.7266 18.7775C62.7266 17.6175 63.6606 16.965 64.3073 16.965C64.8103 16.965 65.3132 17.255 65.4569 17.6175L62.7266 18.7775ZM59.3495 21.75H60.7147V12.6875H59.3495V21.75ZM57.194 16.4575C56.8347 16.095 56.2599 15.7325 55.5414 15.7325C54.0325 15.7325 52.5954 17.11 52.5954 18.85C52.5954 20.59 53.9606 21.895 55.5414 21.895C56.2599 21.895 56.8347 21.5325 57.1221 21.17H57.194V21.605C57.194 22.765 56.5473 23.4175 55.5414 23.4175C54.751 23.4175 54.1762 22.8375 54.0325 22.33L52.8829 22.8375C53.2421 23.635 54.1043 24.65 55.6132 24.65C57.194 24.65 58.4873 23.7075 58.4873 21.46V15.95H57.194V16.4575ZM55.6132 20.735C54.6792 20.735 53.8888 19.9375 53.8888 18.85C53.8888 17.7625 54.6792 16.965 55.6132 16.965C56.5473 16.965 57.2658 17.7625 57.2658 18.85C57.2658 19.9375 56.5473 20.735 55.6132 20.735ZM73.1451 12.6875H69.9117V21.75H71.2769V18.3425H73.1451C74.654 18.3425 76.091 17.255 76.091 15.515C76.091 13.775 74.654 12.6875 73.1451 12.6875ZM73.2169 17.0375H71.2769V13.92H73.2169C74.2229 13.92 74.7977 14.79 74.7977 15.4425C74.7258 16.24 74.151 17.0375 73.2169 17.0375ZM81.4799 15.7325C80.474 15.7325 79.468 16.1675 79.1088 17.11L80.3303 17.6175C80.6177 17.11 81.0488 16.965 81.5517 16.965C82.2703 16.965 82.9169 17.4 82.9888 18.125V18.1975C82.7732 18.0525 82.1984 17.835 81.6236 17.835C80.3303 17.835 79.0369 18.56 79.0369 19.865C79.0369 21.0975 80.1147 21.895 81.2643 21.895C82.1984 21.895 82.6295 21.46 82.9888 21.025H83.0606V21.75H84.354V18.27C84.2103 16.675 82.9888 15.7325 81.4799 15.7325ZM81.3362 20.735C80.9051 20.735 80.2584 20.5175 80.2584 19.9375C80.2584 19.2125 81.0488 18.995 81.6954 18.995C82.2703 18.995 82.5577 19.14 82.9169 19.285C82.7732 20.155 82.0547 20.735 81.3362 20.735ZM88.8806 15.95L87.3717 19.865H87.2999L85.7192 15.95H84.2821L86.6532 21.46L85.288 24.505H86.6532L90.3177 15.95H88.8806ZM76.8095 21.75H78.1747V12.6875H76.8095V21.75Z" fill="white"/>
<path d="M7.47271 5.4375C7.25715 5.655 7.1853 6.0175 7.1853 6.4525V22.475C7.1853 22.91 7.32901 23.2725 7.54456 23.49L7.61641 23.5625L16.526 14.5725V14.5V14.4275L7.47271 5.4375Z" fill="url(#paint0_linear_114_2520)"/>
<path d="M19.4 17.6176L16.4541 14.6451V14.5001V14.4276L19.4 11.4551L19.4719 11.5276L22.9926 13.5576C23.9985 14.1376 23.9985 15.0801 22.9926 15.6601L19.4 17.6176Z" fill="url(#paint1_linear_114_2520)"/>
<path d="M19.4719 17.545L16.4541 14.5L7.47266 23.5625C7.83192 23.925 8.33488 23.925 8.98155 23.635L19.4719 17.545Z" fill="url(#paint2_linear_114_2520)"/>
<path d="M19.4719 11.455L8.98155 5.43754C8.33488 5.07504 7.83192 5.14754 7.47266 5.51004L16.4541 14.5L19.4719 11.455Z" fill="url(#paint3_linear_114_2520)"/>
<path opacity="0.2" d="M19.4001 17.4727L8.98155 23.4177C8.40673 23.7802 7.90377 23.7077 7.54451 23.4177L7.47266 23.4902L7.54451 23.5627C7.90377 23.8527 8.40673 23.9252 8.98155 23.5627L19.4001 17.4727Z" fill="black"/>
<path opacity="0.12" d="M7.47271 23.4178C7.25715 23.2003 7.1853 22.8378 7.1853 22.4028V22.4753C7.1853 22.9103 7.32901 23.2728 7.54456 23.4903V23.4178H7.47271Z" fill="black"/>
<path opacity="0.12" d="M22.9927 15.4425L19.4001 17.4725L19.472 17.545L22.9927 15.515C23.4957 15.225 23.7113 14.8625 23.7113 14.5C23.7113 14.8625 23.4239 15.1525 22.9927 15.4425Z" fill="black"/>
<path opacity="0.25" d="M8.9816 5.50993L22.9927 13.5574C23.4238 13.8474 23.7112 14.1374 23.7112 14.4999C23.7112 14.1374 23.4957 13.7749 22.9927 13.4849L8.9816 5.43743C7.97567 4.85743 7.1853 5.29243 7.1853 6.45243V6.52493C7.1853 5.43743 7.97567 4.92993 8.9816 5.50993Z" fill="white"/>
<defs>
<linearGradient id="paint0_linear_114_2520" x1="15.6635" y1="6.3146" x2="3.49679" y2="18.3726" gradientUnits="userSpaceOnUse">
<stop stop-color="#00A0FF"/>
<stop offset="0.00657445" stop-color="#00A1FF"/>
<stop offset="0.2601" stop-color="#00BEFF"/>
<stop offset="0.5122" stop-color="#00D2FF"/>
<stop offset="0.7604" stop-color="#00DFFF"/>
<stop offset="1" stop-color="#00E3FF"/>
</linearGradient>
<linearGradient id="paint1_linear_114_2520" x1="24.3106" y1="14.5012" x2="6.92468" y2="14.5012" gradientUnits="userSpaceOnUse">
<stop stop-color="#FFE000"/>
<stop offset="0.4087" stop-color="#FFBD00"/>
<stop offset="0.7754" stop-color="#FFA500"/>
<stop offset="1" stop-color="#FF9C00"/>
</linearGradient>
<linearGradient id="paint2_linear_114_2520" x1="17.8387" y1="16.1647" x2="1.33955" y2="32.5163" gradientUnits="userSpaceOnUse">
<stop stop-color="#FF3A44"/>
<stop offset="1" stop-color="#C31162"/>
</linearGradient>
<linearGradient id="paint3_linear_114_2520" x1="5.24324" y1="0.127862" x2="12.6108" y2="7.42951" gradientUnits="userSpaceOnUse">
<stop stop-color="#32A071"/>
<stop offset="0.0685" stop-color="#2DA771"/>
<stop offset="0.4762" stop-color="#15CF74"/>
<stop offset="0.8009" stop-color="#06E775"/>
<stop offset="1" stop-color="#00F076"/>
</linearGradient>
</defs>
</svg>
