<svg width="48" height="48" viewBox="0 0 48 48" fill="none" xmlns="http://www.w3.org/2000/svg">
<circle cx="24" cy="24" r="24" fill="#1F93FF"/>
<path d="M36 25.4417V26.2508C36.0018 26.677 35.9206 27.0994 35.761 27.4937C35.6014 27.8881 35.3665 28.2465 35.0699 28.5486C34.7732 28.8506 34.4207 29.0903 34.0324 29.2538C33.6442 29.4173 33.2279 29.5015 32.8074 29.5015C32.8074 31.0074 32.2173 32.4517 31.167 33.5165C30.1166 34.5813 28.692 35.1796 27.2065 35.1796H26.1843C26.0237 35.4669 25.7803 35.6975 25.4866 35.8405C25.193 35.9835 24.8632 36.0319 24.5416 35.9794C24.22 35.9269 23.9219 35.7758 23.6875 35.5466C23.453 35.3173 23.2933 35.0208 23.2299 34.6969C23.2223 34.5882 23.2223 34.4791 23.2299 34.3704C23.2282 34.0129 23.3444 33.6651 23.5601 33.3822C23.7757 33.0993 24.0784 32.8976 24.4201 32.809C24.5593 32.7876 24.7009 32.7876 24.8401 32.809C25.1233 32.8058 25.4023 32.879 25.6484 33.0212C25.8944 33.1634 26.0988 33.3694 26.2404 33.6181H27.2625C27.7884 33.6107 28.3078 33.4983 28.7908 33.2874C29.2739 33.0765 29.7113 32.7712 30.078 32.389C30.4446 32.0067 30.7334 31.555 30.9279 31.0595C31.1223 30.5641 31.2186 30.0347 31.2112 29.5015V20.5728C31.1293 18.6915 30.3346 16.9148 28.9925 15.6129C27.6504 14.311 25.8645 13.5844 24.007 13.5844C22.1495 13.5844 20.3636 14.311 19.0215 15.6129C17.6794 16.9148 16.8846 18.6915 16.8028 20.5728V29.5015H15.2065C14.3585 29.5015 13.545 29.161 12.9441 28.5544C12.3432 27.9479 12.0037 27.1247 12 26.265V25.4559C12 24.5975 12.3364 23.7743 12.9351 23.1674C13.5338 22.5604 14.3458 22.2194 15.1925 22.2194V20.5728C15.2832 18.2682 16.2501 16.0886 17.8906 14.4905C19.5311 12.8925 21.7179 12 23.993 12C26.2681 12 28.4549 12.8925 30.0954 14.4905C31.7359 16.0886 32.7027 18.2682 32.7934 20.5728V22.2052C33.486 22.2056 34.1597 22.4343 34.7128 22.8568C35.266 23.2793 35.6686 23.8727 35.8599 24.5474C35.9487 24.8372 35.9958 25.1384 36 25.4417Z" fill="white"/>
</svg>
