<svg width="200" height="200" viewBox="0 0 200 200" fill="none" xmlns="http://www.w3.org/2000/svg">
<path d="M135.356 21.8784H64.2965C40.9015 21.8784 21.9355 40.8444 21.9355 64.2394V135.298C21.9355 158.693 40.9015 177.659 64.2965 177.659H135.356C158.751 177.659 177.717 158.693 177.717 135.298V64.2394C177.717 40.8444 158.752 21.8784 135.356 21.8784Z" fill="#637277"/>
<path d="M167.097 172.128C165.885 172.781 164.535 173.32 163.705 174.417C162.875 175.515 162.921 177.418 164.18 177.973C164.691 178.198 165.276 178.152 165.832 178.098C167.033 177.981 168.231 177.846 169.428 177.692C171.999 177.363 174.65 176.917 176.809 175.484C178.969 174.051 180.507 171.368 179.836 168.865C179.46 167.463 178.402 166.261 177.06 165.71C172.736 163.934 170.482 170.305 167.097 172.128Z" fill="#637277"/>
<path d="M26.1377 36.7131C26.9027 35.6431 27.6297 34.4941 28.4637 33.6431C30.3367 31.7321 32.6237 30.5291 34.4537 28.5801C35.5857 27.3741 36.5807 24.6721 34.3327 23.8551C32.5637 23.2121 30.5017 24.6511 28.9777 25.1951C26.7847 25.9781 24.6407 26.9271 22.6887 28.3221C20.9407 29.5711 19.0097 31.4561 19.7497 35.0621C20.3007 37.7501 22.1717 40.2631 23.8887 39.1291C24.7367 38.5691 25.4517 37.6731 26.1377 36.7131Z" fill="#637277"/>
<g style="mix-blend-mode:multiply" opacity="0.2">
<path d="M177.717 105.37V64.2394C177.717 40.8444 158.751 21.8784 135.356 21.8784H113.715C110.711 29.0694 109.051 36.9614 109.051 45.2414C109.051 78.7404 136.207 105.896 169.706 105.896C172.422 105.896 175.096 105.716 177.717 105.37Z" fill="#034D7F"/>
</g>
<g style="mix-blend-mode:multiply" opacity="0.2">
<path d="M135.356 21.8784H74.0669C77.4339 37.9154 91.6589 49.9584 108.697 49.9584C125.48 49.9584 139.533 38.2754 143.169 22.5984C140.636 22.1264 138.025 21.8784 135.356 21.8784Z" fill="#034D7F"/>
</g>
<path opacity="0.2" d="M51.9466 93.8438C53.9436 93.8438 55.5626 92.2249 55.5626 90.2278C55.5626 88.2308 53.9436 86.6118 51.9466 86.6118C49.9495 86.6118 48.3306 88.2308 48.3306 90.2278C48.3306 92.2249 49.9495 93.8438 51.9466 93.8438Z" fill="#034D7F"/>
<path d="M52.6697 91.1167C54.6772 91.1167 56.3046 89.4892 56.3046 87.4817C56.3046 85.4741 54.6772 83.8467 52.6697 83.8467C50.6621 83.8467 49.0347 85.4741 49.0347 87.4817C49.0347 89.4892 50.6621 91.1167 52.6697 91.1167Z" fill="white"/>
<path opacity="0.2" d="M50.3988 24.2109C35.2037 29.4859 23.9417 43.1689 22.1777 59.6909C26.3777 67.0959 34.3307 72.0939 43.4527 72.0939C56.9518 72.0939 67.8958 61.1509 67.8958 47.6509C67.8958 36.5649 60.5148 27.2039 50.3988 24.2109Z" fill="#034D7F"/>
<path d="M45.1317 67.3859C57.7039 67.3859 67.8957 57.1941 67.8957 44.6219C67.8957 32.0497 57.7039 21.8579 45.1317 21.8579C32.5595 21.8579 22.3677 32.0497 22.3677 44.6219C22.3677 57.1941 32.5595 67.3859 45.1317 67.3859Z" fill="white"/>
<path d="M30.5879 44.6221C30.5879 42.6031 31.9529 41.1841 33.8629 41.1841C35.7719 41.1841 37.0819 42.6031 37.0819 44.6221C37.0819 46.5871 35.8269 48.0601 33.8069 48.0601C31.8989 48.0601 30.5879 46.5871 30.5879 44.6221Z" fill="#363C3E"/>
<path d="M41.8848 44.6221C41.8848 42.6031 43.2498 41.1841 45.1598 41.1841C47.0688 41.1841 48.3788 42.6031 48.3788 44.6221C48.3788 46.5871 47.1238 48.0601 45.1038 48.0601C43.1958 48.0601 41.8848 46.5871 41.8848 44.6221Z" fill="#363C3E"/>
<path d="M53.1807 44.6221C53.1807 42.6031 54.5457 41.1841 56.4557 41.1841C58.3647 41.1841 59.6747 42.6031 59.6747 44.6221C59.6747 46.5871 58.4197 48.0601 56.3997 48.0601C54.4917 48.0601 53.1807 46.5871 53.1807 44.6221Z" fill="#363C3E"/>
<path opacity="0.2" d="M39.2245 85.1849C42.1334 85.1849 44.4915 82.859 44.4915 79.9899C44.4915 77.1208 42.1334 74.7949 39.2245 74.7949C36.3156 74.7949 33.9575 77.1208 33.9575 79.9899C33.9575 82.859 36.3156 85.1849 39.2245 85.1849Z" fill="#034D7F"/>
<path d="M41.1676 82.5431C43.8274 82.5431 45.9836 80.3869 45.9836 77.7271C45.9836 75.0673 43.8274 72.9111 41.1676 72.9111C38.5078 72.9111 36.3516 75.0673 36.3516 77.7271C36.3516 80.3869 38.5078 82.5431 41.1676 82.5431Z" fill="white"/>
<g style="mix-blend-mode:multiply" opacity="0.2">
<path d="M112.113 153.523C112.666 151.803 112.943 149.948 112.452 148.192C112.033 146.693 111.083 145.44 109.892 144.525L108.028 136.971C107.553 135.046 106.138 133.588 104.392 132.963L103.831 130.688C103.774 130.459 103.693 130.242 103.592 130.039C115.161 125.258 121.812 112.613 118.721 100.09C118.676 99.9091 118.629 99.7291 118.58 99.5501C118.484 99.0181 118.372 98.4861 118.241 97.9551C114.834 84.1531 100.884 75.7251 87.081 79.1321C78.184 81.3281 71.522 87.9051 68.822 95.9991C57.418 91.0861 44.198 94.8771 30.08 103.458C30.08 103.458 30.079 103.459 30.078 103.459C29.144 104.027 28.206 104.616 27.264 105.224C27.225 105.249 27.186 105.275 27.147 105.3C26.25 105.881 25.35 106.48 24.447 107.095C24.366 107.15 24.286 107.205 24.205 107.261C23.451 107.777 22.694 108.306 21.936 108.846V135.299C21.936 157.915 39.659 176.391 61.974 177.597C66.707 173.001 70.991 168.313 74.693 163.585C74.897 163.757 75.115 163.926 75.347 164.089C83.464 169.799 94.969 169.817 103.174 164.734C104.229 167.305 107.054 168.798 109.828 168.113C112.879 167.36 114.759 164.248 114.006 161.197L112.113 153.523ZM89.924 148.015C87.91 148.983 85.807 149.361 83.719 149.733C86.849 143.652 88.823 137.584 89.37 131.632C92.05 132.094 94.838 132.135 97.645 131.7C97.659 131.864 97.685 132.029 97.726 132.194L98.287 134.469C97.033 135.835 96.458 137.784 96.934 139.709L97.954 143.842C95.156 144.918 92.642 146.708 89.924 148.015Z" fill="#034D7F"/>
</g>
<path d="M80.044 144.78C82.676 144.24 85.412 144.073 87.986 142.939C91.187 141.529 94.077 139.449 97.61 138.838C99.704 138.476 101.897 138.308 103.966 138.914C106.035 139.52 107.968 141.028 108.597 143.087C109.138 144.859 108.661 146.75 107.95 148.419C102.928 160.216 85.488 163.391 74.6499 156.407C70.5259 153.75 71.1929 149.551 74.7099 146.957C76.3749 145.73 78.184 145.162 80.044 144.78Z" fill="#034D7F"/>
<path d="M80.044 144.78C82.676 144.24 85.412 144.073 87.986 142.939C91.187 141.529 94.077 139.449 97.61 138.838C99.704 138.476 101.897 138.308 103.966 138.914C106.035 139.52 107.968 141.028 108.597 143.087C109.138 144.859 108.661 146.75 107.95 148.419C102.928 160.216 85.488 163.391 74.6499 156.407C70.5259 153.75 71.1929 149.551 74.7099 146.957C76.3749 145.73 78.184 145.162 80.044 144.78Z" fill="url(#paint0_radial_10_6309)"/>
<path d="M73.9162 147.615C74.0052 147.669 74.0942 147.723 74.1852 147.778C74.3152 147.862 74.4572 147.933 74.5972 148.013C74.7382 148.091 74.8812 148.171 75.0272 148.252C75.1722 148.334 75.3202 148.416 75.4692 148.501C75.5442 148.543 75.6182 148.587 75.6952 148.628C75.7732 148.667 75.8512 148.707 75.9302 148.747C76.2442 148.909 76.5682 149.076 76.8992 149.247C78.2382 149.903 79.7282 150.571 81.3252 151.188C82.9282 151.79 84.4842 152.283 85.9212 152.684C86.2822 152.777 86.6352 152.868 86.9772 152.956C87.0632 152.979 87.1482 153.001 87.2322 153.024C87.3172 153.045 87.4022 153.061 87.4852 153.08C87.6532 153.117 87.8182 153.153 87.9812 153.189C88.1442 153.225 88.3042 153.261 88.4612 153.297C88.6182 153.331 88.7722 153.372 88.9252 153.396C89.2302 153.452 89.5232 153.506 89.8032 153.558C90.3632 153.676 90.8752 153.733 91.3262 153.806C91.5512 153.839 91.7622 153.876 91.9562 153.902C92.1502 153.924 92.3282 153.944 92.4882 153.962C93.1292 154.036 93.4872 154.085 93.4872 154.085C93.4872 154.085 93.1342 154.137 92.4882 154.216C92.3262 154.235 92.1462 154.256 91.9492 154.279C91.7522 154.297 91.5372 154.306 91.3062 154.32C90.8442 154.342 90.3152 154.385 89.7312 154.368C89.4382 154.364 89.1322 154.359 88.8122 154.355C88.6522 154.356 88.4902 154.338 88.3242 154.328C88.1582 154.316 87.9892 154.303 87.8182 154.29C87.6462 154.276 87.4712 154.262 87.2932 154.248C87.2042 154.24 87.1142 154.235 87.0242 154.224C86.9342 154.212 86.8442 154.2 86.7532 154.187C86.3892 154.135 86.0142 154.082 85.6292 154.027C84.0982 153.762 82.4302 153.343 80.7462 152.71C79.0672 152.062 77.5432 151.265 76.2242 150.444C75.9002 150.229 75.5852 150.019 75.2792 149.815C75.2032 149.764 75.1272 149.713 75.0522 149.662C74.9782 149.61 74.9072 149.554 74.8352 149.501C74.6932 149.393 74.5532 149.287 74.4152 149.183C74.2782 149.078 74.1442 148.975 74.0122 148.874C73.8812 148.771 73.7492 148.677 73.6302 148.57C73.5122 148.468 73.3972 148.368 73.2842 148.27C73.4792 148.045 73.6892 147.826 73.9162 147.615Z" fill="#289CD8"/>
<path d="M93.2403 146.416C93.8363 146.329 94.1713 146.288 94.1713 146.288C94.1713 146.288 93.8673 146.426 93.3073 146.662C93.1663 146.72 93.0103 146.786 92.8393 146.857C92.6663 146.924 92.4763 146.986 92.2723 147.058C91.8633 147.195 91.3973 147.369 90.8683 147.501C90.6043 147.571 90.3273 147.645 90.0383 147.721C89.8943 147.762 89.7443 147.787 89.5923 147.82C89.4403 147.851 89.2853 147.882 89.1273 147.913C88.9693 147.944 88.8083 147.975 88.6443 148.007C88.5623 148.022 88.4803 148.04 88.3963 148.053C88.3123 148.065 88.2283 148.076 88.1433 148.088C87.8023 148.133 87.4513 148.179 87.0913 148.226C85.6463 148.37 84.0393 148.408 82.3643 148.251C80.6913 148.08 79.1213 147.732 77.7313 147.31C77.3873 147.194 77.0513 147.081 76.7253 146.971C76.6443 146.943 76.5633 146.915 76.4833 146.888C76.4043 146.859 76.3263 146.826 76.2493 146.795C76.0953 146.732 75.9433 146.67 75.7943 146.609C75.6763 146.56 75.5613 146.512 75.4463 146.465C75.9113 146.179 76.3873 145.937 76.8703 145.73C76.9383 145.744 77.0053 145.757 77.0743 145.771C77.3963 145.839 77.7283 145.908 78.0683 145.979C79.4343 146.237 80.9353 146.468 82.5223 146.631C84.1103 146.779 85.6283 146.842 87.0183 146.854C87.3663 146.85 87.7053 146.846 88.0343 146.842C88.1173 146.842 88.1993 146.841 88.2803 146.841C88.3613 146.839 88.4423 146.833 88.5223 146.83C88.6823 146.822 88.8403 146.815 88.9943 146.808C89.1493 146.801 89.3023 146.795 89.4523 146.789C89.6023 146.782 89.7503 146.782 89.8943 146.766C90.1833 146.743 90.4603 146.721 90.7243 146.699C91.2573 146.67 91.7323 146.598 92.1563 146.555C92.3673 146.531 92.5663 146.514 92.7473 146.49C92.9263 146.464 93.0913 146.439 93.2403 146.416Z" fill="#289CD8"/>
<path opacity="0.2" d="M86.5108 160.042C88.2458 156.866 89.2638 153.005 89.2638 148.84C89.2638 146.698 88.9938 144.637 88.4968 142.708C88.3278 142.787 88.1578 142.864 87.9868 142.94C85.4118 144.074 82.6768 144.241 80.0438 144.781C78.1838 145.163 76.3748 145.731 74.7108 146.958C71.1928 149.553 70.5268 153.751 74.6508 156.408C78.1328 158.651 82.2958 159.845 86.5108 160.042Z" fill="#034D7F"/>
<path d="M85.849 131.352C100.066 131.352 111.591 119.827 111.591 105.61C111.591 91.3932 100.066 79.8682 85.849 79.8682C71.632 79.8682 60.1069 91.3932 60.1069 105.61C60.1069 119.827 71.632 131.352 85.849 131.352Z" fill="#363C3E"/>
<path d="M85.369 129.216C99.5859 129.216 111.111 117.691 111.111 103.474C111.111 89.257 99.5859 77.7319 85.369 77.7319C71.152 77.7319 59.627 89.257 59.627 103.474C59.627 117.691 71.152 129.216 85.369 129.216Z" fill="#414142"/>
<path d="M85.3688 124.417C96.9353 124.417 106.312 115.041 106.312 103.474C106.312 91.9078 96.9353 82.5312 85.3688 82.5312C73.8023 82.5312 64.4258 91.9078 64.4258 103.474C64.4258 115.041 73.8023 124.417 85.3688 124.417Z" fill="#363C3E"/>
<path d="M105.702 98.4556C105.358 97.0606 104.881 95.7336 104.289 94.4846C98.2239 85.5746 85.5579 82.8286 75.6689 88.3906C66.1709 93.7336 62.6279 104.835 67.1999 113.901C71.7309 121.806 81.0999 126.099 90.3869 123.807C101.617 121.035 108.473 109.685 105.702 98.4556Z" fill="#A8DFF4"/>
<path d="M97.7628 137.387L91.6588 138.894L89.8448 131.546C89.4288 129.86 90.4578 128.157 92.1438 127.741C93.8298 127.325 95.5328 128.354 95.9488 130.04L97.7628 137.387Z" fill="#363C3E"/>
<path d="M101.948 167.462C98.8968 168.215 95.7848 166.335 95.0318 163.284L89.0528 139.06C88.2998 136.009 90.1798 132.897 93.2308 132.144C96.2818 131.391 99.3938 133.271 100.147 136.322L106.126 160.546C106.879 163.597 104.999 166.709 101.948 167.462Z" fill="#414142"/>
<path d="M75.233 98.1556C71.528 99.0696 68.211 100.745 65.406 102.972C64.885 106.62 65.441 110.411 67.201 113.9C71.732 121.805 81.101 126.098 90.388 123.806C96.955 122.185 102.026 117.629 104.551 111.88C99.3581 101.186 87.24 95.1926 75.233 98.1556Z" fill="#81D0F3"/>
<path d="M52.406 175.966C52.927 175.562 53.45 175.157 53.974 174.748L54.28 174.509C75.347 157.993 89.801 139.498 87.355 122.631C87.347 122.635 87.34 122.639 87.332 122.643C87.342 122.638 87.351 122.633 87.361 122.627C87.25 121.86 87.1 121.096 86.916 120.336C86.909 120.306 86.9 120.276 86.893 120.245C86.707 119.491 86.489 118.74 86.233 117.993V117.992C85.233 115.074 83.697 112.214 81.527 109.438C68.83 93.2003 51.889 95.2153 33.235 105.6L33.234 105.601C32.38 106.077 31.521 106.571 30.66 107.08C30.624 107.101 30.589 107.122 30.553 107.143C29.733 107.63 28.909 108.132 28.083 108.647C28.009 108.693 27.935 108.739 27.861 108.786C27.076 109.278 26.289 109.783 25.5 110.3C25.39 110.372 25.281 110.443 25.172 110.515C24.425 111.007 23.675 111.511 22.924 112.023C22.775 112.125 22.626 112.225 22.476 112.328C22.297 112.451 22.116 112.58 21.937 112.705V135.299C21.936 154.565 34.799 170.827 52.406 175.966Z" fill="#289CD8"/>
<path d="M52.406 175.966C52.927 175.562 53.45 175.157 53.974 174.748L54.28 174.509C75.347 157.993 89.801 139.498 87.355 122.631C87.347 122.635 87.34 122.639 87.332 122.643C87.342 122.638 87.351 122.633 87.361 122.627C87.25 121.86 87.1 121.096 86.916 120.336C86.909 120.306 86.9 120.276 86.893 120.245C86.707 119.491 86.489 118.74 86.233 117.993V117.992C85.233 115.074 83.697 112.214 81.527 109.438C68.83 93.2003 51.889 95.2153 33.235 105.6L33.234 105.601C32.38 106.077 31.521 106.571 30.66 107.08C30.624 107.101 30.589 107.122 30.553 107.143C29.733 107.63 28.909 108.132 28.083 108.647C28.009 108.693 27.935 108.739 27.861 108.786C27.076 109.278 26.289 109.783 25.5 110.3C25.39 110.372 25.281 110.443 25.172 110.515C24.425 111.007 23.675 111.511 22.924 112.023C22.775 112.125 22.626 112.225 22.476 112.328C22.297 112.451 22.116 112.58 21.937 112.705V135.299C21.936 154.565 34.799 170.827 52.406 175.966Z" fill="url(#paint1_linear_10_6309)"/>
<path opacity="0.4" d="M36.647 161.745C46.346 153.348 32.863 141.168 21.937 134.965V135.298C21.937 146.309 26.139 156.339 33.026 163.872C34.302 163.418 35.518 162.722 36.647 161.745Z" fill="#034D7F"/>
<path d="M73.99 106.219C73.755 105.998 73.427 105.904 73.111 105.966L65.2109 107.526C64.6689 107.633 64.3169 108.159 64.4239 108.701C64.5309 109.243 65.0569 109.595 65.5989 109.488L72.126 108.199L71.255 114.611C71.181 115.158 71.564 115.662 72.111 115.736C72.157 115.742 72.202 115.745 72.247 115.745C72.739 115.745 73.168 115.381 73.237 114.879L74.296 107.08C74.339 106.762 74.225 106.441 73.99 106.219Z" fill="#363C3E"/>
<path d="M83.2598 119.406C83.2598 121.772 85.1438 123.697 87.4928 123.767C87.4548 123.388 87.4088 123.009 87.3538 122.632C87.3458 122.636 87.3388 122.64 87.3308 122.644C87.3408 122.639 87.3498 122.634 87.3598 122.628C87.2488 121.861 87.0988 121.097 86.9148 120.337C86.9078 120.307 86.8988 120.277 86.8918 120.246C86.7058 119.492 86.4878 118.741 86.2318 117.994V117.993C85.9678 117.223 85.6658 116.458 85.3258 115.697C84.0858 116.467 83.2598 117.84 83.2598 119.406Z" fill="#363C3E"/>
<path d="M34.3449 160.257C50.2019 155.24 28.4789 129.613 21.2959 125.936C13.2739 121.83 8.19291 128.259 9.08391 136.165C10.2469 146.48 22.0809 164.138 34.3449 160.257Z" fill="#034D7F"/>
<path d="M34.3449 160.257C50.2019 155.24 28.4789 129.613 21.2959 125.936C13.2739 121.83 8.19291 128.259 9.08391 136.165C10.2469 146.48 22.0809 164.138 34.3449 160.257Z" fill="url(#paint2_radial_10_6309)"/>
<path d="M36.0407 151.409C32.1087 150.364 28.7557 148.783 26.4617 147.456C24.1607 146.129 22.8687 145.114 22.8687 145.114C22.8687 145.114 24.4157 145.619 26.9127 146.435C29.3987 147.236 32.8207 148.243 36.6117 149.251C37.6397 149.522 38.6407 149.778 39.6097 150.02C39.7897 150.775 39.9167 151.513 39.9707 152.224C38.7087 152.027 37.3917 151.765 36.0407 151.409Z" fill="#289CD8"/>
<path d="M35.3767 144.9C31.4487 142.75 28.3147 140.18 26.1817 138.218C24.0477 136.247 22.8647 134.89 22.8647 134.89C22.8647 134.89 24.3907 135.822 26.8547 137.327C29.3047 138.83 32.6687 140.873 36.4437 142.939C36.5427 142.993 36.6397 143.044 36.7397 143.097C37.3527 144.189 37.9007 145.279 38.3667 146.357C37.3807 145.931 36.3787 145.447 35.3767 144.9Z" fill="#289CD8"/>
<defs>
<radialGradient id="paint0_radial_10_6309" cx="0" cy="0" r="1" gradientUnits="userSpaceOnUse" gradientTransform="translate(108.904 136.284) rotate(-146.593) scale(28.6789)">
<stop stop-color="#1D76BB" stop-opacity="0.97"/>
<stop offset="1" stop-color="#2584C6" stop-opacity="0"/>
</radialGradient>
<linearGradient id="paint1_linear_10_6309" x1="52.4785" y1="119.03" x2="56.221" y2="139.444" gradientUnits="userSpaceOnUse">
<stop stop-color="#2584C6" stop-opacity="0"/>
<stop offset="1" stop-color="#1D76BB" stop-opacity="0.97"/>
</linearGradient>
<radialGradient id="paint2_radial_10_6309" cx="0" cy="0" r="1" gradientUnits="userSpaceOnUse" gradientTransform="translate(11.5503 122.304) rotate(180) scale(39.6845)">
<stop stop-color="#1D76BB" stop-opacity="0.97"/>
<stop offset="1" stop-color="#2584C6" stop-opacity="0"/>
</radialGradient>
</defs>
</svg>
