<svg width="117" height="34" viewBox="0 0 117 34" fill="none" xmlns="http://www.w3.org/2000/svg">
<path d="M32.6481 13.1192C32.5229 12.8588 32.3576 12.6202 32.1584 12.4125L32.1131 12.3524C29.1506 8.75188 22.1678 8.06463 17.8756 8.00456C17.6438 3.31748 16.7324 1.02783 15.1083 1.02783C11.555 1.02783 9.58231 3.54892 9.2303 8.52574C8.65871 8.62998 8.10628 8.75365 7.57477 8.90205C6.63636 9.15296 5.73207 9.52026 4.88237 9.99564L4.69068 10.1069L4.61052 10.1564C2.53501 11.4355 1.1862 13.4619 1.02761 16.6632C1.02761 16.6915 1.02761 16.7197 1.02761 16.748C1.02761 16.9247 1.01367 17.119 1.01367 17.3116C1.01367 22.988 4.49899 25.2264 9.23378 26.0921C9.58232 31.0689 11.5585 33.59 15.1118 33.59C16.7359 33.59 17.6456 31.2933 17.8791 26.6151H18.0708H18.1405C22.9502 26.555 26.8242 26.0126 29.5201 24.0569L29.602 23.9986C29.6804 23.9403 29.7571 23.8802 29.8355 23.8219C30.6344 23.1924 31.315 22.4222 31.8448 21.5481L32.6063 20.0217C32.6725 19.8574 32.7335 19.6878 32.7928 19.5147C32.7921 19.5094 32.7921 19.504 32.7928 19.4988C32.8015 19.4705 32.8137 19.4422 32.8224 19.414C32.8921 19.2196 32.9496 19.0147 32.9967 18.8451L33.2476 17.7851C33.272 17.6649 33.2999 17.5466 33.3208 17.4211C33.624 15.8116 33.3922 14.37 32.6481 13.1192Z" fill="white"/>
<path d="M9.79495 10.6404C9.79495 10.5079 9.78101 10.3789 9.78101 10.2411C9.78101 5.04168 11.2187 1.65137 15.1083 1.65137C17.0793 1.65137 17.3267 7.48151 17.3267 10.6404H9.79495Z" fill="#034D7F"/>
<path d="M9.79495 23.9824C9.79495 24.1132 9.78101 24.2439 9.78101 24.3817C9.78101 29.5811 11.2187 32.9714 15.1083 32.9714C17.0793 32.9714 17.3267 27.1413 17.3267 23.9824H9.79495Z" fill="#034D7F"/>
<path d="M1.62036 17.3117C1.62036 9.5382 8.59099 8.62305 17.1788 8.62305H17.2764C25.8346 8.63718 33.8857 10.8968 32.7355 17.3117C31.4198 24.6471 25.8102 25.988 17.2764 25.9986H17.1788C8.58576 25.9986 1.62036 25.087 1.62036 17.31V17.3117Z" fill="#0472B3"/>
<path d="M30.7992 18.741C30.7665 18.7072 30.7406 18.6673 30.7232 18.6234C30.7057 18.5795 30.6969 18.5326 30.6973 18.4852C30.6977 18.4379 30.7073 18.3911 30.7255 18.3476C30.7438 18.304 30.7703 18.2645 30.8036 18.2313C30.8369 18.1981 30.8763 18.1719 30.9196 18.1542C30.9629 18.1365 31.0092 18.1275 31.0559 18.1279C31.1025 18.1284 31.1487 18.1381 31.1917 18.1566C31.2346 18.1751 31.2736 18.202 31.3063 18.2357C31.4519 18.3709 31.6269 18.4693 31.817 18.5231C32.0072 18.5768 32.2072 18.5843 32.4007 18.5449L32.46 18.5343C32.3972 18.7534 32.3206 19.0466 32.2282 19.2869H32.1533C31.9031 19.2915 31.6546 19.2456 31.4221 19.1519C31.1897 19.0582 30.9779 18.9185 30.7992 18.741Z" fill="#030303"/>
<path d="M19.9163 15.1846C20.5663 14.5486 22.9694 15.8294 23.6368 16.2057C23.5271 16.4725 23.5271 18.1491 23.6368 18.4177C22.9694 18.7922 20.6029 20.0324 19.9163 19.4388C19.1025 18.7339 19.1025 15.9831 19.9163 15.1846Z" fill="#034D7F"/>
<g style="mix-blend-mode:multiply" opacity="0.27">
<path d="M11.3302 22.4242C6.327 19.4208 6.79926 13.3699 9.84194 9.05908C4.94856 9.83997 1.62183 11.9353 1.62183 17.3114C1.62183 25.0849 8.59245 26 17.1803 26H17.2779C23.6455 26 28.3838 25.2421 30.9263 21.8147C30.9612 21.767 30.996 21.7193 31.0292 21.6698C31.0623 21.6204 31.0954 21.5744 31.1267 21.5267C25.3673 24.6344 17.2465 25.9771 11.3302 22.4242Z" fill="#8D8B8B"/>
</g>
<path d="M28.7339 14.331C28.7339 14.6295 28.8212 14.9213 28.9848 15.1694C29.1484 15.4176 29.381 15.611 29.653 15.7251C29.925 15.8393 30.2244 15.869 30.5131 15.8107C30.8018 15.7523 31.067 15.6084 31.2751 15.3973C31.4831 15.1861 31.6247 14.9171 31.682 14.6243C31.7392 14.3315 31.7095 14.0281 31.5966 13.7524C31.4837 13.4768 31.2926 13.2413 31.0477 13.0757C30.8027 12.9101 30.5148 12.8219 30.2204 12.8223C29.826 12.8227 29.4479 12.9819 29.1692 13.2648C28.8904 13.5477 28.7339 13.9312 28.7339 14.331Z" fill="#030303"/>
<path d="M30.6632 14.9426C30.4036 14.9438 30.1529 14.847 29.9598 14.671C29.7667 14.4951 29.645 14.2527 29.6185 13.9909C29.592 13.7291 29.6625 13.4666 29.8163 13.2546C29.9701 13.0425 30.1962 12.8961 30.4506 12.8438C30.7594 12.8937 31.0447 13.0411 31.2659 13.2651C31.4871 13.4891 31.633 13.7781 31.6827 14.091C31.6354 14.3302 31.5081 14.5456 31.3224 14.7007C31.1367 14.8558 30.9038 14.9413 30.6632 14.9426Z" fill="#42403E"/>
<path d="M30.1787 13.8928C30.1784 13.988 30.2059 14.081 30.2577 14.1603C30.3096 14.2396 30.3835 14.3014 30.4701 14.3381C30.5567 14.3747 30.6521 14.3845 30.7441 14.3661C30.8362 14.3478 30.9208 14.3022 30.9873 14.235C31.0537 14.1679 31.0991 14.0823 31.1175 13.989C31.1359 13.8957 31.1266 13.799 31.0908 13.7111C31.055 13.6232 30.9942 13.5481 30.9162 13.4952C30.8383 13.4423 30.7465 13.4141 30.6527 13.4141C30.5273 13.4141 30.407 13.4645 30.3182 13.5542C30.2293 13.6439 30.1792 13.7657 30.1787 13.8928Z" fill="white"/>
<path d="M59.0997 8.70343C58.7077 8.27875 58.2176 8.06641 57.6459 8.06641H57.4172C56.9924 8.06641 56.6167 8.16441 56.29 8.34408C55.9306 8.55642 55.6529 8.85043 55.4896 9.19345L51.177 18.1771L46.8644 9.20978C46.7011 8.8341 46.4234 8.55642 46.064 8.34408C45.7373 8.16441 45.3616 8.06641 44.9532 8.06641H44.7245C44.1527 8.06641 43.6627 8.29508 43.2706 8.70343C42.9276 9.07911 42.7316 9.50379 42.6662 9.99381L41 23.5836V23.845C41 24.4003 41.196 24.8904 41.5881 25.266C41.9801 25.6581 42.4865 25.8541 43.0583 25.8541C43.581 25.8541 44.0547 25.6744 44.4468 25.3314C44.8388 24.9884 45.0675 24.5147 45.1329 23.992L46.015 16.6907L49.1187 23.012C49.2658 23.2896 49.4454 23.5836 49.6741 23.845C49.9355 24.1553 50.4092 24.5147 51.1933 24.5147C51.9774 24.5147 52.4512 24.1553 52.7125 23.845C52.9412 23.5836 53.1209 23.306 53.2679 23.012L56.3227 16.7071L57.2211 23.9757C57.2701 24.5147 57.4988 24.972 57.8746 25.315C58.2503 25.6581 58.7403 25.8541 59.2957 25.8541C59.8675 25.8541 60.3739 25.6581 60.7659 25.266C61.158 24.874 61.354 24.384 61.354 23.845V23.7143L59.6878 10.0101C59.6388 9.50379 59.4264 9.07911 59.0997 8.70343Z" fill="white"/>
<path d="M80.3851 10.6461C79.5847 9.8294 78.6372 9.17605 77.5591 8.7187C76.4646 8.24501 75.2884 8 74.0469 8C72.8055 8 71.613 8.24501 70.5348 8.7187C69.4567 9.19238 68.5256 9.84574 67.7414 10.6624C66.9573 11.4791 66.3366 12.4265 65.8792 13.5209C65.4218 14.6152 65.1931 15.7913 65.1931 17.0163C65.1931 18.2414 65.4218 19.4174 65.8792 20.5118C66.3366 21.5898 66.9573 22.5535 67.7414 23.3702C68.5256 24.1869 69.473 24.8403 70.5512 25.2976C71.6293 25.7713 72.8055 26 74.0633 26C75.3048 26 76.4973 25.7713 77.5754 25.2976C78.6536 24.8403 79.601 24.1869 80.4015 23.3702C81.2019 22.5535 81.8226 21.6062 82.28 20.5118C82.7374 19.4174 82.9661 18.2414 82.9661 17.0163C82.9661 15.7913 82.7374 14.6152 82.28 13.5209C81.8063 12.4265 81.1692 11.4628 80.3851 10.6461ZM74.0306 21.8675C73.3772 21.8675 72.7564 21.7368 72.201 21.4918C71.6293 21.2468 71.1229 20.8875 70.7145 20.4628C70.2898 20.0381 69.9631 19.5154 69.718 18.9274C69.473 18.3394 69.3587 17.686 69.3587 17C69.3587 16.314 69.473 15.677 69.718 15.0726C69.9631 14.4846 70.2898 13.9619 70.7145 13.5209C71.1392 13.0799 71.6293 12.7368 72.201 12.4918C72.7564 12.2468 73.3772 12.1162 74.0306 12.1162C74.684 12.1162 75.3048 12.2468 75.8765 12.4918C76.4483 12.7368 76.9547 13.0962 77.3794 13.5209C77.8041 13.9619 78.1308 14.4846 78.3759 15.0726C78.6209 15.6606 78.7352 16.314 78.7352 17C78.7352 17.686 78.6209 18.3231 78.3759 18.9274C78.1308 19.5154 77.8041 20.0381 77.3794 20.4628C76.9547 20.8875 76.4483 21.2468 75.8765 21.4918C75.3211 21.7368 74.7004 21.8675 74.0306 21.8675Z" fill="white"/>
<path d="M95.2502 21.7041H90.856V10.1723C90.856 9.6006 90.6436 9.07792 90.2516 8.6859C89.8595 8.29389 89.3368 8.08154 88.765 8.08154C88.177 8.08154 87.6706 8.29389 87.2785 8.70224C86.9028 9.09425 86.6904 9.61694 86.6904 10.1886V23.6478C86.6904 24.2195 86.9028 24.7422 87.3112 25.1505C87.7196 25.5589 88.226 25.7712 88.7977 25.7712H95.2666C95.8056 25.7712 96.2957 25.5752 96.6877 25.1995C97.0961 24.8075 97.3085 24.3012 97.3085 23.7458C97.3085 23.1904 97.0961 22.7004 96.6877 22.3084C96.2794 21.9001 95.7893 21.7041 95.2502 21.7041Z" fill="white"/>
<path d="M116.209 22.9946L111.177 9.74782C110.981 9.25781 110.704 8.84946 110.312 8.55545C109.887 8.22877 109.381 8.06543 108.809 8.06543H108.695C108.074 8.06543 107.551 8.22877 107.143 8.57178C106.783 8.86579 106.506 9.24147 106.293 9.73149L101.262 22.9783C101.033 23.5337 101.033 24.089 101.262 24.6117C101.474 25.1181 101.883 25.4937 102.422 25.7224L102.454 25.7387C102.699 25.8368 102.961 25.8694 103.206 25.8694C103.5 25.8694 103.794 25.8041 104.072 25.6734C104.562 25.4447 104.937 25.0364 105.15 24.5137L106.195 21.8186H111.325L112.354 24.5137C112.55 25.0364 112.925 25.4284 113.415 25.6734C113.922 25.9184 114.477 25.9348 115.033 25.7224L115.065 25.7061C115.588 25.4774 115.996 25.1017 116.209 24.5954C116.438 24.089 116.438 23.5337 116.209 22.9946ZM109.838 17.8331H107.665L108.744 14.7623L109.838 17.8331Z" fill="white"/>
</svg>
